<?xml version="1.0" standalone="no"?><!DOCTYPE svg PUBLIC "-//W3C//DTD SVG 1.1//EN" "http://www.w3.org/Graphics/SVG/1.1/DTD/svg11.dtd" ><svg xmlns="http://www.w3.org/2000/svg"><metadata></metadata><defs><font id="1.009;GOOG;ProductSans-Bold" horiz-adv-x="3284"><font-face font-family="Product Sans" font-weight="700" font-stretch="normal" units-per-em="1000" panose-1="2 11 7 3 3 5 2 4 2 3" ascent="960" descent="-253" x-height="3" bbox="-176 -285 3284 964" underline-thickness="50" underline-position="-100" unicode-range="U+0000-f8ff" /><missing-glyph horiz-adv-x="570" d="M72 716 l426 0 l0 -716 l-426 0 l0 716 ZM136 60 l298 0 l0 596 l-298 0 l0 -596 Z" /><glyph glyph-name="Eth" unicode="ð" d="M132 302 l-76 0 l0 110 l76 0 l0 304 l242 0 q85 0 153 -26 q68 -26 116 -73.5 q48 -47.5 73.5 -113.5 q25.5 -66 25.5 -145 q0 -80 -25.5 -146 q-25.5 -66 -73.5 -113 q-48 -47 -116 -73 q-68 -26 -153 -26 l-242 0 l0 302 ZM368 128 q59 0 104 16.5 q45 16.5 75 46.5 q30 30 45 72.5 q15 42.5 15 94.5 q0 52 -15 94.5 q-15 42.5 -45 72.5 q-30 30 -75 46.5 q-45 16.5 -104 16.5 l-101 0 l0 -176 l184 0 l0 -110 l-184 0 l0 -174 l101 0 Z" /><glyph glyph-name="eth" unicode="ð" d="M156 724 q103 -25 176 -70 l102 45 l34 -79 l-60 -27 q66 -64 98 -149.5 q32 -85.5 32 -186.5 q0 -63 -19 -113.5 q-19 -50.5 -52.5 -86 q-33.5 -35.5 -80 -54.5 q-46.5 -19 -101.5 -19 q-51 0 -95.5 18.5 q-44.5 18.5 -77.5 51.5 q-33 33 -52.5 78 q-19.5 45 -19.5 98 q0 54 19.5 99 q19.5 45 51.5 77.5 q32 32.5 74 50 q42 17.5 86 17.5 q37 0 63.5 -10 q26.5 -10 42.5 -24 l7 5 q-13 31 -34.5 56 q-21.5 25 -47.5 45 l-125 -55 l-34 79 l62 28 q-23 9 -45.5 15.5 q-22.5 6.5 -44.5 11.5 l41 99 ZM287 101 q24 0 46 9 q22 9 38.5 26 q16.5 17 26 41 q9.5 24 9.5 53 q0 29 -9.5 52.5 q-9.5 23.5 -25.5 40.5 q-16 17 -38 26 q-22 9 -46 9 q-25 0 -47 -9 q-22 -9 -38.5 -26 q-16.5 -17 -26.5 -40.5 q-10 -23.5 -10 -52.5 q0 -29 10 -53 q10 -24 26.5 -41 q16.5 -17 38.5 -26 q22 -9 46 -9 Z" /><glyph glyph-name="Thorn" unicode="þ" d="M72 0 l0 716 l135 0 l0 -108 l117 0 q51 0 95.5 -16.5 q44.5 -16.5 77.5 -46.5 q33 -30 52 -72 q19 -42 19 -92 q0 -50 -19 -91.5 q-19 -41.5 -52 -71.5 q-33 -30 -77.5 -46.5 q-44.5 -16.5 -95.5 -16.5 l-117 0 l0 -155 l-135 0 ZM207 480 l0 -197 l119 0 q54 0 80.5 29.5 q26.5 29.5 26.5 68.5 q0 39 -27 69 q-27 30 -80 30 l-119 0 Z" /><glyph glyph-name="thorn" unicode="þ" d="M337 -16 q-56 0 -94 22 q-38 22 -56 53 l-8 0 l8 -70 l0 -205 l-131 0 l0 932 l131 0 l0 -215 l-8 -70 l8 0 q18 31 56 53 q38 22 94 22 q47 0 89.5 -19.5 q42.5 -19.5 75 -54 q32.5 -34.5 51.5 -82.5 q19 -48 19 -105 q0 -57 -19 -105 q-19 -48 -51.5 -82.5 q-32.5 -34.5 -75 -54 q-42.5 -19.5 -89.5 -19.5 ZM310 105 q26 0 49.5 10 q23.5 10 41.5 28 q18 18 29 44 q11 26 11 58 q0 32 -11 58 q-11 26 -29 44 q-18 18 -41.5 28 q-23.5 10 -49.5 10 q-26 0 -49.5 -9.5 q-23.5 -9.5 -41.5 -27.5 q-18 -18 -29 -44 q-11 -26 -11 -59 q0 -33 11 -59 q11 -26 29 -44 q18 -18 41.5 -27.5 q23.5 -9.5 49.5 -9.5 Z" /><glyph glyph-name="uni000D" unicode="" d="M0 0 l0 0 Z" /><glyph glyph-name="brokenbar" unicode="¦" d="M72 376 l0 380 l120 0 l0 -380 l-120 0 ZM72 -120 l0 412 l120 0 l0 -412 l-120 0 Z" /><glyph glyph-name="minus" unicode="&#x2212;" d="M56 213 l0 116 l457 0 l0 -116 l-457 0 Z" /><glyph glyph-name="multiply" unicode="×" d="M223 271 l-163 156 l81 81 l165 -158 l164 158 l81 -81 l-163 -156 l163 -156 l-81 -81 l-164 158 l-165 -158 l-81 81 l163 156 Z" /><glyph glyph-name="space" unicode=" " d="M0 0 l0 0 Z" /><glyph glyph-name="exclam" unicode="!" d="M135 -6 q-36 0 -61.5 25.5 q-25.5 25.5 -25.5 61.5 q0 36 25.5 61 q25.5 25 61.5 25 q36 0 61 -25 q25 -25 25 -61 q0 -36 -25 -61.5 q-25 -25.5 -61 -25.5 ZM67 510 l0 206 l135 0 l0 -206 l-14 -264 l-107 0 l-14 264 Z" /><glyph glyph-name="quotedbl" unicode="&quot;" d="M216 490 l0 226 l119 0 l0 -226 l-119 0 ZM44 490 l0 226 l119 0 l0 -226 l-119 0 Z" /><glyph glyph-name="numbersign" unicode="#" d="M110 0 l29 192 l-116 0 l17 102 l114 0 l15 105 l-116 0 l16 102 l115 0 l28 183 l111 0 l-28 -183 l112 0 l28 183 l110 0 l-27 -183 l115 0 l-16 -102 l-114 0 l-16 -105 l117 0 l-16 -102 l-116 0 l-29 -192 l-110 0 l28 192 l-112 0 l-28 -192 l-111 0 ZM262 292 l116 0 l17 109 l-116 0 l-17 -109 Z" /><glyph glyph-name="dollar" unicode="$" d="M241 -13 q-75 11 -133.5 58 q-58.5 47 -83.5 135 l115 47 q10 -40 37 -71.5 q27 -31.5 65 -43.5 l0 190 l-9 4 q-37 14 -69.5 33 q-32.5 19 -57 44 q-24.5 25 -39 56.5 q-14.5 31.5 -14.5 70.5 q0 36 13 68 q13 32 37.5 57 q24.5 25 59.5 41.5 q35 16.5 79 21.5 l0 86 l89 0 l0 -88 q40 -6 69.5 -21 q29.5 -15 51 -34.5 q21.5 -19.5 34.5 -41.5 q13 -22 20 -43 l-112 -50 q-7 20 -22 38 q-15 18 -41 29 l0 -179 q43 -18 78 -37 q35 -19 60 -43 q25 -24 38 -54.5 q13 -30.5 13 -70.5 q0 -45 -15.5 -80 q-15.5 -35 -41.5 -60 q-26 -25 -60.5 -40 q-34.5 -15 -71.5 -21 l0 -88 l-89 0 l0 87 ZM175 510 q0 -24 15.5 -41.5 q15.5 -17.5 50.5 -35.5 l0 146 q-30 -8 -48 -26 q-18 -18 -18 -43 ZM391 188 q0 26 -14 43 q-14 17 -47 34 l0 -153 q27 9 44 28.5 q17 19.5 17 47.5 Z" /><glyph glyph-name="percent" unicode="%" d="M32 529 q0 35 13.5 66 q13.5 31 37 54.5 q23.5 23.5 55.5 37 q32 13.5 70 13.5 q38 0 70.5 -13.5 q32.5 -13.5 56 -37 q23.5 -23.5 37 -54.5 q13.5 -31 13.5 -66 q0 -35 -13.5 -66.5 q-13.5 -31.5 -37 -54.5 q-23.5 -23 -56 -36.5 q-32.5 -13.5 -70.5 -13.5 q-38 0 -70 13.5 q-32 13.5 -55.5 36.5 q-23.5 23 -37 54.5 q-13.5 31.5 -13.5 66.5 ZM139 529 q0 -33 20 -53 q20 -20 49 -20 q29 0 49 20 q20 20 20 53 q0 33 -20 53 q-20 20 -49 20 q-29 0 -49 -20 q-20 -20 -20 -53 ZM159 37 l444 663 l79 -53 l-444 -663 l-79 53 ZM456 155 q0 35 13.5 66 q13.5 31 37 54.5 q23.5 23.5 55.5 37 q32 13.5 70 13.5 q38 0 70.5 -13.5 q32.5 -13.5 56 -37 q23.5 -23.5 37 -54.5 q13.5 -31 13.5 -66 q0 -35 -13.5 -66.5 q-13.5 -31.5 -37 -54.5 q-23.5 -23 -56 -36.5 q-32.5 -13.5 -70.5 -13.5 q-38 0 -70 13.5 q-32 13.5 -55.5 36.5 q-23.5 23 -37 54.5 q-13.5 31.5 -13.5 66.5 ZM563 155 q0 -33 20 -53 q20 -20 49 -20 q29 0 49 20 q20 20 20 53 q0 33 -20 53 q-20 20 -49 20 q-29 0 -49 -20 q-20 -20 -20 -53 Z" /><glyph glyph-name="ampersand" unicode="&amp;" d="M545 147 l75 -90 l-95 -73 l-52 63 q-71 -63 -171 -63 q-56 0 -104.5 18.5 q-48.5 18.5 -84.5 52 q-36 33.5 -56.5 79.5 q-20.5 46 -20.5 101 q0 60 29.5 114 q29.5 54 82.5 92 q-19 26 -31 54 q-12 28 -12 59 q0 37 13.5 69.5 q13.5 32.5 38.5 56.5 q25 24 59 38 q34 14 75 14 q72 0 115.5 -33.5 q43.5 -33.5 62.5 -84.5 l-106 -56 q-8 24 -25 41.5 q-17 17.5 -45 17.5 q-29 0 -46 -17 q-17 -17 -17 -43 q0 -16 7 -29.5 q7 -13.5 19 -28.5 l215 -262 l59 96 l95 -60 l-80 -126 ZM308 102 q56 0 92 33 l-181 219 q-28 -21 -43 -51.5 q-15 -30.5 -15 -62.5 q0 -32 12 -57.5 q12 -25.5 32.5 -43.5 q20.5 -18 47 -27.5 q26.5 -9.5 55.5 -9.5 Z" /><glyph glyph-name="quotesingle" unicode="&#39;" d="M44 490 l0 226 l119 0 l0 -226 l-119 0 Z" /><glyph glyph-name="parenleft" unicode="(" d="M339 712 q-65 -81 -104.5 -178 q-39.5 -97 -39.5 -212 q0 -115 39.5 -212 q39.5 -97 104.5 -178 l-99 -68 q-30 33 -61.5 81 q-31.5 48 -57 107 q-25.5 59 -41.5 127.5 q-16 68.5 -16 142.5 q0 74 16 142.5 q16 68.5 41.5 127.5 q25.5 59 57 107 q31.5 48 61.5 81 l99 -68 Z" /><glyph glyph-name="parenright" unicode=")" d="M119 780 q30 -33 61 -81 q31 -48 56.5 -107 q25.5 -59 42 -127.5 q16.5 -68.5 16.5 -142.5 q0 -74 -16.5 -142.5 q-16.5 -68.5 -42 -127.5 q-25.5 -59 -56.5 -107 q-31 -48 -61 -81 l-99 68 q65 81 104.5 178 q39.5 97 39.5 212 q0 115 -39.5 212 q-39.5 97 -104.5 178 l99 68 Z" /><glyph glyph-name="asterisk" unicode="*" d="M71 636 l105 -37 l9 3 l0 114 l94 0 l0 -114 l8 -3 l106 37 l31 -89 l-107 -38 l-3 -9 l72 -98 l-76 -55 l-74 100 l-8 0 l-74 -100 l-76 55 l72 98 l-3 9 l-107 38 l31 89 Z" /><glyph glyph-name="plus" unicode="+" d="M342 329 l171 0 l0 -116 l-171 0 l0 -170 l-116 0 l0 170 l-170 0 l0 116 l170 0 l0 170 l116 0 l0 -170 Z" /><glyph glyph-name="comma" unicode="," d="M44 -89 l59 91 q-22 8 -37.5 29 q-15.5 21 -15.5 50 q0 36 25.5 61 q25.5 25 61.5 25 q36 0 61 -25 q25 -25 25 -61 q0 -19 -6 -33.5 q-6 -14.5 -19 -33.5 l-95 -142 l-59 39 Z" /><glyph glyph-name="hyphen" unicode="-" d="M56 368 l339 0 l0 -116 l-339 0 l0 116 Z" /><glyph glyph-name="period" unicode="." d="M135 -6 q-36 0 -61.5 25.5 q-25.5 25.5 -25.5 61.5 q0 36 25.5 61 q25.5 25 61.5 25 q36 0 61 -25 q25 -25 25 -61 q0 -36 -25 -61.5 q-25 -25.5 -61 -25.5 Z" /><glyph glyph-name="slash" unicode="/" d="M27 0 l297 716 l129 0 l-297 -716 l-129 0 Z" /><glyph glyph-name="zero" unicode="0" d="M331 -16 q-66 0 -119 27.5 q-53 27.5 -90.5 75.5 q-37.5 48 -57.5 113.5 q-20 65.5 -20 141.5 q0 76 20 141.5 q20 65.5 57.5 113.5 q37.5 48 90.5 75.5 q53 27.5 119 27.5 q66 0 119 -27.5 q53 -27.5 90.5 -75.5 q37.5 -48 57.5 -113.5 q20 -65.5 20 -141.5 q0 -76 -20 -141.5 q-20 -65.5 -57.5 -113.5 q-37.5 -48 -90.5 -75.5 q-53 -27.5 -119 -27.5 ZM331 108 q36 0 65 17.5 q29 17.5 49.5 49 q20.5 31.5 31 74.5 q10.5 43 10.5 93 q0 51 -10.5 93.5 q-10.5 42.5 -31 74 q-20.5 31.5 -49.5 49 q-29 17.5 -65 17.5 q-37 0 -66 -17.5 q-29 -17.5 -49 -49 q-20 -31.5 -30.5 -74 q-10.5 -42.5 -10.5 -93.5 q0 -50 10.5 -93 q10.5 -43 30.5 -74.5 q20 -31.5 49 -49 q29 -17.5 66 -17.5 Z" /><glyph glyph-name="one" unicode="1" d="M209 0 l0 530 l-121 -51 l-48 111 l201 94 l99 0 l0 -684 l-131 0 Z" /><glyph glyph-name="two" unicode="2" d="M46 0 l0 119 q59 58 109 108 q21 21 43 43 q22 22 41 41 q19 19 34 34.5 q15 15.5 23 24.5 q16 19 28.5 34 q12.5 15 20 29.5 q7.5 14.5 11.5 29 q4 14.5 4 31.5 q0 33 -26 57.5 q-26 24.5 -71 24.5 q-45 0 -70 -25.5 q-25 -25.5 -34 -57.5 l-119 49 q8 27 26 55.5 q18 28.5 46 51 q28 22.5 66.5 37 q38.5 14.5 86.5 14.5 q52 0 94 -15.5 q42 -15.5 71 -42.5 q29 -27 45 -63.5 q16 -36.5 16 -78.5 q0 -64 -31.5 -117.5 q-31.5 -53.5 -76.5 -99.5 l-86 -86 q-34 -34 -77 -76 l4 -6 l277 0 l0 -115 l-455 0 Z" /><glyph glyph-name="three" unicode="3" d="M281 -16 q-42 0 -80.5 11 q-38.5 11 -70.5 33.5 q-32 22.5 -56.5 56.5 q-24.5 34 -37.5 79 l123 49 q13 -50 44 -75.5 q31 -25.5 78 -25.5 q21 0 40 6.5 q19 6.5 33 18.5 q14 12 22.5 28.5 q8.5 16.5 8.5 37.5 q0 44 -32.5 69 q-32.5 25 -89.5 25 l-59 0 l0 119 l54 0 q20 0 39 5 q19 5 33.5 15.5 q14.5 10.5 23 27 q8.5 16.5 8.5 38.5 q0 34 -24 55.5 q-24 21.5 -65 21.5 q-44 0 -67.5 -23.5 q-23.5 -23.5 -32.5 -52.5 l-120 49 q9 25 27 51.5 q18 26.5 45.5 48 q27.5 21.5 64.5 35 q37 13.5 85 13.5 q49 0 89.5 -14 q40.5 -14 69.5 -38.5 q29 -24.5 45 -58 q16 -33.5 16 -72.5 q0 -30 -7.5 -54 q-7.5 -24 -19.5 -43 q-12 -19 -27.5 -32.5 q-15.5 -13.5 -31.5 -21.5 l0 -8 q48 -19 79.5 -61 q31.5 -42 31.5 -106 q0 -45 -17 -82.5 q-17 -37.5 -48.5 -65.5 q-31.5 -28 -75.5 -43.5 q-44 -15.5 -98 -15.5 Z" /><glyph glyph-name="four" unicode="4" d="M356 0 l0 126 l-316 0 l0 106 l304 452 l142 0 l0 -436 l86 0 l0 -122 l-86 0 l0 -126 l-130 0 ZM356 489 l-8 0 l-163 -241 l171 0 l0 241 Z" /><glyph glyph-name="five" unicode="5" d="M283 -16 q-39 0 -77.5 11 q-38.5 11 -71.5 34 q-33 23 -57.5 57.5 q-24.5 34.5 -36.5 82.5 l119 46 q11 -50 42.5 -80 q31.5 -30 80.5 -30 q24 0 44.5 8.5 q20.5 8.5 36 23.5 q15.5 15 24 35.5 q8.5 20.5 8.5 45.5 q0 24 -8.5 44.5 q-8.5 20.5 -23.5 36 q-15 15.5 -35.5 24 q-20.5 8.5 -45.5 8.5 q-31 0 -55 -13.5 q-24 -13.5 -41 -33.5 l-127 58 l40 342 l385 0 l0 -115 l-276 0 l-26 -160 l8 -2 q20 17 49 29 q29 12 70 12 q43 0 82 -16.5 q39 -16.5 69 -46.5 q30 -30 48 -72.5 q18 -42.5 18 -94.5 q0 -51 -18 -94 q-18 -43 -50.5 -74 q-32.5 -31 -77 -48.5 q-44.5 -17.5 -97.5 -17.5 Z" /><glyph glyph-name="six" unicode="6" d="M322 440 q39 0 76 -16.5 q37 -16.5 66 -45.5 q29 -29 46.5 -70 q17.5 -41 17.5 -90 q0 -51 -20 -94 q-20 -43 -53.5 -74 q-33.5 -31 -77 -48.5 q-43.5 -17.5 -91.5 -17.5 q-56 0 -101 19.5 q-45 19.5 -77.5 52 q-32.5 32.5 -50 76 q-17.5 43.5 -17.5 91.5 q0 69 27.5 126.5 q27.5 57.5 69.5 117.5 l166 237 l101 -70 l-140 -198 l5 -6 q23 10 53 10 ZM284 105 q22 0 43 8 q21 8 37 23 q16 15 25.5 35.5 q9.5 20.5 9.5 45.5 q0 25 -9.5 46 q-9.5 21 -25.5 36 q-16 15 -37 23 q-21 8 -43 8 q-23 0 -43.5 -8 q-20.5 -8 -37 -23 q-16.5 -15 -26 -36 q-9.5 -21 -9.5 -46 q0 -25 9.5 -45.5 q9.5 -20.5 26 -35.5 q16.5 -15 37 -23 q20.5 -8 43.5 -8 Z" /><glyph glyph-name="seven" unicode="7" d="M73 45 l285 509 l-3 6 l-315 0 l2 124 l464 0 l0 -130 l-323 -570 l-110 61 Z" /><glyph glyph-name="eight" unicode="8" d="M288 -16 q-55 0 -100.5 16 q-45.5 16 -78.5 43.5 q-33 27.5 -51 65 q-18 37.5 -18 81.5 q0 30 8.5 56 q8.5 26 23 47 q14.5 21 33.5 37 q19 16 40 27 l0 8 q-33 22 -57.5 58 q-24.5 36 -24.5 84 q0 41 17 76.5 q17 35.5 47 61.5 q30 26 71 40.5 q41 14.5 90 14.5 q49 0 90 -14.5 q41 -14.5 71 -40.5 q30 -26 47 -61.5 q17 -35.5 17 -76.5 q0 -48 -24.5 -84 q-24.5 -36 -57.5 -58 l0 -8 q21 -11 40 -27 q19 -16 33.5 -37 q14.5 -21 23 -47 q8.5 -26 8.5 -56 q0 -44 -18 -81.5 q-18 -37.5 -51 -65 q-33 -27.5 -78.5 -43.5 q-45.5 -16 -100.5 -16 ZM288 414 q42 0 70 23.5 q28 23.5 28 61.5 q0 39 -28 61.5 q-28 22.5 -70 22.5 q-42 0 -70 -22.5 q-28 -22.5 -28 -61.5 q0 -38 28 -61.5 q28 -23.5 70 -23.5 ZM288 105 q51 0 84 26.5 q33 26.5 33 71.5 q0 21 -9 38.5 q-9 17.5 -24.5 30.5 q-15.5 13 -37 20 q-21.5 7 -46.5 7 q-25 0 -46.5 -7 q-21.5 -7 -37 -20 q-15.5 -13 -24.5 -30.5 q-9 -17.5 -9 -38.5 q0 -45 33 -71.5 q33 -26.5 84 -26.5 Z" /><glyph glyph-name="nine" unicode="9" d="M246 245 q-39 0 -76 16 q-37 16 -66 45.5 q-29 29.5 -46.5 70 q-17.5 40.5 -17.5 89.5 q0 51 20 94.5 q20 43.5 53.5 74.5 q33.5 31 77 48.5 q43.5 17.5 91.5 17.5 q55 0 100.5 -19.5 q45.5 -19.5 78 -52 q32.5 -32.5 50 -76 q17.5 -43.5 17.5 -91.5 q0 -69 -27.5 -126.5 q-27.5 -57.5 -69.5 -117.5 l-166 -237 l-101 69 l140 199 l-5 6 q-23 -10 -53 -10 ZM284 580 q-23 0 -43.5 -8 q-20.5 -8 -36.5 -23 q-16 -15 -25.5 -35.5 q-9.5 -20.5 -9.5 -45.5 q0 -26 9.5 -46.5 q9.5 -20.5 25.5 -35.5 q16 -15 36.5 -23 q20.5 -8 43.5 -8 q22 0 43 8 q21 8 37.5 23 q16.5 15 26 35.5 q9.5 20.5 9.5 46.5 q0 25 -9.5 45.5 q-9.5 20.5 -26 35.5 q-16.5 15 -37.5 23 q-21 8 -43 8 Z" /><glyph glyph-name="colon" unicode=":" d="M135 -6 q-36 0 -61.5 25.5 q-25.5 25.5 -25.5 61.5 q0 36 25.5 61 q25.5 25 61.5 25 q36 0 61 -25 q25 -25 25 -61 q0 -36 -25 -61.5 q-25 -25.5 -61 -25.5 ZM135 329 q-36 0 -61.5 25.5 q-25.5 25.5 -25.5 61.5 q0 36 25.5 61.5 q25.5 25.5 61.5 25.5 q36 0 61 -25.5 q25 -25.5 25 -61.5 q0 -36 -25 -61.5 q-25 -25.5 -61 -25.5 Z" /><glyph glyph-name="semicolon" unicode=";" d="M137 329 q-36 0 -61.5 25.5 q-25.5 25.5 -25.5 61.5 q0 36 25.5 61.5 q25.5 25.5 61.5 25.5 q36 0 61 -25.5 q25 -25.5 25 -61.5 q0 -36 -25 -61.5 q-25 -25.5 -61 -25.5 ZM44 -83 l59 91 q-22 8 -37.5 29 q-15.5 21 -15.5 50 q0 36 25.5 61 q25.5 25 61.5 25 q36 0 61 -25 q25 -25 25 -61 q0 -19 -6 -33.5 q-6 -14.5 -19 -33.5 l-95 -142 l-59 39 Z" /><glyph glyph-name="less" unicode="&lt;" d="M56 219 l0 104 l415 191 l0 -129 l-258 -110 l0 -8 l258 -110 l0 -129 l-415 191 Z" /><glyph glyph-name="equal" unicode="=" d="M56 477 l469 0 l0 -116 l-469 0 l0 116 ZM56 277 l469 0 l0 -116 l-469 0 l0 116 Z" /><glyph glyph-name="greater" unicode="&gt;" d="M60 28 l0 129 l258 110 l0 8 l-258 110 l0 129 l415 -191 l0 -104 l-415 -191 Z" /><glyph glyph-name="question" unicode="?" d="M188 246 l0 33 q0 24 5 44.5 q5 20.5 15.5 39.5 q10.5 19 28 38 q17.5 19 43.5 41 q27 24 42 44 q15 20 15 49 q0 30 -22.5 53 q-22.5 23 -61.5 23 q-21 0 -38 -7 q-17 -7 -30 -19 q-13 -12 -21.5 -27 q-8.5 -15 -12.5 -31 l-115 48 q8 28 25.5 56 q17.5 28 44 50.5 q26.5 22.5 62.5 36.5 q36 14 81 14 q48 0 88 -14.5 q40 -14.5 68.5 -40 q28.5 -25.5 44.5 -60.5 q16 -35 16 -75 q0 -29 -7 -52 q-7 -23 -19 -43 q-12 -20 -28 -37.5 q-16 -17.5 -34 -34.5 q-17 -16 -28.5 -29 q-11.5 -13 -18 -25.5 q-6.5 -12.5 -9.5 -26.5 q-3 -14 -3 -32 l0 -16 l-131 0 ZM252 -6 q-36 0 -61 25.5 q-25 25.5 -25 61.5 q0 36 25 61 q25 25 61 25 q36 0 61.5 -25 q25.5 -25 25.5 -61 q0 -36 -25.5 -61.5 q-25.5 -25.5 -61.5 -25.5 Z" /><glyph glyph-name="at" unicode="@" d="M440 690 q87 0 159.5 -30.5 q72.5 -30.5 124.5 -82.5 q52 -52 80.5 -121.5 q28.5 -69.5 28.5 -147.5 q0 -45 -11 -84 q-11 -39 -31.5 -67.5 q-20.5 -28.5 -50.5 -44.5 q-30 -16 -67 -16 q-38 0 -70.5 19 q-32.5 19 -48.5 53 q-45 -72 -137 -72 q-41 0 -76 15 q-35 15 -61.5 42 q-26.5 27 -41.5 64.5 q-15 37.5 -15 82.5 q0 45 15.5 82.5 q15.5 37.5 41.5 64.5 q26 27 60.5 42 q34.5 15 72.5 15 q38 0 65 -15 q27 -15 43 -37 l8 0 l0 38 l98 0 l0 -246 q0 -26 13 -43.5 q13 -17.5 36 -17.5 q16 0 28 10 q12 10 20 27 q8 17 11.5 40 q3.5 23 3.5 49 q0 57 -22 109.5 q-22 52.5 -62 92.5 q-40 40 -94.5 64 q-54.5 24 -120.5 24 q-62 0 -116 -21.5 q-54 -21.5 -94 -60 q-40 -38.5 -63 -93 q-23 -54.5 -23 -120.5 q0 -66 24.5 -120.5 q24.5 -54.5 65 -93 q40.5 -38.5 94 -60 q53.5 -21.5 112.5 -21.5 q38 0 71.5 8.5 q33.5 8.5 61.5 24.5 l34 -87 q-36 -17 -79 -27 q-43 -10 -88 -10 q-87 0 -160 30 q-73 30 -125.5 82.5 q-52.5 52.5 -81.5 123 q-29 70.5 -29 150.5 q0 79 29 149.5 q29 70.5 81.5 123 q52.5 52.5 125.5 83 q73 30.5 160 30.5 ZM424 193 q20 0 38 7 q18 7 32 21 q14 14 22.5 33.5 q8.5 19.5 8.5 45.5 q0 25 -8.5 45 q-8.5 20 -22.5 34 q-14 14 -32 21 q-18 7 -38 7 q-41 0 -71 -28 q-30 -28 -30 -79 q0 -51 30 -79 q30 -28 71 -28 Z" /><glyph glyph-name="A" unicode="a" d="M281 716 l154 0 l269 -716 l-149 0 l-59 171 l-276 0 l-59 -171 l-149 0 l269 716 ZM452 295 l-64 179 l-26 87 l-8 0 l-26 -87 l-64 -179 l188 0 Z" /><glyph glyph-name="B" unicode="b" d="M72 716 l280 0 q46 0 86 -14.5 q40 -14.5 69.5 -40 q29.5 -25.5 46.5 -59.5 q17 -34 17 -73 q0 -57 -27.5 -95.5 q-27.5 -38.5 -68.5 -58.5 l0 -8 q55 -20 88.5 -62.5 q33.5 -42.5 33.5 -105.5 q0 -46 -18.5 -82.5 q-18.5 -36.5 -50.5 -62.5 q-32 -26 -74.5 -40 q-42.5 -14 -91.5 -14 l-290 0 l0 716 ZM342 424 q47 0 72.5 25.5 q25.5 25.5 25.5 60.5 q0 35 -25 60 q-25 25 -69 25 l-139 0 l0 -171 l135 0 ZM357 124 q51 0 78 25.5 q27 25.5 27 65.5 q0 40 -27.5 66.5 q-27.5 26.5 -81.5 26.5 l-146 0 l0 -184 l150 0 Z" /><glyph glyph-name="C" unicode="c" d="M698 115 q-53 -64 -125 -97.5 q-72 -33.5 -161 -33.5 q-80 0 -148.5 29 q-68.5 29 -118.5 79 q-50 50 -79 118.5 q-29 68.5 -29 147.5 q0 79 29 147.5 q29 68.5 79 118.5 q50 50 118.5 79 q68.5 29 148.5 29 q86 0 151.5 -30 q65.5 -30 116.5 -87 l-95 -92 q-32 37 -73.5 59 q-41.5 22 -98.5 22 q-50 0 -94 -17.5 q-44 -17.5 -76.5 -49.5 q-32.5 -32 -51.5 -77.5 q-19 -45.5 -19 -101.5 q0 -56 19 -101.5 q19 -45.5 51.5 -77.5 q32.5 -32 76.5 -49.5 q44 -17.5 94 -17.5 q60 0 106.5 24.5 q46.5 24.5 82.5 69.5 l96 -91 Z" /><glyph glyph-name="D" unicode="d" d="M72 716 l242 0 q85 0 153 -26 q68 -26 116 -73.5 q48 -47.5 73.5 -113.5 q25.5 -66 25.5 -145 q0 -80 -25.5 -146 q-25.5 -66 -73.5 -113 q-48 -47 -116 -73 q-68 -26 -153 -26 l-242 0 l0 716 ZM308 128 q59 0 104 16.5 q45 16.5 75 46.5 q30 30 45 72.5 q15 42.5 15 94.5 q0 52 -15 94.5 q-15 42.5 -45 72.5 q-30 30 -75 46.5 q-45 16.5 -104 16.5 l-101 0 l0 -460 l101 0 Z" /><glyph glyph-name="E" unicode="e" d="M207 588 l0 -166 l287 0 l0 -128 l-287 0 l0 -166 l319 0 l0 -128 l-454 0 l0 716 l454 0 l0 -128 l-319 0 Z" /><glyph glyph-name="F" unicode="f" d="M72 716 l454 0 l0 -128 l-319 0 l0 -174 l287 0 l0 -128 l-287 0 l0 -286 l-135 0 l0 716 Z" /><glyph glyph-name="G" unicode="g" d="M412 393 l351 0 q3 -12 5 -29 q2 -17 2 -34 q0 -69 -21 -130 q-21 -61 -66 -109 q-48 -51 -115 -79 q-67 -28 -153 -28 q-78 0 -147 28 q-69 28 -120 78 q-51 50 -81 118.5 q-30 68.5 -30 149.5 q0 81 30 149.5 q30 68.5 81 118.5 q51 50 120 78 q69 28 147 28 q87 0 155.5 -30 q68.5 -30 117.5 -83 l-93 -91 q-35 37 -78 56.5 q-43 19.5 -103 19.5 q-49 0 -93 -17.5 q-44 -17.5 -77 -49.5 q-33 -32 -52.5 -77.5 q-19.5 -45.5 -19.5 -101.5 q0 -56 19.5 -101.5 q19.5 -45.5 53 -77.5 q33.5 -32 77.5 -49.5 q44 -17.5 94 -17.5 q57 0 96.5 16.5 q39.5 16.5 67.5 42.5 q20 18 34.5 45.5 q14.5 27.5 22.5 61.5 l-225 0 l0 115 Z" /><glyph glyph-name="H" unicode="h" d="M72 716 l135 0 l0 -286 l301 0 l0 286 l135 0 l0 -716 l-135 0 l0 302 l-301 0 l0 -302 l-135 0 l0 716 Z" /><glyph glyph-name="I" unicode="i" d="M72 716 l135 0 l0 -716 l-135 0 l0 716 Z" /><glyph glyph-name="J" unicode="j" d="M261 -16 q-85 0 -148.5 46 q-63.5 46 -88.5 127 l124 51 q13 -48 42 -72 q29 -24 71 -24 q47 0 73 30 q26 30 26 84 l0 490 l135 0 l0 -489 q0 -60 -18.5 -105.5 q-18.5 -45.5 -50 -76 q-31.5 -30.5 -74 -46 q-42.5 -15.5 -91.5 -15.5 Z" /><glyph glyph-name="K" unicode="k" d="M72 716 l135 0 l0 -307 l8 0 l262 307 l163 0 l0 -8 l-259 -296 l286 -404 l0 -8 l-165 0 l-213 305 l-82 -95 l0 -210 l-135 0 l0 716 Z" /><glyph glyph-name="L" unicode="l" d="M72 716 l135 0 l0 -588 l303 0 l0 -128 l-438 0 l0 716 Z" /><glyph glyph-name="M" unicode="m" d="M72 716 l133 0 l219 -379 l8 0 l219 379 l134 0 l0 -716 l-134 0 l0 353 l8 120 l-8 0 l-182 -321 l-81 0 l-183 321 l-8 0 l8 -120 l0 -353 l-133 0 l0 716 Z" /><glyph glyph-name="N" unicode="n" d="M72 716 l157 0 l288 -480 l8 0 l-8 138 l0 342 l134 0 l0 -716 l-142 0 l-304 507 l-8 0 l8 -138 l0 -369 l-133 0 l0 716 Z" /><glyph glyph-name="O" unicode="o" d="M411 -16 q-80 0 -148.5 29 q-68.5 29 -118.5 79.5 q-50 50.5 -78.5 119 q-28.5 68.5 -28.5 146.5 q0 78 28.5 146.5 q28.5 68.5 78.5 119 q50 50.5 118.5 79.5 q68.5 29 148.5 29 q80 0 148.5 -29 q68.5 -29 118.5 -79.5 q50 -50.5 78.5 -119 q28.5 -68.5 28.5 -146.5 q0 -78 -28.5 -146.5 q-28.5 -68.5 -78.5 -119 q-50 -50.5 -118.5 -79.5 q-68.5 -29 -148.5 -29 ZM411 112 q50 0 93.5 18 q43.5 18 76 50 q32.5 32 51 77.5 q18.5 45.5 18.5 100.5 q0 55 -18.5 100.5 q-18.5 45.5 -51 77.5 q-32.5 32 -76 50 q-43.5 18 -93.5 18 q-50 0 -93.5 -18 q-43.5 -18 -76 -50 q-32.5 -32 -51 -77.5 q-18.5 -45.5 -18.5 -100.5 q0 -55 18.5 -100.5 q18.5 -45.5 51 -77.5 q32.5 -32 76 -50 q43.5 -18 93.5 -18 Z" /><glyph glyph-name="P" unicode="p" d="M72 0 l0 716 l252 0 q51 0 95.5 -16.5 q44.5 -16.5 77.5 -46.5 q33 -30 52 -71.5 q19 -41.5 19 -91.5 q0 -51 -19 -92.5 q-19 -41.5 -52 -71.5 q-33 -30 -77.5 -46.5 q-44.5 -16.5 -95.5 -16.5 l-117 0 l0 -263 l-135 0 ZM326 391 q53 0 80 30 q27 30 27 69 q0 19 -6.5 37 q-6.5 18 -20 31.5 q-13.5 13.5 -33.5 21.5 q-20 8 -47 8 l-119 0 l0 -197 l119 0 Z" /><glyph glyph-name="Q" unicode="q" d="M566 16 q-35 -15 -74 -23.5 q-39 -8.5 -81 -8.5 q-80 0 -148.5 29 q-68.5 29 -118.5 79.5 q-50 50.5 -78.5 119 q-28.5 68.5 -28.5 146.5 q0 78 28.5 146.5 q28.5 68.5 78.5 119 q50 50.5 118.5 79.5 q68.5 29 148.5 29 q80 0 148.5 -29 q68.5 -29 118.5 -79.5 q50 -50.5 78.5 -119 q28.5 -68.5 28.5 -146.5 q0 -83 -31 -154 q-31 -71 -87 -122 l55 -82 l-100 -67 l-56 83 ZM414 244 l100 68 l78 -118 q27 31 42.5 72.5 q15.5 41.5 15.5 91.5 q0 55 -18.5 100.5 q-18.5 45.5 -51 77.5 q-32.5 32 -76 50 q-43.5 18 -93.5 18 q-50 0 -93.5 -18 q-43.5 -18 -76 -50 q-32.5 -32 -51 -77.5 q-18.5 -45.5 -18.5 -100.5 q0 -55 18.5 -100.5 q18.5 -45.5 51 -77.5 q32.5 -32 76 -50 q43.5 -18 93.5 -18 q22 0 42 4 q20 4 39 11 l-78 117 Z" /><glyph glyph-name="R" unicode="r" d="M72 716 l261 0 q54 0 98 -17 q44 -17 75.5 -47 q31.5 -30 48.5 -71.5 q17 -41.5 17 -90.5 q0 -36 -12 -67.5 q-12 -31.5 -33 -57 q-21 -25.5 -49 -45 q-28 -19.5 -59 -30.5 l-1 -7 l192 -275 l0 -8 l-155 0 l-185 269 l-63 0 l0 -269 l-135 0 l0 716 ZM332 393 q46 0 75.5 28 q29.5 28 29.5 71 q0 19 -6.5 37 q-6.5 18 -19.5 32 q-13 14 -32.5 22.5 q-19.5 8.5 -44.5 8.5 l-127 0 l0 -199 l125 0 Z" /><glyph glyph-name="S" unicode="s" d="M291 -16 q-46 0 -88 13 q-42 13 -77 39 q-35 26 -61 63.5 q-26 37.5 -41 87.5 l127 50 q14 -54 49 -89.5 q35 -35.5 92 -35.5 q21 0 40.5 5.5 q19.5 5.5 35 16 q15.5 10.5 24.5 26.5 q9 16 9 37 q0 20 -7 36 q-7 16 -23.5 30 q-16.5 14 -43 27 q-26.5 13 -65.5 27 l-44 16 q-29 10 -58.5 27 q-29.5 17 -53.5 41 q-24 24 -39.5 56.5 q-15.5 32.5 -15.5 73.5 q0 42 16.5 78.5 q16.5 36.5 47 64 q30.5 27.5 73 43 q42.5 15.5 94.5 15.5 q54 0 93.5 -14.5 q39.5 -14.5 67 -37 q27.5 -22.5 44.5 -49.5 q17 -27 25 -51 l-119 -50 q-10 30 -36.5 54 q-26.5 24 -72.5 24 q-44 0 -73 -20.5 q-29 -20.5 -29 -53.5 q0 -32 28 -54.5 q28 -22.5 89 -43.5 l45 -15 q43 -15 78.5 -34.5 q35.5 -19.5 61 -46.5 q25.5 -27 39 -61.5 q13.5 -34.5 13.5 -79.5 q0 -56 -22.5 -96.5 q-22.5 -40.5 -57.5 -66.5 q-35 -26 -79 -39 q-44 -13 -86 -13 Z" /><glyph glyph-name="T" unicode="t" d="M224 0 l0 588 l-200 0 l0 128 l535 0 l0 -128 l-200 0 l0 -588 l-135 0 Z" /><glyph glyph-name="U" unicode="u" d="M334 -16 q-63 0 -114.5 20.5 q-51.5 20.5 -87.5 59.5 q-36 39 -56 94.5 q-20 55.5 -20 126.5 l0 431 l135 0 l0 -439 q0 -36 9 -66 q9 -30 27 -52 q18 -22 45 -34.5 q27 -12.5 62 -12.5 q36 0 63 12.5 q27 12.5 45 34.5 q18 22 27 52 q9 30 9 66 l0 439 l135 0 l0 -431 q0 -67 -19.5 -122.5 q-19.5 -55.5 -56 -95 q-36.5 -39.5 -88 -61.5 q-51.5 -22 -115.5 -22 Z" /><glyph glyph-name="V" unicode="v" d="M12 716 l146 0 l148 -431 l26 -92 l8 0 l28 92 l154 431 l146 0 l-261 -716 l-142 0 l-253 716 Z" /><glyph glyph-name="W" unicode="w" d="M16 716 l143 0 l111 -418 l16 -77 l8 0 l21 77 l103 322 l126 0 l104 -322 l20 -76 l8 0 l15 76 l104 418 l143 0 l-190 -716 l-130 0 l-112 345 l-21 79 l-8 0 l-21 -79 l-112 -345 l-130 0 l-198 716 Z" /><glyph glyph-name="X" unicode="x" d="M251 374 l-217 342 l167 0 l139 -234 l8 0 l139 234 l167 0 l-217 -342 l235 -374 l-168 0 l-156 258 l-8 0 l-156 -258 l-168 0 l235 374 Z" /><glyph glyph-name="Y" unicode="y" d="M253 333 l-241 383 l161 0 l143 -237 l8 0 l138 237 l163 0 l-237 -383 l0 -333 l-135 0 l0 333 Z" /><glyph glyph-name="Z" unicode="z" d="M32 136 l363 452 l-347 0 l0 128 l504 0 l0 -136 l-359 -452 l363 0 l0 -128 l-524 0 l0 136 Z" /><glyph glyph-name="bracketleft" unicode="[" d="M72 792 l248 0 l0 -108 l-120 0 l0 -700 l120 0 l0 -108 l-248 0 l0 916 Z" /><glyph glyph-name="backslash" unicode="\" d="M324 0 l-297 716 l129 0 l297 -716 l-129 0 Z" /><glyph glyph-name="bracketright" unicode="]" d="M280 -124 l-248 0 l0 108 l120 0 l0 700 l-120 0 l0 108 l248 0 l0 -916 Z" /><glyph glyph-name="asciicircum" unicode="^" d="M368 410 l-106 182 l-8 0 l-107 -182 l-135 0 l191 306 l109 0 l191 -306 l-135 0 Z" /><glyph glyph-name="underscore" unicode="_" d="M0 -100 l499 0 l0 -116 l-499 0 l0 116 Z" /><glyph glyph-name="grave" unicode="`" d="M185 588 l-89 136 l153 0 l42 -136 l-106 0 Z" /><glyph glyph-name="a" unicode="a" d="M358 52 l-8 0 q-23 -28 -55.5 -48 q-32.5 -20 -83.5 -20 q-38 0 -71.5 12.5 q-33.5 12.5 -58.5 34.5 q-25 22 -39 53 q-14 31 -14 68 q0 38 15 68.5 q15 30.5 42 52.5 q27 22 63.5 33.5 q36.5 11.5 79.5 11.5 q48 0 79 -7.5 q31 -7.5 51 -15.5 l0 15 q0 39 -31 64.5 q-31 25.5 -77 25.5 q-68 0 -115 -57 l-95 65 q78 98 213 98 q114 0 174 -53.5 q60 -53.5 60 -158.5 l0 -294 l-129 0 l0 52 ZM358 199 q-23 11 -47.5 17.5 q-24.5 6.5 -53.5 6.5 q-47 0 -72.5 -20.5 q-25.5 -20.5 -25.5 -50.5 q0 -30 24.5 -48 q24.5 -18 56.5 -18 q26 0 48 9.5 q22 9.5 37.5 25 q15.5 15.5 24 36 q8.5 20.5 8.5 42.5 Z" /><glyph glyph-name="b" unicode="b" d="M56 716 l131 0 l0 -215 l-8 -70 l8 0 q18 31 56 53 q38 22 94 22 q47 0 89.5 -19.5 q42.5 -19.5 75 -54 q32.5 -34.5 51.5 -82.5 q19 -48 19 -105 q0 -57 -19 -105 q-19 -48 -51.5 -82.5 q-32.5 -34.5 -75 -54 q-42.5 -19.5 -89.5 -19.5 q-56 0 -94 22 q-38 22 -56 53 l-8 0 l0 -59 l-123 0 l0 716 ZM310 105 q26 0 49.5 10 q23.5 10 41.5 28 q18 18 29 44 q11 26 11 58 q0 32 -11 58 q-11 26 -29 44 q-18 18 -41.5 28 q-23.5 10 -49.5 10 q-26 0 -49.5 -9.5 q-23.5 -9.5 -41.5 -27.5 q-18 -18 -29 -44 q-11 -26 -11 -59 q0 -33 11 -59 q11 -26 29 -44 q18 -18 41.5 -27.5 q23.5 -9.5 49.5 -9.5 Z" /><glyph glyph-name="c" unicode="c" d="M521 125 q-32 -62 -89.5 -101.5 q-57.5 -39.5 -143.5 -39.5 q-57 0 -104.5 19.5 q-47.5 19.5 -82 54.5 q-34.5 35 -54 82.5 q-19.5 47.5 -19.5 104.5 q0 57 19.5 105 q19.5 48 54 82.5 q34.5 34.5 82 54 q47.5 19.5 104.5 19.5 q85 0 143 -39 q58 -39 85 -101 l-120 -50 q-17 34 -43.5 51.5 q-26.5 17.5 -66.5 17.5 q-26 0 -49 -10 q-23 -10 -40.5 -28 q-17.5 -18 -27.5 -44 q-10 -26 -10 -58 q0 -32 10 -58 q10 -26 27.5 -44 q17.5 -18 40.5 -28 q23 -10 49 -10 q41 0 69.5 18.5 q28.5 18.5 45.5 53.5 l120 -52 Z" /><glyph glyph-name="d" unicode="d" d="M421 59 l-8 0 q-18 -31 -56 -53 q-38 -22 -94 -22 q-47 0 -89.5 19.5 q-42.5 19.5 -75 54 q-32.5 34.5 -51.5 82.5 q-19 48 -19 105 q0 57 19 105 q19 48 51.5 82.5 q32.5 34.5 75 54 q42.5 19.5 89.5 19.5 q56 0 94 -22 q38 -22 56 -53 l8 0 l-8 70 l0 215 l131 0 l0 -716 l-123 0 l0 59 ZM290 105 q26 0 49.5 9.5 q23.5 9.5 41.5 27.5 q18 18 29 44 q11 26 11 59 q0 33 -11 59 q-11 26 -29 44 q-18 18 -41.5 27.5 q-23.5 9.5 -49.5 9.5 q-26 0 -49.5 -10 q-23.5 -10 -41.5 -28 q-18 -18 -29 -44 q-11 -26 -11 -58 q0 -32 11 -58 q11 -26 29 -44 q18 -18 41.5 -28 q23.5 -10 49.5 -10 Z" /><glyph glyph-name="e" unicode="e" d="M520 118 q-34 -60 -91.5 -97 q-57.5 -37 -140.5 -37 q-56 0 -103.5 19.5 q-47.5 19.5 -82.5 54.5 q-35 35 -54.5 82.5 q-19.5 47.5 -19.5 104.5 q0 53 19 100.5 q19 47.5 53 83 q34 35.5 80.5 56.5 q46.5 21 102.5 21 q59 0 105 -19.5 q46 -19.5 77 -54 q31 -34.5 47 -81.5 q16 -47 16 -102 q0 -7 0 -12 q-1 -6 -1 -11 q-1 -5 -1 -11 l-369 0 q4 -30 16.5 -51.5 q12.5 -21.5 31 -36 q18.5 -14.5 40.5 -21 q22 -6.5 45 -6.5 q45 0 74.5 20.5 q29.5 20.5 46.5 51.5 l109 -54 ZM401 308 q-1 13 -8.5 29 q-7.5 16 -22 30 q-14.5 14 -36 23 q-21.5 9 -51.5 9 q-42 0 -74 -24 q-32 -24 -45 -67 l237 0 Z" /><glyph glyph-name="f" unicode="f" d="M298 724 q28 0 52 -5 q24 -5 43 -13 l-37 -117 q-10 5 -21.5 8 q-11.5 3 -28.5 3 q-29 0 -46 -18.5 q-17 -18.5 -17 -51.5 l0 -40 l122 0 l0 -112 l-122 0 l0 -378 l-131 0 l0 378 l-88 0 l0 112 l88 0 l0 48 q0 45 13.5 79.5 q13.5 34.5 38.5 58 q25 23.5 59 36 q34 12.5 75 12.5 Z" /><glyph glyph-name="g" unicode="g" d="M282 -232 q-52 0 -92.5 13.5 q-40.5 13.5 -70.5 35 q-30 21.5 -50 47.5 q-20 26 -29 52 l125 50 q14 -39 46 -60.5 q32 -21.5 71 -21.5 q62 0 98 38.5 q36 38.5 36 107.5 l0 34 l-8 0 q-23 -32 -60.5 -50.5 q-37.5 -18.5 -88.5 -18.5 q-44 0 -85.5 18 q-41.5 18 -73.5 51.5 q-32 33.5 -52 80.5 q-20 47 -20 105 q0 58 20 105.5 q20 47.5 52 81 q32 33.5 73.5 51.5 q41.5 18 85.5 18 q51 0 88.5 -18.5 q37.5 -18.5 60.5 -50.5 l8 0 l0 53 l125 0 l0 -455 q0 -62 -19 -111.5 q-19 -49.5 -53 -84 q-34 -34.5 -81.5 -53 q-47.5 -18.5 -105.5 -18.5 ZM287 113 q24 0 47.5 9 q23.5 9 41.5 26.5 q18 17.5 29 43 q11 25.5 11 58.5 q0 33 -11 59 q-11 26 -29 43.5 q-18 17.5 -41.5 26.5 q-23.5 9 -47.5 9 q-24 0 -47 -9 q-23 -9 -41 -27 q-18 -18 -29 -43.5 q-11 -25.5 -11 -58.5 q0 -33 11 -58.5 q11 -25.5 29 -43 q18 -17.5 41 -26.5 q23 -9 47 -9 Z" /><glyph glyph-name="h" unicode="h" d="M56 716 l131 0 l0 -201 l-8 -89 l8 0 q21 35 60.5 57.5 q39.5 22.5 88.5 22.5 q95 0 140.5 -56 q45.5 -56 45.5 -153 l0 -297 l-131 0 l0 281 q0 51 -24 77.5 q-24 26.5 -67 26.5 q-27 0 -48 -11.5 q-21 -11.5 -35.5 -31.5 q-14.5 -20 -22 -46.5 q-7.5 -26.5 -7.5 -56.5 l0 -239 l-131 0 l0 716 Z" /><glyph glyph-name="i" unicode="i" d="M129 561 q-17 0 -32.5 6.5 q-15.5 6.5 -27 18 q-11.5 11.5 -18 26.5 q-6.5 15 -6.5 33 q0 18 6.5 33 q6.5 15 18 26.5 q11.5 11.5 27 18 q15.5 6.5 32.5 6.5 q35 0 60 -24.5 q25 -24.5 25 -59.5 q0 -35 -25 -59.5 q-25 -24.5 -60 -24.5 ZM64 0 l0 490 l131 0 l0 -490 l-131 0 Z" /><glyph glyph-name="j" unicode="j" d="M-15 -96 q8 -5 15.5 -7 q7.5 -2 18.5 -2 q45 0 45 59 l0 536 l131 0 l0 -540 q0 -48 -13 -81.5 q-13 -33.5 -35 -54.5 q-22 -21 -51 -30.5 q-29 -9.5 -62 -9.5 q-25 0 -45 3.5 q-20 3.5 -37 10.5 l33 116 ZM129 561 q-17 0 -32.5 6.5 q-15.5 6.5 -27 18 q-11.5 11.5 -18 26.5 q-6.5 15 -6.5 33 q0 18 6.5 33 q6.5 15 18 26.5 q11.5 11.5 27 18 q15.5 6.5 32.5 6.5 q35 0 60 -24.5 q25 -24.5 25 -59.5 q0 -35 -25 -59.5 q-25 -24.5 -60 -24.5 Z" /><glyph glyph-name="k" unicode="k" d="M56 716 l131 0 l0 -390 l6 0 l164 164 l162 0 l0 -8 l-182 -177 l197 -297 l0 -8 l-155 0 l-134 215 l-58 -57 l0 -158 l-131 0 l0 716 Z" /><glyph glyph-name="l" unicode="l" d="M56 0 l0 716 l131 0 l0 -716 l-131 0 Z" /><glyph glyph-name="m" unicode="m" d="M56 490 l123 0 l0 -64 l8 0 q23 36 62.5 58 q39.5 22 87.5 22 q56 0 94 -26 q38 -26 54 -64 q23 37 65 63.5 q42 26.5 102 26.5 q45 0 78 -14.5 q33 -14.5 54.5 -40.5 q21.5 -26 32.5 -62.5 q11 -36.5 11 -79.5 l0 -309 l-131 0 l0 285 q0 100 -82 100 q-26 0 -46 -11.5 q-20 -11.5 -33.5 -31 q-13.5 -19.5 -21 -46.5 q-7.5 -27 -7.5 -58 l0 -238 l-131 0 l0 285 q0 100 -86 100 q-25 0 -44 -11.5 q-19 -11.5 -32 -31 q-13 -19.5 -20 -46.5 q-7 -27 -7 -58 l0 -238 l-131 0 l0 490 Z" /><glyph glyph-name="n" unicode="n" d="M179 426 l8 0 q23 37 62 58.5 q39 21.5 89 21.5 q46 0 81 -15 q35 -15 57.5 -42.5 q22.5 -27.5 34 -66 q11.5 -38.5 11.5 -85.5 l0 -297 l-131 0 l0 281 q0 53 -23.5 78.5 q-23.5 25.5 -68.5 25.5 q-27 0 -47.5 -11.5 q-20.5 -11.5 -35 -31 q-14.5 -19.5 -22 -46 q-7.5 -26.5 -7.5 -56.5 l0 -240 l-131 0 l0 490 l123 0 l0 -64 Z" /><glyph glyph-name="o" unicode="o" d="M288 506 q57 0 104.5 -19.5 q47.5 -19.5 82 -54 q34.5 -34.5 54 -82.5 q19.5 -48 19.5 -105 q0 -57 -19.5 -105 q-19.5 -48 -54 -82.5 q-34.5 -34.5 -82 -54 q-47.5 -19.5 -104.5 -19.5 q-57 0 -104.5 19.5 q-47.5 19.5 -82 54 q-34.5 34.5 -54 82.5 q-19.5 48 -19.5 105 q0 57 19.5 105 q19.5 48 54 82.5 q34.5 34.5 82 54 q47.5 19.5 104.5 19.5 ZM288 105 q25 0 48.5 9.5 q23.5 9.5 41.5 27.5 q18 18 28.5 44 q10.5 26 10.5 59 q0 33 -10.5 59 q-10.5 26 -28.5 44 q-18 18 -41.5 27.5 q-23.5 9.5 -48.5 9.5 q-26 0 -49 -9.5 q-23 -9.5 -41 -27.5 q-18 -18 -28.5 -44 q-10.5 -26 -10.5 -59 q0 -33 10.5 -59 q10.5 -26 28.5 -44 q18 -18 41 -27.5 q23 -9.5 49 -9.5 Z" /><glyph glyph-name="p" unicode="p" d="M52 490 l123 0 l0 -59 l8 0 q18 31 56 53 q38 22 94 22 q47 0 89.5 -19.5 q42.5 -19.5 75 -54 q32.5 -34.5 51.5 -82.5 q19 -48 19 -105 q0 -57 -19 -105 q-19 -48 -51.5 -82.5 q-32.5 -34.5 -75 -54 q-42.5 -19.5 -89.5 -19.5 q-56 0 -94 22 q-38 22 -56 53 l-8 0 l8 -70 l0 -205 l-131 0 l0 706 ZM306 105 q26 0 49.5 10 q23.5 10 41.5 28 q18 18 29 44 q11 26 11 58 q0 32 -11 58 q-11 26 -29 44 q-18 18 -41.5 28 q-23.5 10 -49.5 10 q-26 0 -49.5 -9.5 q-23.5 -9.5 -41.5 -27.5 q-18 -18 -29 -44 q-11 -26 -11 -59 q0 -33 11 -59 q11 -26 29 -44 q18 -18 41.5 -27.5 q23.5 -9.5 49.5 -9.5 Z" /><glyph glyph-name="q" unicode="q" d="M413 -11 l8 70 l-8 0 q-18 -31 -56 -53 q-38 -22 -94 -22 q-47 0 -89.5 19.5 q-42.5 19.5 -75 54 q-32.5 34.5 -51.5 82.5 q-19 48 -19 105 q0 57 19 105 q19 48 51.5 82.5 q32.5 34.5 75 54 q42.5 19.5 89.5 19.5 q56 0 94 -22 q38 -22 56 -53 l8 0 l0 59 l123 0 l0 -706 l-131 0 l0 205 ZM290 105 q26 0 49.5 9.5 q23.5 9.5 41.5 27.5 q18 18 29 44 q11 26 11 59 q0 33 -11 59 q-11 26 -29 44 q-18 18 -41.5 27.5 q-23.5 9.5 -49.5 9.5 q-26 0 -49.5 -10 q-23.5 -10 -41.5 -28 q-18 -18 -29 -44 q-11 -26 -11 -58 q0 -32 11 -58 q11 -26 29 -44 q18 -18 41.5 -28 q23.5 -10 49.5 -10 Z" /><glyph glyph-name="r" unicode="r" d="M56 490 l123 0 l0 -68 l8 0 q9 18 24 33 q15 15 33.5 26 q18.5 11 40 17 q21.5 6 42.5 6 q26 0 44.5 -5 q18.5 -5 31.5 -13 l-35 -119 q-12 6 -26.5 9.5 q-14.5 3.5 -35.5 3.5 q-27 0 -49 -10.5 q-22 -10.5 -37.5 -29.5 q-15.5 -19 -24 -44.5 q-8.5 -25.5 -8.5 -55.5 l0 -240 l-131 0 l0 490 Z" /><glyph glyph-name="s" unicode="s" d="M250 -16 q-48 0 -85.5 12 q-37.5 12 -65 31.5 q-27.5 19.5 -46.5 45 q-19 25.5 -29 51.5 l117 50 q17 -38 45.5 -56.5 q28.5 -18.5 63.5 -18.5 q36 0 57 13 q21 13 21 31 q0 20 -17.5 32.5 q-17.5 12.5 -60.5 22.5 l-69 15 q-23 5 -47.5 16 q-24.5 11 -44.5 28 q-20 17 -33 41 q-13 24 -13 56 q0 36 15.5 64 q15.5 28 42.5 47.5 q27 19.5 63.5 30 q36.5 10.5 78.5 10.5 q70 0 125 -27.5 q55 -27.5 81 -87.5 l-113 -46 q-14 29 -41 42 q-27 13 -54 13 q-28 0 -49 -11.5 q-21 -11.5 -21 -29.5 q0 -17 17.5 -27 q17.5 -10 47.5 -18 l75 -18 q75 -18 111.5 -57.5 q36.5 -39.5 36.5 -93.5 q0 -32 -15 -61 q-15 -29 -42.5 -51.5 q-27.5 -22.5 -66 -35.5 q-38.5 -13 -85.5 -13 Z" /><glyph glyph-name="t" unicode="t" d="M110 378 l-86 0 l0 112 l86 0 l0 150 l131 0 l0 -150 l120 0 l0 -112 l-120 0 l0 -190 q0 -17 3.5 -31.5 q3.5 -14.5 13.5 -24.5 q14 -16 40 -16 q17 0 27 3.5 q10 3.5 19 9.5 l37 -115 q-23 -11 -49.5 -16.5 q-26.5 -5.5 -58.5 -5.5 q-37 0 -66.5 11.5 q-29.5 11.5 -49.5 31.5 q-47 45 -47 128 l0 215 Z" /><glyph glyph-name="u" unicode="u" d="M395 64 l-8 0 q-23 -37 -62 -58.5 q-39 -21.5 -89 -21.5 q-93 0 -138.5 57 q-45.5 57 -45.5 152 l0 297 l131 0 l0 -281 q0 -53 23.5 -78.5 q23.5 -25.5 68.5 -25.5 q27 0 47.5 11.5 q20.5 11.5 35 31 q14.5 19.5 22 46 q7.5 26.5 7.5 56.5 l0 240 l131 0 l0 -490 l-123 0 l0 64 Z" /><glyph glyph-name="v" unicode="v" d="M4 490 l149 0 l122 -312 l7 0 l123 312 l148 0 l-211 -490 l-129 0 l-209 490 Z" /><glyph glyph-name="w" unicode="w" d="M4 490 l147 0 l81 -307 l7 0 l97 307 l135 0 l98 -307 l7 0 l80 307 l145 0 l-157 -490 l-141 0 l-98 309 l-7 0 l-98 -309 l-139 0 l-157 490 Z" /><glyph glyph-name="x" unicode="x" d="M178 249 l-168 241 l155 0 l89 -136 l7 0 l84 136 l160 0 l-172 -241 l172 -249 l-154 0 l-92 140 l-7 0 l-89 -140 l-155 0 l170 249 Z" /><glyph glyph-name="y" unicode="y" d="M210 24 l-206 466 l149 0 l124 -297 l7 0 l119 297 l146 0 l-307 -706 l-141 0 l109 240 Z" /><glyph glyph-name="z" unicode="z" d="M32 108 l250 270 l-242 0 l0 112 l403 0 l0 -108 l-250 -270 l254 0 l0 -112 l-415 0 l0 108 Z" /><glyph glyph-name="braceleft" unicode="{" d="M271 -124 q-87 0 -135 49 q-48 49 -48 134 l0 154 q0 34 -19.5 50 q-19.5 16 -44.5 16 l0 110 q25 0 44.5 16 q19.5 16 19.5 50 l0 154 q0 85 48 134 q48 49 135 49 l34 0 l0 -108 l-16 0 q-30 0 -51.5 -21.5 q-21.5 -21.5 -21.5 -58.5 l0 -146 q0 -51 -15.5 -80 q-15.5 -29 -54.5 -40 l0 -8 q39 -11 54.5 -40 q15.5 -29 15.5 -80 l0 -146 q0 -37 21.5 -58.5 q21.5 -21.5 51.5 -21.5 l16 0 l0 -108 l-34 0 Z" /><glyph glyph-name="bar" unicode="|" d="M72 792 l120 0 l0 -912 l-120 0 l0 912 Z" /><glyph glyph-name="braceright" unicode="}" d="M32 -124 l0 108 l17 0 q30 0 51 21.5 q21 21.5 21 58.5 l0 146 q0 51 16 80 q16 29 55 40 l0 8 q-39 11 -55 40 q-16 29 -16 80 l0 146 q0 37 -21 58.5 q-21 21.5 -51 21.5 l-17 0 l0 108 l35 0 q87 0 134.5 -49 q47.5 -49 47.5 -134 l0 -154 q0 -34 19.5 -50 q19.5 -16 44.5 -16 l0 -110 q-25 0 -44.5 -16 q-19.5 -16 -19.5 -50 l0 -154 q0 -85 -47.5 -134 q-47.5 -49 -134.5 -49 l-35 0 Z" /><glyph glyph-name="asciitilde" unicode="~" d="M388 223 q-30 0 -58.5 9 q-28.5 9 -54.5 20 q-27 11 -50 20 q-23 9 -42 9 q-23 0 -34 -12 q-11 -12 -13 -30 l-104 0 q0 70 35.5 112 q35.5 42 98.5 42 q31 0 60 -9 q29 -9 55 -20 q26 -11 48.5 -20 q22.5 -9 41.5 -9 q23 0 34 12 q11 12 13 30 l104 0 q0 -70 -35.5 -112 q-35.5 -42 -98.5 -42 Z" /><glyph glyph-name="Aring" unicode="å" d="M263 668 q-16 17 -25.5 39.5 q-9.5 22.5 -9.5 48.5 q0 27 10 50.5 q10 23.5 27.5 41.5 q17.5 18 41.5 28 q24 10 51 10 q27 0 50.5 -10 q23.5 -10 41 -28 q17.5 -18 28 -41.5 q10.5 -23.5 10.5 -50.5 q0 -26 -9.5 -48.5 q-9.5 -22.5 -25.5 -39.5 l251 -668 l-149 0 l-59 171 l-275 0 l-60 -171 l-149 0 l251 668 ZM452 295 l-64 179 l-26 87 l-8 0 l-26 -87 l-64 -179 l188 0 ZM358 716 q17 0 28.5 11.5 q11.5 11.5 11.5 28.5 q0 17 -11.5 28.5 q-11.5 11.5 -28.5 11.5 q-17 0 -28.5 -11.5 q-11.5 -11.5 -11.5 -28.5 q0 -17 11.5 -28.5 q11.5 -11.5 28.5 -11.5 Z" /><glyph glyph-name="Ccedilla" unicode="ç" d="M414 -237 q-37 0 -62.5 19 q-25.5 19 -36.5 47 l64 27 q4 -12 12.5 -20 q8.5 -8 22.5 -8 q15 0 24 9.5 q9 9.5 9 22.5 q0 13 -9 23.5 q-9 10.5 -24 10.5 q-9 0 -16 -4.5 q-7 -4.5 -12 -9.5 l-60 28 l31 80 q-69 9 -128 41 q-59 32 -101.5 81 q-42.5 49 -66.5 112.5 q-24 63.5 -24 135.5 q0 79 29 147.5 q29 68.5 79 118.5 q50 50 118.5 79 q68.5 29 148.5 29 q86 0 151.5 -30 q65.5 -30 116.5 -87 l-95 -92 q-32 37 -73.5 59 q-41.5 22 -98.5 22 q-50 0 -94 -17.5 q-44 -17.5 -76.5 -49.5 q-32.5 -32 -51.5 -77.5 q-19 -45.5 -19 -101.5 q0 -56 19 -101.5 q19 -45.5 51.5 -77.5 q32.5 -32 76.5 -49.5 q44 -17.5 94 -17.5 q60 0 106.5 24.5 q46.5 24.5 82.5 69.5 l96 -91 q-104 -126 -275 -131 l-14 -31 q5 1 9 1 q4 0 9 0 q38 0 65.5 -25 q27.5 -25 27.5 -70 q0 -42 -29 -69 q-29 -27 -77 -27 Z" /><glyph glyph-name="ccedilla" unicode="ç" d="M294 -237 q-36 0 -62 19 q-26 19 -37 47 l64 27 q4 -12 13 -20 q9 -8 22 -8 q16 0 24.5 9.5 q8.5 9.5 8.5 22.5 q0 13 -8.5 23.5 q-8.5 10.5 -24.5 10.5 q-9 0 -15.5 -4.5 q-6.5 -4.5 -11.5 -9.5 l-61 28 l31 81 q-47 8 -85 30 q-38 22 -66 55.5 q-28 33.5 -43 77 q-15 43.5 -15 93.5 q0 57 19.5 105 q19.5 48 54 82.5 q34.5 34.5 82 54 q47.5 19.5 104.5 19.5 q85 0 143 -39 q58 -39 85 -101 l-120 -50 q-17 34 -43.5 51.5 q-26.5 17.5 -66.5 17.5 q-26 0 -49 -10 q-23 -10 -40.5 -28 q-17.5 -18 -27.5 -44 q-10 -26 -10 -58 q0 -32 10 -58 q10 -26 27.5 -44 q17.5 -18 40.5 -28 q23 -10 49 -10 q41 0 69.5 18.5 q28.5 18.5 45.5 53.5 l120 -52 q-30 -60 -84 -98 q-54 -38 -134 -43 l-14 -31 q5 1 9 1 q4 0 9 0 q39 0 66.5 -25 q27.5 -25 27.5 -70 q0 -42 -29.5 -69 q-29.5 -27 -77.5 -27 Z" /><glyph glyph-name="idieresis" unicode="ï" d="M45 590 q-28 0 -48.5 20.5 q-20.5 20.5 -20.5 48.5 q0 29 20.5 49 q20.5 20 48.5 20 q29 0 49 -20 q20 -20 20 -49 q0 -28 -20 -48.5 q-20 -20.5 -49 -20.5 ZM213 590 q-28 0 -48.5 20.5 q-20.5 20.5 -20.5 48.5 q0 29 20.5 49 q20.5 20 48.5 20 q29 0 49 -20 q20 -20 20 -49 q0 -28 -20 -48.5 q-20 -20.5 -49 -20.5 ZM64 0 l0 490 l131 0 l0 -490 l-131 0 Z" /><glyph glyph-name="degree" unicode="°" d="M163 442 q-27 0 -51 10 q-24 10 -41.5 27.5 q-17.5 17.5 -28 41 q-10.5 23.5 -10.5 50.5 q0 27 10.5 50.5 q10.5 23.5 28 41 q17.5 17.5 41.5 27.5 q24 10 51 10 q27 0 50.5 -10 q23.5 -10 41 -27.5 q17.5 -17.5 28 -41 q10.5 -23.5 10.5 -50.5 q0 -27 -10.5 -50.5 q-10.5 -23.5 -28 -41 q-17.5 -17.5 -41 -27.5 q-23.5 -10 -50.5 -10 ZM163 519 q22 0 36 15.5 q14 15.5 14 36.5 q0 22 -14 37 q-14 15 -36 15 q-23 0 -37 -15 q-14 -15 -14 -37 q0 -21 14 -36.5 q14 -15.5 37 -15.5 Z" /><glyph glyph-name="cent" unicode="¢" d="M237 87 q-47 8 -85.5 30 q-38.5 22 -66 55 q-27.5 33 -42.5 76.5 q-15 43.5 -15 93.5 q0 50 15 93.5 q15 43.5 42.5 76.5 q27.5 33 66 55 q38.5 22 85.5 30 l0 87 l90 0 l0 -86 q69 -9 113.5 -46 q44.5 -37 69.5 -91 l-108 -43 q-27 55 -75 68 l0 -289 q56 17 84 73 l104 -45 q-28 -54 -73.5 -92 q-45.5 -38 -114.5 -48 l0 -85 l-90 0 l0 87 ZM148 342 q0 -54 25 -90.5 q25 -36.5 64 -51.5 l0 283 q-39 -14 -64 -50.5 q-25 -36.5 -25 -90.5 Z" /><glyph glyph-name="sterling" unicode="£" d="M341 505 q-4 15 -11 29 q-7 14 -18.5 25 q-11.5 11 -27.5 18 q-16 7 -37 7 q-43 0 -66.5 -26.5 q-23.5 -26.5 -23.5 -63.5 q0 -23 6 -43 q6 -20 15.5 -38 q9.5 -18 20.5 -35 q11 -18 21 -36 l132 0 l0 -100 l-107 0 q-2 -40 -15.5 -69 q-13.5 -29 -35.5 -49 l5 -8 l149 0 q56 0 72 59 l102 -44 q-18 -60 -59 -95.5 q-41 -35.5 -113 -35.5 l-318 0 l0 106 q48 19 71.5 55 q23.5 36 23.5 72 l0 9 l-92 0 l0 100 l54 0 q-20 32 -38 69 q-18 37 -18 89 q0 40 15.5 76 q15.5 36 43.5 63.5 q28 27.5 67.5 44 q39.5 16.5 87.5 16.5 q46 0 81.5 -12.5 q35.5 -12.5 61 -33.5 q25.5 -21 42 -47.5 q16.5 -26.5 24.5 -54.5 l-115 -47 Z" /><glyph glyph-name="section" unicode="§" d="M286 -232 q-49 0 -90 15.5 q-41 15.5 -72.5 42 q-31.5 26.5 -53 62 q-21.5 35.5 -30.5 76.5 l120 46 q13 -53 46 -87 q33 -34 83 -34 q42 0 69.5 21 q27.5 21 27.5 58 q0 37 -32.5 60 q-32.5 23 -104.5 47 l-25 8 q-80 26 -122 73.5 q-42 47.5 -42 110.5 q0 45 20 79 q20 34 54 59 q-34 26 -53.5 60.5 q-19.5 34.5 -19.5 79.5 q0 40 16.5 74 q16.5 34 46 59 q29.5 25 69.5 39.5 q40 14.5 87 14.5 q48 0 85.5 -14.5 q37.5 -14.5 65 -36.5 q27.5 -22 44.5 -49 q17 -27 23 -52 l-119 -47 q-8 31 -31.5 54.5 q-23.5 23.5 -68.5 23.5 q-38 0 -62.5 -19.5 q-24.5 -19.5 -24.5 -45.5 q0 -28 24.5 -46.5 q24.5 -18.5 85.5 -38.5 l30 -10 q89 -30 138.5 -78 q49.5 -48 49.5 -130 q0 -48 -17.5 -83 q-17.5 -35 -44.5 -58 q27 -26 43 -59.5 q16 -33.5 16 -75.5 q0 -45 -18.5 -82 q-18.5 -37 -50 -63 q-31.5 -26 -73.5 -40 q-42 -14 -89 -14 ZM360 162 q13 14 21 31 q8 17 8 35 q0 43 -30 71 q-30 28 -104 52 l-21 6 q-23 -12 -36.5 -32 q-13.5 -20 -13.5 -45 q0 -32 27 -54.5 q27 -22.5 81 -40.5 l68 -23 Z" /><glyph glyph-name="bullet" unicode="&#x2022;" d="M211 193 q-27 0 -51 10.5 q-24 10.5 -41.5 28 q-17.5 17.5 -28 41.5 q-10.5 24 -10.5 51 q0 27 10.5 51 q10.5 24 28 41.5 q17.5 17.5 41.5 28 q24 10.5 51 10.5 q27 0 50.5 -10.5 q23.5 -10.5 41.5 -28 q18 -17.5 28 -41.5 q10 -24 10 -51 q0 -27 -10 -51 q-10 -24 -28 -41.5 q-18 -17.5 -41.5 -28 q-23.5 -10.5 -50.5 -10.5 Z" /><glyph glyph-name="paragraph" unicode="¶" d="M273 -216 l0 512 l-25 0 q-45 0 -85.5 14.5 q-40.5 14.5 -71 41.5 q-30.5 27 -49 66 q-18.5 39 -18.5 88 q0 49 18.5 88 q18.5 39 49 66 q30.5 27 71 41.5 q40.5 14.5 85.5 14.5 l315 0 l0 -932 l-110 0 l0 825 l-70 0 l0 -825 l-110 0 Z" /><glyph glyph-name="germandbls" unicode="ß" d="M439 383 q54 -23 84 -66.5 q30 -43.5 30 -109.5 q0 -48 -17 -87.5 q-17 -39.5 -47.5 -68 q-30.5 -28.5 -73 -44 q-42.5 -15.5 -93.5 -15.5 q-16 0 -30 1 q-14 1 -29 3 l0 121 q23 -4 51 -4 q46 0 77 28 q31 28 31 76 q0 24 -9.5 43.5 q-9.5 19.5 -26 33.5 q-16.5 14 -38.5 22 q-22 8 -46 8 l-28 0 l0 115 l20 0 q46 0 72.5 25 q26.5 25 26.5 65 q0 35 -26.5 58.5 q-26.5 23.5 -66.5 23.5 q-46 0 -71.5 -30 q-25.5 -30 -25.5 -76 l0 -505 l-131 0 l0 507 q0 48 16 89.5 q16 41.5 45.5 71.5 q29.5 30 71.5 47 q42 17 95 17 q48 0 88 -14 q40 -14 69 -39 q29 -25 45.5 -60.5 q16.5 -35.5 16.5 -77.5 q0 -52 -23.5 -90.5 q-23.5 -38.5 -56.5 -59.5 l0 -8 Z" /><glyph glyph-name="registered" unicode="®" d="M266 272 q-48 0 -89.5 18 q-41.5 18 -73 49.5 q-31.5 31.5 -49.5 73 q-18 41.5 -18 89.5 q0 47 18 89 q18 42 49.5 73.5 q31.5 31.5 73 49.5 q41.5 18 89.5 18 q47 0 89 -18 q42 -18 73.5 -49.5 q31.5 -31.5 49.5 -73.5 q18 -42 18 -89 q0 -48 -18 -89.5 q-18 -41.5 -49.5 -73 q-31.5 -31.5 -73.5 -49.5 q-42 -18 -89 -18 ZM266 320 q38 0 71 14.5 q33 14.5 58 39.5 q25 25 39 58 q14 33 14 70 q0 38 -14 71 q-14 33 -39 58 q-25 25 -58 39 q-33 14 -71 14 q-37 0 -70 -14 q-33 -14 -58 -39 q-25 -25 -39.5 -58 q-14.5 -33 -14.5 -71 q0 -37 14.5 -70 q14.5 -33 39.5 -58 q25 -25 58 -39.5 q33 -14.5 70 -14.5 ZM189 389 l0 226 l96 0 q29 0 51 -20.5 q22 -20.5 22 -51.5 q0 -23 -14.5 -41.5 q-14.5 -18.5 -35.5 -24.5 l-2 -2 l60 -84 l0 -2 l-52 0 l-55 84 l-24 0 l0 -84 l-46 0 ZM281 515 q12 0 21.5 7.5 q9.5 7.5 9.5 20.5 q0 10 -8 19 q-8 9 -22 9 l-47 0 l0 -56 l46 0 Z" /><glyph glyph-name="copyright" unicode="©" d="M266 272 q-48 0 -89.5 18 q-41.5 18 -73 49.5 q-31.5 31.5 -49.5 73 q-18 41.5 -18 89.5 q0 47 18 89 q18 42 49.5 73.5 q31.5 31.5 73 49.5 q41.5 18 89.5 18 q47 0 89 -18 q42 -18 73.5 -49.5 q31.5 -31.5 49.5 -73.5 q18 -42 18 -89 q0 -48 -18 -89.5 q-18 -41.5 -49.5 -73 q-31.5 -31.5 -73.5 -49.5 q-42 -18 -89 -18 ZM266 320 q38 0 71 14.5 q33 14.5 58 39.5 q25 25 39 58 q14 33 14 70 q0 38 -14 71 q-14 33 -39 58 q-25 25 -58 39 q-33 14 -71 14 q-37 0 -70 -14 q-33 -14 -58 -39 q-25 -25 -39.5 -58 q-14.5 -33 -14.5 -71 q0 -37 14.5 -70 q14.5 -33 39.5 -58 q25 -25 58 -39.5 q33 -14.5 70 -14.5 ZM270 383 q-26 0 -47.5 9.5 q-21.5 9.5 -37.5 25.5 q-16 16 -25 38 q-9 22 -9 46 q0 25 9 46.5 q9 21.5 25 37.5 q16 16 37.5 25.5 q21.5 9.5 47.5 9.5 q31 0 50.5 -11 q19.5 -11 36.5 -28 l-32 -29 q-11 11 -22 17.5 q-11 6.5 -33 6.5 q-29 0 -51 -21.5 q-22 -21.5 -22 -53.5 q0 -32 22 -53.5 q22 -21.5 51 -21.5 q21 0 35 8.5 q14 8.5 25 22.5 l34 -27 q-16 -21 -39 -34.5 q-23 -13.5 -55 -13.5 Z" /><glyph glyph-name="acute" unicode="´" d="M152 588 l42 136 l153 0 l-90 -136 l-105 0 Z" /><glyph glyph-name="dieresis" unicode="¨" d="M321 587 q-29 0 -50 21.5 q-21 21.5 -21 50.5 q0 30 21 51 q21 21 50 21 q31 0 51.5 -21 q20.5 -21 20.5 -51 q0 -29 -20.5 -50.5 q-20.5 -21.5 -51.5 -21.5 ZM131 587 q-30 0 -51 21.5 q-21 21.5 -21 50.5 q0 30 21 51 q21 21 51 21 q30 0 50.5 -21 q20.5 -21 20.5 -51 q0 -29 -20.5 -50.5 q-20.5 -21.5 -50.5 -21.5 Z" /><glyph glyph-name="AE" unicode="æ" d="M4 0 l418 716 l531 0 l0 -128 l-319 0 l0 -166 l287 0 l0 -128 l-287 0 l0 -166 l319 0 l0 -128 l-454 0 l0 173 l-239 0 l-98 -173 l-158 0 ZM331 301 l168 0 l0 287 l-10 0 l-34 -70 l-124 -217 Z" /><glyph glyph-name="Oslash" unicode="ø" d="M411 -16 q-42 0 -79.5 8 q-37.5 8 -71.5 22 l-38 -61 l-91 59 l36 58 q-61 51 -95.5 125.5 q-34.5 74.5 -34.5 162.5 q0 78 28.5 146.5 q28.5 68.5 78.5 119 q50 50.5 118.5 79.5 q68.5 29 148.5 29 q41 0 78.5 -8 q37.5 -8 72.5 -22 l38 61 l91 -59 l-37 -59 q61 -51 96 -125 q35 -74 35 -162 q0 -78 -28.5 -146.5 q-28.5 -68.5 -78.5 -119 q-50 -50.5 -118.5 -79.5 q-68.5 -29 -148.5 -29 ZM411 604 q-50 0 -93.5 -18 q-43.5 -18 -76 -50 q-32.5 -32 -51 -77.5 q-18.5 -45.5 -18.5 -100.5 q0 -54 17.5 -98.5 q17.5 -44.5 48.5 -76.5 l254 408 q-19 7 -39.5 10 q-20.5 3 -41.5 3 ZM411 112 q50 0 93.5 18 q43.5 18 76 50 q32.5 32 51 77.5 q18.5 45.5 18.5 100.5 q0 54 -17.5 98 q-17.5 44 -48.5 76 l-255 -407 q20 -6 40 -9.5 q20 -3.5 42 -3.5 Z" /><glyph glyph-name="plusminus" unicode="±" d="M342 424 l171 0 l0 -108 l-171 0 l0 -141 l-116 0 l0 141 l-170 0 l0 108 l170 0 l0 141 l116 0 l0 -141 ZM56 0 l0 116 l457 0 l0 -116 l-457 0 Z" /><glyph glyph-name="yen" unicode="¥" d="M385 312 l0 -63 l162 0 l0 -116 l-162 0 l0 -133 l-135 0 l0 133 l-165 0 l0 116 l165 0 l0 63 l-165 0 l0 116 l91 0 l-164 256 l160 0 l113 -189 l29 -67 l8 0 l29 67 l109 189 l160 0 l-162 -256 l89 0 l0 -116 l-162 0 Z" /><glyph glyph-name="ordfeminine" unicode="ª" d="M204 272 q-34 0 -63.5 10.5 q-29.5 10.5 -52 30 q-22.5 19.5 -35.5 46.5 q-13 27 -13 61 q0 34 14.5 61 q14.5 27 39 46 q24.5 19 56.5 29 q32 10 68 10 q39 0 68.5 -7 q29.5 -7 51.5 -18 l0 14 q0 37 -26.5 60 q-26.5 23 -70.5 23 q-30 0 -55 -13 q-25 -13 -39 -38 l-95 48 q26 46 75.5 71.5 q49.5 25.5 113.5 25.5 q97 0 155.5 -47 q58.5 -47 58.5 -141 l0 -258 l-117 0 l0 46 l-8 0 q-21 -27 -52 -43.5 q-31 -16.5 -74 -16.5 ZM229 363 q23 0 43 8 q20 8 34.5 21.5 q14.5 13.5 23 31 q8.5 17.5 8.5 36.5 q-14 6 -38 14 q-24 8 -55 8 q-45 0 -65.5 -18.5 q-20.5 -18.5 -20.5 -44.5 q0 -26 20.5 -41 q20.5 -15 49.5 -15 Z" /><glyph glyph-name="ordmasculine" unicode="º" d="M267 272 q-50 0 -92.5 17 q-42.5 17 -73 47.5 q-30.5 30.5 -48 73 q-17.5 42.5 -17.5 92.5 q0 50 17.5 92.5 q17.5 42.5 48 73 q30.5 30.5 73 47.5 q42.5 17 92.5 17 q50 0 92.5 -17 q42.5 -17 73.5 -47.5 q31 -30.5 48.5 -73 q17.5 -42.5 17.5 -92.5 q0 -50 -17.5 -92.5 q-17.5 -42.5 -48.5 -73 q-31 -30.5 -73.5 -47.5 q-42.5 -17 -92.5 -17 ZM267 381 q22 0 42.5 8.5 q20.5 8.5 36.5 24.5 q16 16 25.5 38.5 q9.5 22.5 9.5 49.5 q0 27 -9.5 49.5 q-9.5 22.5 -25.5 38.5 q-16 16 -36.5 24.5 q-20.5 8.5 -42.5 8.5 q-22 0 -42.5 -8.5 q-20.5 -8.5 -36.5 -24.5 q-16 -16 -25.5 -38.5 q-9.5 -22.5 -9.5 -49.5 q0 -27 9.5 -49.5 q9.5 -22.5 25.5 -38.5 q16 -16 36.5 -24.5 q20.5 -8.5 42.5 -8.5 Z" /><glyph glyph-name="ae" unicode="æ" d="M619 -16 q-62 0 -111.5 26.5 q-49.5 26.5 -85.5 72.5 q-77 -99 -204 -99 q-42 0 -76.5 12.5 q-34.5 12.5 -60 34.5 q-25.5 22 -39.5 53 q-14 31 -14 68 q0 38 15 68.5 q15 30.5 42 52.5 q27 22 63.5 33.5 q36.5 11.5 79.5 11.5 q48 0 79 -7.5 q31 -7.5 51 -15.5 l0 9 q0 44 -30.5 70 q-30.5 26 -75.5 26 q-72 0 -98 -56 l-102 45 q29 57 80 87 q51 30 123 30 q61 0 106.5 -22 q45.5 -22 75.5 -61 q32 40 77.5 61.5 q45.5 21.5 100.5 21.5 q59 0 104.5 -19.5 q45.5 -19.5 76.5 -54 q31 -34.5 47 -81.5 q16 -47 16 -102 q0 -7 0 -12 q-1 -6 -1 -11 q-1 -5 -1 -11 l-370 0 q4 -30 17 -51.5 q13 -21.5 31.5 -36 q18.5 -14.5 40.5 -21 q22 -6.5 45 -6.5 q45 0 74.5 20.5 q29.5 20.5 47.5 51.5 l108 -54 q-33 -60 -91 -97 q-58 -37 -141 -37 ZM240 86 q26 0 48 9.5 q22 9.5 37.5 25 q15.5 15.5 24 36 q8.5 20.5 8.5 42.5 q-23 11 -47.5 17.5 q-24.5 6.5 -53.5 6.5 q-47 0 -72.5 -20.5 q-25.5 -20.5 -25.5 -50.5 q0 -30 24.5 -48 q24.5 -18 56.5 -18 ZM733 308 q-2 13 -9.5 29 q-7.5 16 -22 30 q-14.5 14 -36 23 q-21.5 9 -51.5 9 q-42 0 -75 -24 q-33 -24 -46 -67 l240 0 Z" /><glyph glyph-name="oslash" unicode="ø" d="M288 506 q50 0 94 -15 l26 42 l90 -51 l-28 -45 q37 -35 57.5 -84 q20.5 -49 20.5 -108 q0 -57 -19.5 -105 q-19.5 -48 -54 -82.5 q-34.5 -34.5 -82 -54 q-47.5 -19.5 -104.5 -19.5 q-25 0 -48 4 q-23 4 -44 11 l-25 -41 l-90 51 l26 42 q-38 35 -58.5 84.5 q-20.5 49.5 -20.5 109.5 q0 57 19.5 105 q19.5 48 54 82.5 q34.5 34.5 82 54 q47.5 19.5 104.5 19.5 ZM149 245 q0 -26 6.5 -48.5 q6.5 -22.5 17.5 -39.5 l145 233 q-13 4 -30 4 q-27 0 -52.5 -10 q-25.5 -10 -44.5 -29.5 q-19 -19.5 -30.5 -47 q-11.5 -27.5 -11.5 -62.5 ZM288 96 q27 0 52.5 10 q25.5 10 44.5 29.5 q19 19.5 30.5 47 q11.5 27.5 11.5 62.5 q0 49 -23 86 l-145 -232 q15 -3 29 -3 Z" /><glyph glyph-name="questiondown" unicode="¿" d="M315 254 l0 -33 q0 -24 -5 -44.5 q-5 -20.5 -16 -39.5 q-11 -19 -28.5 -38 q-17.5 -19 -42.5 -41 q-27 -24 -42 -44 q-15 -20 -15 -49 q0 -30 22.5 -53 q22.5 -23 61.5 -23 q21 0 38 7 q17 7 30 19 q13 12 21 27 q8 15 13 31 l115 -48 q-8 -28 -25.5 -56 q-17.5 -28 -44 -50.5 q-26.5 -22.5 -62.5 -36.5 q-36 -14 -81 -14 q-48 0 -88 14.5 q-40 14.5 -68.5 40 q-28.5 25.5 -44.5 60.5 q-16 35 -16 75 q0 28 7 51.5 q7 23.5 19 43.5 q12 20 28 37.5 q16 17.5 34 34.5 q34 31 46.5 54.5 q12.5 23.5 12.5 58.5 l0 16 l131 0 ZM250 506 q36 0 61.5 -25.5 q25.5 -25.5 25.5 -61.5 q0 -36 -25.5 -61 q-25.5 -25 -61.5 -25 q-36 0 -61 25 q-25 25 -25 61 q0 36 25 61.5 q25 25.5 61 25.5 Z" /><glyph glyph-name="exclamdown" unicode="¡" d="M135 506 q36 0 61 -25.5 q25 -25.5 25 -61.5 q0 -36 -25 -61 q-25 -25 -61 -25 q-36 0 -61.5 25 q-25.5 25 -25.5 61 q0 36 25.5 61.5 q25.5 25.5 61.5 25.5 ZM81 254 l107 0 l14 -264 l0 -206 l-135 0 l0 206 l14 264 Z" /><glyph glyph-name="logicalnot" unicode="¬" d="M48 404 l466 0 l0 -299 l-115 0 l0 185 l-351 0 l0 114 Z" /><glyph glyph-name="OE" unicode="&#x152;" d="M774 588 l0 -166 l288 0 l0 -128 l-288 0 l0 -166 l320 0 l0 -128 l-454 0 l0 75 l-7 0 q-35 -42 -94 -66.5 q-59 -24.5 -140 -24.5 q-76 0 -142 29 q-66 29 -115 79.5 q-49 50.5 -77 119 q-28 68.5 -28 146.5 q0 78 28 146.5 q28 68.5 77 119 q49 50.5 115 79.5 q66 29 142 29 q81 0 140 -25 q59 -25 94 -67 l7 0 l0 76 l454 0 l0 -128 l-320 0 ZM411 112 q50 0 93.5 18 q43.5 18 76 50 q32.5 32 51 77.5 q18.5 45.5 18.5 100.5 q0 55 -18.5 100.5 q-18.5 45.5 -51 77.5 q-32.5 32 -76 50 q-43.5 18 -93.5 18 q-50 0 -93.5 -18 q-43.5 -18 -76 -50 q-32.5 -32 -51 -77.5 q-18.5 -45.5 -18.5 -100.5 q0 -55 18.5 -100.5 q18.5 -45.5 51 -77.5 q32.5 -32 76 -50 q43.5 -18 93.5 -18 Z" /><glyph glyph-name="oe" unicode="&#x153;" d="M680 -16 q-66 0 -115.5 28 q-49.5 28 -80.5 71 q-35 -47 -84 -73 q-49 -26 -112 -26 q-57 0 -104.5 19.5 q-47.5 19.5 -82 54.5 q-34.5 35 -54 82.5 q-19.5 47.5 -19.5 104.5 q0 57 19.5 105 q19.5 48 54 82.5 q34.5 34.5 82 54 q47.5 19.5 104.5 19.5 q63 0 112 -26 q49 -26 85 -74 q32 45 81 72.5 q49 27.5 109 27.5 q59 0 105 -19.5 q46 -19.5 77 -54 q31 -34.5 47 -81.5 q16 -47 16 -102 q0 -7 0 -12 q-1 -6 -1 -11 q-1 -5 -1 -11 l-370 0 q4 -30 17 -51.5 q13 -21.5 31.5 -36 q18.5 -14.5 40.5 -21 q22 -6.5 45 -6.5 q45 0 74.5 20.5 q29.5 20.5 46.5 51.5 l109 -54 q-34 -60 -91.5 -97 q-57.5 -37 -140.5 -37 ZM288 105 q25 0 48.5 9.5 q23.5 9.5 41.5 27.5 q18 18 28.5 44 q10.5 26 10.5 59 q0 33 -10.5 59 q-10.5 26 -28.5 44 q-18 18 -41.5 27.5 q-23.5 9.5 -48.5 9.5 q-26 0 -49 -9.5 q-23 -9.5 -41 -27.5 q-18 -18 -28.5 -44 q-10.5 -26 -10.5 -59 q0 -33 10.5 -59 q10.5 -26 28.5 -44 q18 -18 41 -27.5 q23 -9.5 49 -9.5 ZM793 308 q-1 13 -8.5 29 q-7.5 16 -22 30 q-14.5 14 -36 23 q-21.5 9 -51.5 9 q-42 0 -74.5 -24 q-32.5 -24 -45.5 -67 l238 0 Z" /><glyph glyph-name="endash" unicode="&#x2013;" d="M56 368 l499 0 l0 -116 l-499 0 l0 116 Z" /><glyph glyph-name="emdash" unicode="&#x2014;" d="M56 368 l805 0 l0 -116 l-805 0 l0 116 Z" /><glyph glyph-name="quoteleft" unicode="&#x2018;" d="M219 693 l-51 -78 q23 -8 38 -28.5 q15 -20.5 15 -49.5 q0 -36 -25 -61.5 q-25 -25.5 -61 -25.5 q-36 0 -61.5 25.5 q-25.5 25.5 -25.5 61.5 q0 19 6.5 34 q6.5 15 18.5 32 l87 129 l59 -39 Z" /><glyph glyph-name="quoteright" unicode="&#x2019;" d="M50 489 l51 78 q-22 8 -37.5 28.5 q-15.5 20.5 -15.5 49.5 q0 36 25.5 61.5 q25.5 25.5 61.5 25.5 q36 0 61 -25.5 q25 -25.5 25 -61.5 q0 -19 -6.5 -34 q-6.5 -15 -18.5 -32 l-87 -129 l-59 39 Z" /><glyph glyph-name="divide" unicode="÷" d="M56 217 l0 108 l457 0 l0 -108 l-457 0 ZM284 -8 q-34 0 -58 24 q-24 24 -24 58 q0 34 24 58 q24 24 58 24 q35 0 58.5 -24 q23.5 -24 23.5 -58 q0 -34 -23.5 -58 q-23.5 -24 -58.5 -24 ZM284 386 q-34 0 -58 24 q-24 24 -24 58 q0 34 24 58 q24 24 58 24 q35 0 58.5 -24 q23.5 -24 23.5 -58 q0 -34 -23.5 -58 q-23.5 -24 -58.5 -24 Z" /><glyph glyph-name="fraction" unicode="&#x2044;" d="M-176 37 l465 694 l79 -53 l-465 -694 l-79 53 Z" /><glyph glyph-name="Euro" unicode="&#x20ac;" d="M24 469 l99 0 q18 52 50 94.5 q32 42.5 74.5 73 q42.5 30.5 95 47 q52.5 16.5 112.5 16.5 q87 0 160 -44 l-62 -107 q-22 14 -45.5 20.5 q-23.5 6.5 -51.5 6.5 q-60 0 -110.5 -28 q-50.5 -28 -79.5 -79 l202 0 l0 -94 l-232 0 q-1 -7 -1.5 -16 q-0.5 -9 -0.5 -17 q0 -9 0.5 -18 q0.5 -9 1.5 -15 l232 0 l0 -94 l-202 0 q29 -51 79.5 -79 q50.5 -28 110.5 -28 q38 0 65.5 9 q27.5 9 52.5 25 l55 -113 q-42 -24 -85 -34.5 q-43 -10.5 -89 -10.5 q-60 0 -112.5 16.5 q-52.5 16.5 -95 47 q-42.5 30.5 -74.5 73 q-32 42.5 -50 94.5 l-99 0 l0 94 l81 0 q-1 7 -1.5 16 q-0.5 9 -0.5 17 q0 8 0.5 17 q0.5 9 1.5 16 l-81 0 l0 94 Z" /><glyph glyph-name="guilsinglleft" unicode="&#x2039;" d="M327 110 l-75 -69 l-212 230 l212 230 l75 -69 l-150 -161 l150 -161 Z" /><glyph glyph-name="guilsinglright" unicode="&#x203a;" d="M210 271 l-150 161 l75 69 l212 -230 l-212 -230 l-75 69 l150 161 Z" /><glyph glyph-name="periodcentered" unicode="·" d="M107 237 q-36 0 -61.5 25.5 q-25.5 25.5 -25.5 61.5 q0 36 25.5 61.5 q25.5 25.5 61.5 25.5 q36 0 61 -25.5 q25 -25.5 25 -61.5 q0 -36 -25 -61.5 q-25 -25.5 -61 -25.5 Z" /><glyph glyph-name="Idieresis" unicode="ï" d="M53 774 q-29 0 -49 20.5 q-20 20.5 -20 48.5 q0 29 20 49 q20 20 49 20 q29 0 49 -20 q20 -20 20 -49 q0 -28 -20 -48.5 q-20 -20.5 -49 -20.5 ZM226 774 q-28 0 -48.5 20.5 q-20.5 20.5 -20.5 48.5 q0 29 20.5 49 q20.5 20 48.5 20 q29 0 49 -20 q20 -20 20 -49 q0 -28 -20 -48.5 q-20 -20.5 -49 -20.5 ZM72 716 l135 0 l0 -716 l-135 0 l0 716 Z" /><glyph glyph-name="dotlessi" unicode="&#x131;" d="M64 0 l0 490 l131 0 l0 -490 l-131 0 Z" /><glyph glyph-name="circumflex" unicode="&#x2c6;" d="M57 590 l114 126 l114 0 l114 -126 l0 -8 l-125 0 l-40 59 l-12 0 l-40 -59 l-125 0 l0 8 Z" /><glyph glyph-name="tilde" unicode="&#x2dc;" d="M270 587 q-21 0 -39 6.5 q-18 6.5 -33 15.5 q-15 8 -27 14.5 q-12 6.5 -21 6.5 q-25 0 -26 -29 l-92 0 q0 33 9.5 57 q9.5 24 26 39.5 q16.5 15.5 37 23.5 q20.5 8 43.5 8 q21 0 39.5 -6.5 q18.5 -6.5 33.5 -14.5 q15 -9 27 -15.5 q12 -6.5 20 -6.5 q24 0 27 29 l92 0 q0 -33 -10 -57 q-10 -24 -26 -39.5 q-16 -15.5 -37.5 -23.5 q-21.5 -8 -43.5 -8 Z" /><glyph glyph-name="macron" unicode="¯" d="M60 609 l0 100 l296 0 l0 -100 l-296 0 Z" /><glyph glyph-name="ring" unicode="&#x2da;" d="M204 564 q-23 0 -42.5 8.5 q-19.5 8.5 -34 23 q-14.5 14.5 -23 34 q-8.5 19.5 -8.5 42.5 q0 22 8.5 42 q8.5 20 23 34.5 q14.5 14.5 34 23 q19.5 8.5 42.5 8.5 q22 0 42 -8.5 q20 -8.5 34.5 -23 q14.5 -14.5 23 -34.5 q8.5 -20 8.5 -42 q0 -23 -8.5 -42.5 q-8.5 -19.5 -23 -34 q-14.5 -14.5 -34.5 -23 q-20 -8.5 -42 -8.5 ZM204 637 q14 0 24.5 10.5 q10.5 10.5 10.5 24.5 q0 14 -10.5 24.5 q-10.5 10.5 -24.5 10.5 q-14 0 -24.5 -10.5 q-10.5 -10.5 -10.5 -24.5 q0 -14 10.5 -24.5 q10.5 -10.5 24.5 -10.5 Z" /><glyph glyph-name="cedilla" unicode="¸" d="M170 -237 q-36 0 -62 19 q-26 19 -37 47 l64 27 q4 -12 13 -20 q9 -8 22 -8 q16 0 24.5 9.5 q8.5 9.5 8.5 22.5 q0 13 -8.5 23.5 q-8.5 10.5 -24.5 10.5 q-9 0 -15.5 -4.5 q-6.5 -4.5 -11.5 -9.5 l-61 28 l36 92 l68 0 l-21 -47 q5 1 9 1 q4 0 9 0 q39 0 66.5 -25 q27.5 -25 27.5 -70 q0 -42 -29.5 -69 q-29.5 -27 -77.5 -27 Z" /><glyph glyph-name="NULL" unicode="" d="M0 0 l0 0 Z" /><glyph glyph-name="uni00A0" unicode=" " d="M0 0 l0 0 Z" /><glyph glyph-name="currency" unicode="¤" d="M304 106 q-34 0 -65 9.5 q-31 9.5 -57 26.5 l-58 -57 l-64 65 l58 57 q-16 26 -25 55.5 q-9 29.5 -9 62.5 q0 33 9 63 q9 30 25 55 l-58 58 l64 64 l58 -57 q26 17 57 26.5 q31 9.5 65 9.5 q35 0 66 -9.5 q31 -9.5 57 -26.5 l58 57 l64 -64 l-58 -58 q16 -25 24.5 -55 q8.5 -30 8.5 -63 q0 -65 -33 -118 l58 -57 l-64 -65 l-58 57 q-26 -17 -57 -26.5 q-31 -9.5 -66 -9.5 ZM304 209 q24 0 44.5 9 q20.5 9 35.5 24.5 q15 15.5 23.5 37 q8.5 21.5 8.5 45.5 q0 24 -8.5 45.5 q-8.5 21.5 -23.5 37 q-15 15.5 -35.5 24.5 q-20.5 9 -44.5 9 q-24 0 -44.5 -9 q-20.5 -9 -35.5 -24.5 q-15 -15.5 -23.5 -37 q-8.5 -21.5 -8.5 -45.5 q0 -24 8.5 -45.5 q8.5 -21.5 23.5 -37 q15 -15.5 35.5 -24.5 q20.5 -9 44.5 -9 Z" /></font>
</defs>
</svg>
