<?xml version="1.0" standalone="no"?>
<!DOCTYPE svg PUBLIC "-//W3C//DTD SVG 1.1//EN" "http://www.w3.org/Graphics/SVG/1.1/DTD/svg11.dtd" >
<svg xmlns="http://www.w3.org/2000/svg">
<metadata>
Created by FontPrep 20130207 at Fri Nov  1 17:41:13 2013
 By Victor Dieppa Garriga
Copyright (c) 1992 Adobe Systems Incorporated.  All Rights Reserved.Catull is a registered trademark of H. Berthold AG.
</metadata>
<defs>
<font id="0f9cfda318c705f7c43644500ea67e14" horiz-adv-x='1024' >
  <font-face 
    font-family="Catull-Regular"
    font-weight="400"
    font-stretch="normal"
    units-per-em="2048"
    panose-1="2 0 5 5 8 0 0 2 0 3"
    ascent="1638"
    descent="-410"
    x-height="928"
    cap-height="1446"
    bbox="-391 -633 2292 1817"
    underline-thickness="102"
    underline-position="-102"
    unicode-range="U+0005-2122"
  />
<missing-glyph 
 />
    <glyph glyph-name=".notdef" 
 />
    <glyph glyph-name=".null" horiz-adv-x="0" 
 />
    <glyph glyph-name="nonmarkingreturn" 
 />
    <glyph glyph-name="breve" 
d="M118 1124q-94 49 -173 154q182 -91 249.5 -95.5t101.5 -4.5q110 0 245 63q34 16 37 17l32 20q-6 -8 -12 -16.5t-14 -16.5q-76 -88 -162 -129t-148 -41t-156 49z" />
    <glyph glyph-name="dotaccent" 
d="M289 1350q32 -45 121 -142q-25 -23 -53.5 -50.5t-94.5 -76.5q-57 57 -77.5 87t-39.5 57q27 23 44.5 36t30.5 25t28.5 26.5t40.5 37.5z" />
    <glyph glyph-name="ring" 
d="M381 1186q0 41 -27.5 73.5t-75 32.5t-77 -32.5t-29.5 -72.5t29.5 -73t75 -33t75 32t29.5 73zM430 1186q0 -59 -43 -105.5t-111 -46.5t-110.5 46t-42.5 104t42 106.5t113 48.5t111.5 -47t40.5 -106z" />
    <glyph glyph-name="hungarumlaut" unicode="&#xa;" 
d="M549 1174l-365 -99l127 103l369 100zM240 1174l-365 -99l129 103l367 100z" />
    <glyph glyph-name="ogonek" 
d="M252 -178q0 -62 72 -62q23 0 55.5 7.5t60.5 13.5l-49 -70q-61 -16 -109 -16t-87 15t-59.5 46t-20.5 78t54 89.5t119.5 57.5t67.5 15l52 -10q-61 -35 -108.5 -72t-47.5 -92z" />
    <glyph glyph-name="caron" 
d="M-35 1217l105 45l202 -95l318 113l-182 -135l-162 -60z" />
    <glyph glyph-name="dotlessi" unicode="&#xd;" horiz-adv-x="512" 
d="M350 125q0 -45 17.5 -55.5t64.5 -14.5l105 -8l-80 -47h-346q40 44 47.5 63t7.5 68v725h-154l138 72h245q-35 -47 -35 -105l-8 -594v-5v-26z" />
    <glyph glyph-name="fraction" horiz-adv-x="256" 
d="M684 1470q-171 -215 -481 -700q-61 -94 -123 -188.5t-121 -188.5t-96 -151.5t-61.5 -96.5t-44 -70.5t-46.5 -74.5l-102 -25q10 14 17 26.5t41 64.5t90.5 145t122.5 199q343 553 691 1040z" />
    <glyph glyph-name="fi" horiz-adv-x="1110" 
d="M995 1212q-57 -64 -145 -135q-69 63 -119 135q46 40 94 84l52 50l45 -54q4 -4 8 -9t8 -9zM946 125q0 -43 16.5 -54.5t65.5 -15.5l105 -10l-80 -45h-346q40 44 47.5 63t7.5 66v729h-391l-6 -356v-377q0 -33 6 -44t20 -14q93 -20 168 -20l-84 -47h-358q8 10 19.5 24.5
t21.5 27.5t12 30.5t4 58.5v717h-115l115 70q2 35 8 93.5t46 154.5t145 176.5t192.5 87t98.5 6.5h135l-160 -88q-37 6 -80 6q-78 0 -117.5 -49.5t-46.5 -90.5q-13 -72 -16.5 -119.5t-7.5 -176.5h620q-35 -47 -35 -105l-8 -594v-5v-26z" />
    <glyph glyph-name="fl" horiz-adv-x="1110" 
d="M365 125q0 -39 10 -50.5t53 -16.5t71.5 -6t59.5 -5l-84 -47h-358q8 10 19.5 24.5t21.5 27.5t12 30.5t4 58.5v717h-115l115 70q0 233 150 383q132 126 257.5 130.5t188.5 4.5h293q-31 -18 -49.5 -31.5t-32.5 -42t-15 -102.5t-1 -111t-2 -74l-7 -460q-4 -123 -4 -153v-331
q0 -55 20.5 -69.5t55.5 -17.5t60.5 -5t52.5 -6l-78 -43h-363q29 39 42.5 58.5t13.5 47.5l2 336q2 141 3 290t5 308l12 332h-114q-161 0 -219 -53.5t-70 -251.5v-7l-4 -132h299l-115 -70h-184l-6 -356v-377z" />
    <glyph glyph-name="Lslash" horiz-adv-x="1110" 
d="M426 144q0 -17 27.5 -49t264.5 -32q238 0 294.5 29t77.5 39l108 37l-188 -168h-873q46 46 61 73.5t15 92.5v381l-197 -170l31 119l166 147q2 80 3 139.5t2 108.5t3 91t4 109t7 159q4 93 4 101.5t2 18.5h-199l139 76h352l-45 -45q-31 -27 -36 -50q-17 -75 -17 -388
l-2 -127l371 319l-31 -121l-340 -299v-65l-4 -426v-100z" />
    <glyph glyph-name="lslash" horiz-adv-x="512" 
d="M158 109v395l-150 -170l19 125l131 155q4 190 7 379t13 379h-158l154 74h293q-61 -35 -77.5 -66t-20.5 -137t-7.5 -199.5t-3.5 -189.5l152 174l-18 -127l-134 -158v-591q0 -70 29 -86q6 -2 11 -4.5t23.5 -4t121.5 -12.5l-76 -45h-363q48 61 51 76.5t3 32.5z" />
    <glyph glyph-name="Zcaron" horiz-adv-x="1409" 
d="M553 1686l104 47l203 -95l318 113l-183 -137l-161 -60zM502 1444h20l918 14q-171 -249 -337.5 -460.5t-227 -288t-147 -186.5t-111.5 -140t-60 -73.5t-87.5 -106.5t-107.5 -133l578 8q276 11 382 33q107 23 173 55l-74 -68l-291 -129l-81 -2l47 41l-1082 -20
q218 240 358 410.5t267 328.5l242 303q119 151 266 348l-694 -12l-193 -139l-125 -51l273 274l75 27q-7 -21 5 -27t14 -6z" />
    <glyph glyph-name="zcaron" horiz-adv-x="854" 
d="M711 -27l-78 -24l53 57l-698 -16q68 90 92 123t42 55t137 196q120 173 207 297t105 154q18 29 37 57l-340 -8l-121 -88l-96 -31l193 193l67 14q0 -18 11 -20q6 -4 32 -4l508 12q-16 -23 -48 -72t-73 -108l-55 -80q-136 -210 -211 -321q-76 -111 -123 -183t-88 -123l301 8
q168 5 246 34q25 9 55 26l-28 -47zM211 1217l104 45l203 -95l318 113l-183 -135l-161 -60z" />
    <glyph glyph-name="space" unicode=" " 
 />
    <glyph glyph-name="space" unicode="&#xa0;" 
 />
    <glyph glyph-name="exclam" unicode="!" horiz-adv-x="598" 
d="M453 115q-50 -58 -154 -140q-20 20 -33.5 35t-35 39t-56.5 72l115 100l39 37l39 -51zM236 804q0 46 7 177t9 176t4 94t6 97l207 110q0 -76 -6 -168t-10 -155l-19 -347q-2 -51 -4 -87.5t-3 -67.5t-2 -60.5t-1 -64.5l-188 -51v347z" />
    <glyph glyph-name="quotedbl" unicode="&#x22;" horiz-adv-x="811" 
d="M212 1534q24 0 51 -11q28 -11 34 -37t6 -52l-72 -523h-41l-65 496l-2 33q0 53 32.5 73.5t56.5 20.5zM596 1534q24 0 52 -11t34 -37t6 -52l-72 -523h-41l-65 496l-2 33q0 53 32 73.5t56 20.5z" />
    <glyph glyph-name="numbersign" unicode="#" horiz-adv-x="1193" 
d="M688 641l27 199h-207l-27 -199h207zM1153 528h-358l-70 -528h-125l74 528h-207l-78 -528h-117l72 528h-342v113h356l29 199h-342v116h358l66 490h123l-68 -490h205l66 490h123l-66 -490h342v-116h-358l-27 -199h344v-113z" />
    <glyph glyph-name="dollar" unicode="$" horiz-adv-x="1110" 
d="M610 582v-105l-2 -203q0 -53 -1 -115.5t1 -115.5q10 4 21 6t45 13t72 40t74 79.5t36 117.5q0 167 -71.5 214.5t-83 56t-32 21.5t-55.5 36q-4 -40 -4 -45zM340 1168q0 -74 40 -136q40 -63 86 -92t85 -47q2 49 4 117.5t5 140.5t6 140.5t5 119.5q-120 -18 -175.5 -93.5
t-55.5 -149.5zM205 174.5q0 -12.5 19.5 -34t92.5 -61.5t220 -40q-3 206 8 620q-367 144 -367 408q0 133 96 261.5t299 152.5l2 47l72 100l-4 -145q182 -7 259 -46.5t112 -60.5l-140 -151l-53 -11q12 25 20.5 38.5t13.5 23.5t5 19q0 26 -63 73t-156 47q-6 -84 -6 -164
l-8 -190l-6 -203l120 -63q57 -31 107.5 -64t93.5 -86q88 -108 88 -237q0 -166 -123 -291q-100 -100 -187 -117.5t-112 -22.5v-49l-63 -147l-8 188q-252 -5 -490 113l137 158l58 14q-37 -67 -37 -79.5z" />
    <glyph glyph-name="percent" unicode="%" horiz-adv-x="1622" 
d="M1368 1470q-103 -129 -160 -213.5t-106 -158.5t-105.5 -157t-114.5 -174t-119 -185.5t-121 -188.5t-96 -150.5t-60.5 -96.5t-45 -71.5t-47.5 -74.5l-102 -23q10 12 17 24.5t41 64.5t90.5 146t120.5 196q374 594 693 1044zM1462 330q0 314 -70 413t-125 99
q-167 0 -167 -299q0 -186 55.5 -331.5t151.5 -145.5q56 0 105.5 63t49.5 201zM1575 530q0 -327 -112 -435.5t-194 -108.5q-145 0 -214.5 122t-69.5 322q0 201 94.5 345.5t237.5 144.5q111 0 184.5 -100t73.5 -290zM514 1046q-10 91 -21 130q-61 208 -167 208
q-166 0 -166 -299q0 -186 55.5 -331.5t153.5 -145.5q55 0 89 43t50 101.5t16 130.5t-10 163zM637 1072q0 -324 -112 -434t-193 -110q-143 0 -215 121.5t-72 320.5t94 345.5t238 146.5q113 0 186.5 -100t73.5 -290z" />
    <glyph glyph-name="ampersand" unicode="&#x26;" horiz-adv-x="1579" 
d="M270 473q0 -144 120.5 -262.5t277.5 -118.5t227 26.5t119 51.5q-177 169 -278.5 301t-207.5 301q-258 -77 -258 -299zM961 1194q0 90 -51.5 144.5t-129.5 54.5t-122 -54.5t-44 -158.5t43.5 -185t55.5 -104q14 4 27.5 10t27.5 12q90 41 141.5 116t51.5 165zM1330.5 446.5
q-27.5 -94.5 -103.5 -196.5q85 -97 346 -264q-53 -23 -103 -23q-189 0 -387 152q-241 -152 -473 -152t-389.5 124.5t-157.5 316.5t130.5 285t308.5 142q-18 39 -44 104.5t-26 155.5t38 161t126.5 140.5t231.5 69.5t231 -72.5t88 -198.5t-111 -224q-68 -59 -148.5 -89
t-144.5 -47q29 -43 123 -186t310 -348q92 113 92 219t-41 139.5t-101 49.5l80 49h428l-184 -70h-98q6 -69 6 -106t-27.5 -131.5z" />
    <glyph glyph-name="quotesingle" unicode="'" horiz-adv-x="425" 
d="M212 1534q24 0 51 -11q28 -11 34 -37t6 -52l-72 -523h-41l-65 496l-2 33q0 53 32.5 73.5t56.5 20.5z" />
    <glyph glyph-name="parenleft" unicode="(" horiz-adv-x="641" 
d="M139 723q0 110 33 227q61 217 229 373q72 70 124.5 99.5t99.5 52.5q-114 -131 -161.5 -225.5t-89.5 -219.5t-42 -279q0 -259 81.5 -445t166.5 -286q20 -28 45 -53q-104 45 -295 213t-191 543z" />
    <glyph glyph-name="parenright" unicode=")" horiz-adv-x="641" 
d="M16 -33q293 326 293 736t-248 718q-10 14 -21.5 27t-23.5 27q99 -43 292.5 -211t193.5 -545q0 -115 -33 -230q-61 -212 -229 -372q-72 -68 -124.5 -97.5t-99.5 -52.5z" />
    <glyph glyph-name="asterisk" unicode="*" horiz-adv-x="894" 
d="M512 1034q67 -101 147 -213l-6 -145l-147 213q-12 18 -27 39t-33 53q-8 -12 -29.5 -43t-46 -66.5t-47 -67.5t-30.5 -44l-133 -35q10 14 18 26.5t17.5 24.5t21.5 28.5t29 39.5l61 86q20 29 33.5 47t32.5 47q-39 12 -89 27q-49 16 -68 22t-32.5 11.5t-26 8.5t-28.5 9
l-82 119l119 -43l135 -41q33 -10 46 -14.5t44 -12.5v248l84 121v-373q246 82 260 82l133 -45l-268 -80q-37 -13 -88 -29z" />
    <glyph glyph-name="plus" unicode="+" horiz-adv-x="1024" 
d="M961 537h-388v-390h-122v390h-390v122h390v383h122v-383h388v-122z" />
    <glyph glyph-name="comma" unicode="," horiz-adv-x="512" 
d="M346 164q31 -31 31 -61q0 -90 -224 -368l-30 -36l-105 -57l56 79q16 29 34.5 56.5t60.5 91.5t42 98q-1 35 -19 57q-18 23 -40.5 49.5t-38.5 47.5q109 93 153 135z" />
    <glyph glyph-name="hyphen" unicode="-" horiz-adv-x="811" 
d="M606 492h-555l154 86h555z" />
    <glyph glyph-name="period" unicode="." horiz-adv-x="512" 
d="M393 117q-53 -61 -89 -90t-62 -52q-28 25 -49 49.5t-37.5 43t-40.5 49.5l90 80l61 61l45 -57z" />
    <glyph glyph-name="slash" unicode="/" horiz-adv-x="854" 
d="M446 694l-153 -332q-25 -53 -48.5 -104t-44 -94t-35.5 -77t-24 -50l-135 -62q162 352 331 713t361 723l146 68q-8 -16 -17 -31.5t-37 -71.5t-60 -115t-57.5 -109t-52 -104.5t-69.5 -140.5z" />
    <glyph glyph-name="zero" unicode="0" horiz-adv-x="1067" 
d="M827.5 815q-16.5 136 -36.5 205q-99 350 -289 350q-111 0 -194 -108.5t-83 -393.5q0 -151 21.5 -275t35.5 -172q41 -137 113 -240t183 -103q82 0 150.5 69.5t92 188t23.5 231.5q0 112 -16.5 248zM999 813q0 -409 -174 -645q-139 -193 -325 -193q-215 0 -324.5 197
t-109.5 479q0 351 149 585t377 234q186 0 296.5 -167.5t110.5 -489.5z" />
    <glyph glyph-name="one" unicode="1" horiz-adv-x="1067" 
d="M471 1080v53q0 44 3 77t3 50l-139 -91l-166 -34l6 16q109 68 176.5 110t121.5 76.5t107.5 71.5t133.5 92l-19 -61q-16 -61 -16 -123l-29 -1161q0 -59 18.5 -74.5t71.5 -22.5l105 -8l-84 -51h-363q31 37 41.5 56.5t10.5 62.5l16 938q2 18 2 23z" />
    <glyph glyph-name="two" unicode="2" horiz-adv-x="1067" 
d="M713 1055q0 112 -64 196t-182 84q-119 0 -178.5 -57t-73.5 -76l-158 -45q165 165 239.5 215.5t129.5 81.5q92 16 161 16q70 0 135.5 -25.5t128 -91t62.5 -202.5q0 -179 -135 -380t-495 -599q177 -27 294 -27q188 0 274 10.5t132 37.5l-16 -52l-162 -186l-68 -12l45 67
q-211 -19 -407.5 -14.5t-313.5 22.5q138 138 395 478.5t257 558.5z" />
    <glyph glyph-name="three" unicode="3" horiz-adv-x="1067" 
d="M544 1470q58 0 111 -14q99 -26 142 -93.5t43 -125.5q0 -105 -78 -197q-45 -51 -92 -83.5t-70 -47.5q35 -14 76 -33.5t85 -62.5q99 -97 99 -238q0 -293 -241.5 -424t-346.5 -167l-178 -13q20 8 45 18.5t150.5 61.5t253.5 195q108 125 108 263t-93 213t-241 79l52 71
q113 4 200.5 88t87.5 180t-64.5 143.5t-150.5 47.5t-147.5 -39t-97.5 -86l-164 -47q191 198 364 299q35 4 62 8t85 4z" />
    <glyph glyph-name="four" unicode="4" horiz-adv-x="1067" 
d="M389 586l203 -2l24 731q-136 -203 -261.5 -428t-168.5 -301h203zM812 434h-48v-276q0 -60 12 -77.5t60 -21.5l98 -8l-66 -51h-321q14 27 27.5 51t13.5 84l4 303q-70 2 -88 2h-193q-217 0 -299 -4q8 14 28.5 50t58 100.5t71.5 125.5q33 62 98.5 169.5t132 214t125 198.5
t88.5 140l183 36q-4 -29 -5 -52t-4.5 -71t-7.5 -204l-12 -563h102h62l110 2l-198 -152q-29 4 -32 4z" />
    <glyph glyph-name="five" unicode="5" horiz-adv-x="1067" 
d="M626 1446h119q80 0 160 5t156 32l-27 -60l-184 -157l-70 -9l33 46q-131 -15 -230 -15q-98 0 -204 8l-96 -249q258 -33 399 -140q158 -124 158 -319q0 -155 -121 -303q-137 -157 -296 -219t-214 -82l-170 -13q207 81 267 114t118 71q113 75 168 170.5t55 187.5
q0 240 -167.5 302t-362.5 73l49 80q10 18 17 29.5t13.5 23.5t11.5 26.5t15 38.5l101 265l180 104q108 -10 122 -10z" />
    <glyph glyph-name="six" unicode="6" horiz-adv-x="1067" 
d="M1010 522q0 -88 -36 -186t-102.5 -178t-163 -131.5t-213.5 -51.5q-210 0 -316.5 142.5t-106.5 322.5q0 274 247 586q113 142 245 252t300 225l-51 -108q-298 -209 -444 -461q-107 -191 -107 -396q0 -206 100.5 -334t235.5 -128q103 0 179.5 73.5t76.5 220.5t-101 286
t-282 139q-42 0 -80 -9l58 54l196 71q68 0 146.5 -41t122.5 -87t70 -109.5t26 -151.5z" />
    <glyph glyph-name="seven" unicode="7" horiz-adv-x="1067" 
d="M531 1446h69q245 0 467 4q-193 -325 -348 -664q-23 -47 -52.5 -115.5t-62 -142t-95.5 -227.5t-93 -225l-10 -25q-141 -65 -265 -139q39 90 56.5 124t40 78t61.5 118t81 155.5t159 302.5t368 608q-205 -10 -323 -10l-174 2q-57 0 -162 6l-88 -61l-111 -29l260 258l80 19
q5 -24 16 -28q11 -5 64 -7t62 -2z" />
    <glyph glyph-name="eight" unicode="8" horiz-adv-x="1067" 
d="M229 443q0 -51 22.5 -119t94.5 -162t236 -94q115 0 191.5 68.5t76.5 178.5q0 162 -110 234t-130 82t-43.5 22.5t-72 35t-68.5 34.5q-31 -14 -66.5 -33.5t-70.5 -62.5t-47.5 -88t-12.5 -96zM721 922q57 70 57 176q0 107 -76.5 197.5t-191.5 90.5t-166 -59t-51 -121
q0 -108 66.5 -181.5t183.5 -137.5l84 -43q64 38 94 78zM74 360q0 257 293 400q-29 23 -66 53.5t-90 101t-53 186.5q0 115 73 204q53 68 122 103.5t118 57.5q58 4 122 4t135 -27.5t139.5 -93t68.5 -177.5q0 -110 -54 -188t-105.5 -114t-86.5 -55q107 -58 164 -108
q131 -127 131 -297t-143.5 -302.5t-331.5 -132.5t-312 110t-124 275z" />
    <glyph glyph-name="nine" unicode="9" horiz-adv-x="1067" 
d="M57 914q0 84 30.5 176t90.5 176t165.5 144t226.5 60q212 0 319.5 -140t107.5 -324q0 -276 -247 -586q-168 -211 -331 -325.5t-214 -149.5l49 106q84 59 156.5 119t158.5 158q238 273 238 572q0 214 -100.5 342t-237.5 128q-102 0 -179 -72t-77 -223t103.5 -287.5
t277.5 -136.5q34 0 84 8l-57 -53l-197 -71l-28 4q-69 10 -136 47t-108 79t-68 103.5t-27 145.5z" />
    <glyph glyph-name="colon" unicode=":" horiz-adv-x="598" 
d="M326 -23q-77 74 -127 142l151 141l78 -92l49 -49q-45 -57 -151 -142zM332 662q-66 59 -127 139l153 141l43 -53l84 -88q-85 -92 -153 -139z" />
    <glyph glyph-name="semicolon" unicode=";" horiz-adv-x="598" 
d="M452.5 138.5q10.5 -13.5 10.5 -37.5q0 -52 -70 -154.5t-155 -211.5l-29 -36l-105 -57l54 79q18 29 36.5 56.5t60.5 91.5t42 96q1 33 -19 58q-20 24 -42.5 50.5t-38.5 47.5q109 93 153 135l82 -92q10 -12 20.5 -25.5zM330 662q-60 53 -125 139l49 47l59 51l45 43l80 -96
l47 -45q-82 -88 -155 -139z" />
    <glyph glyph-name="less" unicode="&#x3c;" horiz-adv-x="1024" 
d="M1024 139l-1024 514v144l1024 510v-131l-889 -451l889 -455v-131z" />
    <glyph glyph-name="equal" unicode="=" horiz-adv-x="1024" 
d="M1024 715h-1024v121h1024v-121zM1024 354h-1024v121h1024v-121z" />
    <glyph glyph-name="greater" unicode="&#x3e;" horiz-adv-x="1024" 
d="M0 139v131l889 455l-889 451v131l1024 -510v-144z" />
    <glyph glyph-name="question" unicode="?" horiz-adv-x="937" 
d="M602 117q-25 -32 -51.5 -55t-47 -41.5t-52.5 -45.5l-38 38q-38 38 -89 104l153 141l43 -53zM731 1182q0 58 -10 78q-64 138 -216 139q-95 -1 -157 -59t-78 -110t-22 -89l-215 -39q4 43 15.5 90t63.5 107t157.5 112.5t262.5 52.5q279 0 342.5 -110t63.5 -172
q0 -102 -43.5 -166t-128.5 -137l-64 -50q-64 -57 -83 -104t-25 -94t-12 -117l-82 -16l-140 -37q11 167 62 249t160 173q75 75 100 116t37 83t12 100z" />
    <glyph glyph-name="at" unicode="@" horiz-adv-x="1835" 
d="M1123 954.5q-51 46.5 -104 46.5q-96 0 -169 -94q-95 -115 -125.5 -256t-30.5 -223t39 -135q44 -55 108 -55t110 31.5t83 84t62.5 115.5t51.5 157.5t26 187.5q0 94 -51 140.5zM934 -254q-182 0 -335 59.5t-305.5 213t-152.5 473.5q0 186 67.5 360t187.5 309t283 216
t337 81q322 0 499 -199t177 -459t-96.5 -404t-176.5 -199.5t-155 -55.5t-115 40q-41 40 -45 81t-4 82q-31 -49 -63.5 -90t-96.5 -75t-116 -34q-111 0 -194 84.5t-83 268.5q0 228 102.5 355.5t182 173.5t154.5 46t128 -30t72.5 -66.5t34.5 -73.5l26 115h121l-59 -277
q-80 -347 -80 -413t24.5 -81.5t54.5 -15.5t83 42t134 168.5t81 344.5q0 258 -165.5 425t-404.5 167q-147 0 -354 -92t-303 -356t-96 -415q0 -299 171 -493t519 -194q226 0 428 102q84 45 135 89t102 94l50 -60q-123 -123 -226.5 -180t-224.5 -92t-303 -35z" />
    <glyph glyph-name="A" unicode="A" horiz-adv-x="1536" 
d="M840 635q49 4 73.5 5t53.5 3q-28 77 -97 231t-104 225.5t-49 102.5q-39 -90 -65.5 -152.5t-54.5 -121.5t-75.5 -154.5t-62.5 -136.5zM1612 0q-78 -20 -147 -20t-131 39q-98 62 -144.5 136t-91.5 179l-121 282q-92 -25 -116.5 -36t-45.5 -19h-326q-35 0 -49 -6t-30 -25
l-179 -329l-7 -17q-7 -18 -7 -38t29 -31q59 -36 219 -62l-172 -53q-115 -4 -171 17.5t-93 43.5q96 126 161.5 231t163.5 310l76 160q64 123 101 208t59 135q56 123 74 183q-37 87 -124 89.5t-124 0.5l131 54l287 20q35 -79 91 -197.5t71 -153.5q15 -34 35 -80t41.5 -95
t41 -95.5t35.5 -82.5l80 -183q121 -263 180 -351.5t102 -130.5t101 -83z" />
    <glyph glyph-name="B" unicode="B" horiz-adv-x="1236" 
d="M408 244q0 -37 16 -89q34 -110 209 -110q141 0 226 86t85 240t-96.5 256t-273.5 102q-92 0 -166 -27v-458zM707.5 1291q-68.5 100 -111.5 100h-172q-2 -10 -2 -19.5t-2 -31.5t-4 -67.5t-3 -91.5t-2 -91.5t-1 -81.5l-2 -244q101 23 157 54q55 30 86 49.5t78 73.5t47 152
t-68.5 198zM600 1448q192 0 280 -70q108 -87 109 -213q0 -153 -108.5 -223t-145.5 -90q155 -19 223 -61.5t114 -93.5q91 -101 91 -251q0 -104 -49.5 -195t-113.5 -141q-102 -80 -225 -103t-404 -11l-256 8q50 54 64 91t14 96v337q0 338 7 529.5t7 277.5l2 41h-203l141 72
h453z" />
    <glyph glyph-name="C" unicode="C" horiz-adv-x="1366" 
d="M874 -31q-215 0 -363.5 72t-240.5 181.5t-133 239.5t-41 259t54.5 267t156 246.5t246.5 175.5t305 67t286 -36t191.5 -80t100.5 -73l-154 -149l-65 -6l55 77q-84 91 -171.5 146t-208.5 55q-238 0 -407.5 -167.5t-169.5 -448.5q0 -123 41 -254t128 -238.5t221.5 -177.5
t320.5 -70q111 0 187.5 22.5t142.5 49.5l-99 -82q-128 -47 -212 -61.5t-171 -14.5z" />
    <glyph glyph-name="D" unicode="D" horiz-adv-x="1579" 
d="M1282 623q0 196 -70 364q-39 99 -131 203.5t-248 146t-258 41.5q-101 0 -135 -8l-10 -403l-4 -478q-7 -209 8 -279.5t49 -100.5q79 -62 265 -62q114 0 216.5 44t210 161.5t107.5 370.5zM571 1446q239 0 417 -37.5t317 -169.5q80 -76 138 -201t58 -304t-123 -425.5
t-388 -291t-467 -44.5t-361 25l31 59q20 38 20 86v145l3 440l7 648l-176 -6l115 76h409z" />
    <glyph glyph-name="E" unicode="E" horiz-adv-x="1067" 
d="M725 731h-240q-31 0 -47 -10t-14 -49v-467q0 -82 15 -98q37 -41 194 -41t237 12t170 55l111 37l-186 -170h-830q52 60 63 87t11 95q0 679 24 1192h-219l148 72h852l-131 -121l-54 -14q29 36 29 47q0 10 -16 12q-32 4 -60 4h-338l-20 -573h473l-119 -113l-55 -16l25 45
q0 14 -23 14z" />
    <glyph glyph-name="F" unicode="F" horiz-adv-x="980" 
d="M752 719q0 12 -33 12h-230q-39 0 -51 -13t-12 -54v-465q0 -92 10 -108.5t28.5 -20.5t51.5 -7l146 -8l-101 -55h-420q18 23 31.5 39t28 42.5t14.5 50.5l-1 88l-1 192q0 479 18 956h-206l135 78h860l-131 -123l-55 -16l10 16q9 16 13.5 21.5t4.5 9.5q0 12 -25 12h-13
l-152 2h-228l-10 -303l-6 -234v-32h473l-119 -111l-53 -14q23 33 23 45z" />
    <glyph glyph-name="G" unicode="G" horiz-adv-x="1622" 
d="M844 -31q-127 0 -239.5 33t-236 109.5t-207 249.5t-83.5 336q0 164 56 302t161.5 244.5t259.5 170t332 63.5t313 -38q136 -38 195 -74t94 -58l-170 -162l-72 -17l51 82q-27 25 -64.5 59t-125.5 84t-229 50q-266 0 -426 -169.5t-160 -434.5q0 -145 50 -279.5t144.5 -239
t228.5 -167t302 -62.5q98 0 155.5 16.5t104.5 34.5v330l-309 -16l164 88h434l-54 -51q-14 -14 -19 -34q-5 -21 -5 -97v-250l-293 -68q-225 -35 -352 -35z" />
    <glyph glyph-name="H" unicode="H" horiz-adv-x="1792" 
d="M215 778l7 294q7 294 9 304l-206 -4l153 76h359l-62 -47q-19 -13 -23 -33q-5 -20 -6.5 -61t-3.5 -97.5t-4 -122t-4 -126t-4 -108.5t-2 -71h848q43 0 92 11l2 219q2 88 4 141t3.5 111t4.5 114l-198 -6l151 76h342l-67 -53q-10 -10 -13 -19q-4 -13 -13 -333.5t-9 -506.5
v-182q0 -182 3 -226t28.5 -55.5t85.5 -13.5l145 -4l-119 -55h-442q65 65 78.5 112t13.5 212v430q-81 -18 -160 -56h-628q-90 0 -110 -12q-21 -12 -31.5 -24t-10.5 -26v-257q0 -174 4 -232q4 -59 18.5 -70t51.5 -16l157 -6l-112 -55h-416q70 74 75 113q5 38 8 98t3 83v77
l-1 130z" />
    <glyph glyph-name="I" unicode="I" horiz-adv-x="641" 
d="M453 1362.5q0 -12.5 -2 -50.5t-4.5 -89.5t-4.5 -105.5t-3 -106.5t-3 -92.5l-8 -304q-4 -136 -4 -268v-131q0 -95 9 -115t25.5 -26t45.5 -8l151 -17l-88 -49h-432q70 85 73 109t5 47q0 858 20 1218h-206l135 72h370l-51 -43q-28 -28 -28 -40.5z" />
    <glyph glyph-name="J" unicode="J" horiz-adv-x="598" 
d="M217 700q0 97 14 629v43l-305 -8l131 82h471l-51 -43q-18 -18 -23 -30.5t-10 -55.5l-14 -451l-16 -684q-4 -70 -19 -238.5t-248 -389.5l-135 -80q111 180 142.5 297.5t38 236.5t12.5 230z" />
    <glyph glyph-name="K" unicode="K" horiz-adv-x="1366" 
d="M1346 -27q-214 0 -377.5 206t-245.5 315l-102 133q-23 35 -48 59.5t-39 24.5t-22 -7.5t-16 -13.5l-72 -76v-227q0 -227 8 -287q4 -12 12.5 -21t53.5 -13l166 -9l-103 -57h-420l54 66q19 21 20 47q2 26 2 37l-4 264q-2 242 2 481.5t8 480.5l-198 -6l135 78h362l-43 -37
q-29 -20 -35 -31.5t-8 -29.5l-6 -156q-2 -47 -2 -58v-124l-4 -285l137 135q258 268 330 361.5t117 152.5h-205l123 72h288l-51 -41q-15 -12 -182 -199t-305 -331q33 -33 109.5 -124t102 -124t30.5 -39t28 -36t48.5 -63.5t48 -63.5t32.5 -42l66 -80q164 -191 215 -235.5
t96 -81.5q-72 -15 -106 -15z" />
    <glyph glyph-name="L" unicode="L" horiz-adv-x="1110" 
d="M211 642q0 15 2 90t4 162t5 163t6 143.5t4 105.5t1 46t3 18h-199l139 76h354l-45 -45q-27 -25 -34 -40t-9 -54l-12 -344v-293l-6 -422q0 -124 17 -143q38 -42 275 -42q238 0 294.5 29t76.5 39l111 37l-190 -168h-873q35 35 53.5 60.5t22.5 66.5v515z" />
    <glyph glyph-name="M" unicode="M" horiz-adv-x="2134" 
d="M2140 8q-90 -18 -150 -18t-102 23q-72 39 -97 96t-30 112q-26 154 -52 478.5t-36 512.5l-129 -258q-25 -53 -44 -92t-37.5 -78t-40 -82t-50.5 -104l-242 -535l13 -34l-203 -52l-315 685q-33 68 -65 135t-53 107t-41 80t-43.5 85t-28.5 55l-44 88l-57 -659
q-4 -43 -6 -71.5t-4 -52t-4.5 -47.5t-6.5 -83t-4 -107q0 -80 19 -101t73 -28l115 -12l-90 -51h-305q54 65 72 114.5t34 211.5l47 469q4 59 10.5 119.5t10.5 119.5l20 273q0 39 -11 49t-22 13q-18 5 -31 5h-161l133 72h293q144 -274 246 -488q78 -172 145.5 -314t85.5 -183
t36 -80t38.5 -83t37.5 -83t26 -55q111 247 173 378.5t97 206t70.5 147.5t74.5 150.5t86 171.5l29 66q18 36 18 61q0 39 -84 39q-27 0 -64.5 -2t-66.5 -2l154 72h377q-10 -8 -31 -23.5t-33 -26.5t-12 -35v-37q0 -38 20 -318l29 -355q12 -115 19.5 -182.5t11.5 -109.5t8 -66.5
t11 -71.5t36 -109.5t103 -95.5q6 -4 12 -5t12 -5z" />
    <glyph glyph-name="N" unicode="N" horiz-adv-x="1835" 
d="M295 741q0 -565 9 -609t35 -58.5t175 -22.5l-78 -51h-309l47 47q16 16 22.5 28.5t10.5 47.5l6 297v108l-6 738q0 72 -23.5 93t-83.5 21t-116 -8l143 76h256l156 -148q41 -43 118.5 -121.5t391 -408.5t505.5 -567l11 495q2 145 2 259t-2 237l-6 188l-234 -8l121 74h270
q-16 -10 -23 -14t-15 -16q-17 -25 -22 -48.5t-6 -85.5t-1 -112t-2 -99v-981l32 -41q-83 -35 -198 -84q-268 307 -328 371q-59 65 -104 114.5t-105.5 116t-133.5 143t-217.5 230t-200.5 206t-59 55.5l-38 38v-500z" />
    <glyph glyph-name="O" unicode="O" horiz-adv-x="1792" 
d="M1244 1257.5q-160 149.5 -392 149.5q-231 0 -394 -167t-163 -445q0 -141 47 -276.5t132 -240t204 -169t262 -64.5q82 0 179.5 32t179 104.5t137 193.5t55.5 275t-28 251q-59 207 -219 356.5zM1714 754q0 -152 -58.5 -294.5t-167 -251t-264 -174t-344.5 -65.5t-338 61.5
t-251.5 164t-157.5 235t-55 274.5t53 279t159.5 246.5t265 178.5t352.5 69t339.5 -56.5t248.5 -155t160.5 -229t57.5 -282.5z" />
    <glyph glyph-name="P" unicode="P" horiz-adv-x="1067" 
d="M211 709q0 29 16 637v28l-213 -10l156 82h442q78 0 155 -10.5t151 -57.5q139 -92 139 -247t-98 -238t-250 -154l-220 -39q136 46 196 90q146 107 146 279q0 204 -121.5 258.5t-220.5 54.5h-20t-25 -2l-12 -348q-6 -252 -6 -318v-526q0 -81 11.5 -96.5t30.5 -20.5t56 -8
l152 -8l-107 -55h-432l51 66q25 36 25 72v18l-1 82z" />
    <glyph glyph-name="Q" unicode="Q" horiz-adv-x="1835" 
d="M936 43q256 0 408.5 185.5t152.5 443.5q0 143 -49 276t-135 235.5t-203 164t-238 61.5q-249 0 -407 -162q-72 -74 -119 -188.5t-47 -260.5t47 -280.5t132 -240t204 -170t254 -64.5zM78 715q0 150 60.5 290t172 245.5t268.5 167t347 61.5t335.5 -61.5t246 -163t153.5 -234
t53 -276.5t-45 -254q-72 -176 -159 -262.5t-179 -145.5h103q74 -6 116.5 -35t86.5 -67t93.5 -89t92.5 -94q112 -112 152 -125.5t50 -17.5h-237q-73 0 -116.5 33.5t-89.5 81t-120 122.5l-59 62q-27 23 -68 52.5t-94 29.5h-6q-174 -63 -356 -65q-182 -1 -332 60.5t-254.5 165
t-159.5 236.5t-55 283z" />
    <glyph glyph-name="R" unicode="R" horiz-adv-x="1366" 
d="M430 686q47 0 107.5 5t124.5 38q170 88 169 282q0 149 -92 259q-91 100 -176.5 105t-118.5 5l-14 -438v-256zM571 1446q155 0 238 -39q100 -39 167.5 -126t67.5 -211t-65.5 -200t-155.5 -131q20 -23 43 -47t105 -142t123 -169l63 -86q126 -170 188 -221t111 -86
q-88 -13 -125 -13t-109.5 26t-117.5 59q-75 55 -144.5 144t-154.5 216l-98 135q-49 73 -73 78.5t-39 5.5q-17 0 -56.5 -6t-108.5 -6v-231q0 -230 5 -265t19.5 -52.5t99.5 -19.5t124 -4l-117 -55h-426q63 63 69.5 101t6.5 356t10 596l10 317h-221l150 76h411z" />
    <glyph glyph-name="S" unicode="S" horiz-adv-x="1150" 
d="M1059 405q0 -181 -150.5 -308.5t-382.5 -127.5t-475 103l160 180l55 12l-35 -69q-6 -9 -6 -17q-1 -8 11 -22q28 -34 130.5 -74.5t182.5 -40.5q143 0 233 79t90 193q0 53 -32 123t-97 114t-135 79l-141 67q-66 33 -130.5 73t-112.5 115t-48 156q0 172 124.5 304.5
t344.5 132.5t391 -99l-155 -166l-54 -12l33 62q10 26 10 32t-16 26.5t-47 40t-76 35t-131.5 15.5t-167 -71t-80.5 -181q0 -161 115 -221.5t156 -81.5l178 -86q110 -59 157.5 -110.5t74 -109.5t26.5 -145z" />
    <glyph glyph-name="T" unicode="T" horiz-adv-x="1193" 
d="M678 245.5q0 -65.5 1 -96.5q2 -52 19 -64t97 -22l120 -12l-100 -51h-422l37 51q12 23 21.5 45.5t9.5 115.5v348q0 347 20 810h-327q-77 0 -103 -33t-51 -71l-63 -29l83 209h1219l-109 -189l-49 -20q41 115 1 125t-70 10h-320l-14 -469l-2 -459q2 -133 2 -198.5z" />
    <glyph glyph-name="U" unicode="U" horiz-adv-x="1536" 
d="M753 -31q-140 0 -258 46t-218.5 159.5t-100.5 343.5q0 183 8 461l4 125v34l2 230h-219l154 78h371l-54 -45q-23 -18 -24 -39q-4 -12 -7 -65.5t-9.5 -167.5t-6.5 -144l-6 -205q-2 -82 -2 -210t44 -253q44 -126 150.5 -197t240.5 -71q278 0 388 223q41 80 52.5 182.5
t17.5 237.5l6 266q0 51 1 95.5t0 90.5t-3 99t-4 125h-233l157 78h254l-55 -47q-12 -12 -16.5 -23.5t-8.5 -52.5l-2 -96l-20 -596q-11 -169 -65.5 -415.5t-537.5 -246.5z" />
    <glyph glyph-name="V" unicode="V" horiz-adv-x="1409" 
d="M330 1403q-35 -35 -35 -55t9 -46t17.5 -49.5t20.5 -60.5t32.5 -95.5t53.5 -154.5l172 -465q88 -234 154 -383l96 213q228 526 288 699t73.5 213.5t21.5 69t13 49t9 36.5l-243 -8l147 80h322q-16 -12 -37 -28.5t-38 -29.5q-36 -27 -53 -62t-55 -134.5t-68 -173.5t-68 -166
t-98.5 -241t-102.5 -241t-75.5 -164.5t-49.5 -114.5t-20.5 -51t-8.5 -20q-47 -8 -78 -13t-55.5 -10t-46 -12.5t-52.5 -15.5q-274 699 -346 911t-79 232l-76 229l-13 33l-194 -8l145 80h369z" />
    <glyph glyph-name="W" unicode="W" horiz-adv-x="2217" 
d="M297 1397q-29 -29 -29 -56t35 -167t45 -181l107 -411q16 -66 34.5 -132t32.5 -122t23.5 -86.5t15.5 -54t12.5 -43t14.5 -46.5q25 63 61.5 163.5t62 168.5t60.5 164l90 254q122 360 164 524h-188l133 76h389l-47 -57q-29 -35 -29 -53q0 -19 2 -27t3 -17.5t19.5 -74
t25.5 -94t13.5 -53t16.5 -61.5t29 -106l98 -352q16 -59 34.5 -117t32.5 -110q40 -144 72 -228q33 84 55.5 140.5t41 105.5t39 102.5t49.5 131.5l127 340q20 59 38.5 117.5t35.5 110.5q57 175 69 226h-240l133 76h314l-47 -43q-50 -40 -60.5 -56t-32.5 -71l-55 -160
q-25 -70 -47 -132t-43.5 -121.5t-45.5 -122t-50 -132.5l-117 -307q-23 -57 -49 -129t-70 -158q-143 -21 -221 -47q-112 322 -191 611.5t-89 327.5t-22.5 86t-26 97.5t-24.5 90.5t-16 57q-23 -59 -48 -133t-52 -150.5t-52 -151t-51 -146.5t-57.5 -154t-59.5 -160t-54.5 -157
t-73.5 -171q-133 -19 -165 -29t-64 -18q-78 247 -109 366.5t-49.5 189t-39 147.5t-38.5 149.5t-33.5 132t-21.5 86.5t-30 120t-50 212l-191 -6l127 82h367z" />
    <glyph glyph-name="X" unicode="X" horiz-adv-x="1449" 
d="M1413 -35q-63 0 -132 30t-127 77t-107.5 105.5t-94.5 113.5l-45 59q-31 43 -55.5 78t-67 93t-98.5 143l-301 -385q-107 -137 -108 -168.5t23 -40.5t62 -10q37 -1 75 -2t77 -5l-90 -53h-438q76 41 106 67q97 82 389 459l154 205l-203 268q-83 117 -129 175
q-45 59 -64.5 84.5t-35 45t-27.5 35t-26 33.5l-201 -12l135 88h408q-16 -16 -32 -35.5t-16 -50.5t35 -78l283 -393l90 123q189 259 212 297.5t42 68.5l-254 -8l123 76h336q-43 -43 -84.5 -82t-175.5 -213l-242 -326l264 -352q159 -206 249.5 -307t207.5 -184
q-54 -19 -117 -19z" />
    <glyph glyph-name="Y" unicode="Y" horiz-adv-x="1280" 
d="M297 1378.5q0 -12.5 7 -26.5l16 -32t34 -57.5t80 -127.5l88 -134q14 -24 48 -71t52.5 -74t23.5 -34q20 -28 40 -58t23 -33l135 193q35 55 70.5 109.5t69.5 106.5q97 150 140 228h-250l140 80h327l-77 -57q-16 -14 -32.5 -27.5t-60.5 -75.5l-409 -622v-519q0 -35 7 -48
t39 -23t191 -25l-92 -51h-418l46 70q15 28 18 71v453l-184 289q-45 66 -88 130t-69 103t-95.5 135t-83.5 117h-178l143 80h354l-24 -24q-25 -25 -28 -29t-3 -16.5z" />
    <glyph glyph-name="Z" unicode="Z" horiz-adv-x="1409" 
d="M502 1444h20l918 14q-171 -249 -337.5 -460.5t-227 -288t-147 -186.5t-111.5 -140t-60 -73.5t-87.5 -106.5t-107.5 -133l578 8q276 11 382 33q107 23 173 55l-74 -68l-291 -129l-81 -2l47 41l-1082 -20q218 240 358 410.5t267 328.5l242 303q119 151 266 348l-694 -12
l-193 -139l-125 -51l273 274l75 27q-7 -21 5 -27t14 -6z" />
    <glyph glyph-name="bracketleft" unicode="[" horiz-adv-x="641" 
d="M459 1384q-54 0 -70 -49q-22 -73 -22 -397l-9 -385q-6 -109 -6 -213q0 -212 13 -227q16 -37 58.5 -48.5t190.5 -11.5l-110 -53h-311q-5 68 -5 154l11 567q2 43 5 129t7 190.5t8 213t8 192.5h412l-107 -62h-73z" />
    <glyph glyph-name="backslash" unicode="\" horiz-adv-x="854" 
d="M711 37q-10 19 -58 125t-89 195q-42 89 -80 171t-78 166l-105 213l-62 126t-51 103t-43.5 85t-50 96t-51.5 97t-35 65l148 -68q193 -362 361.5 -722.5t328.5 -713.5z" />
    <glyph glyph-name="bracketright" unicode="]" horiz-adv-x="641" 
d="M440 652q0 -80 -26 -652h-414l106 61h72q56 0 72 50q22 73 22 397l9 385q6 111 6 215q0 205 -11 227q-12 39 -68 48.5t-183 9.5l110 53h311q5 -68 5 -111t-1 -53l-2 -102q-2 -93 -3 -163.5t-2 -133t-2 -107t-1 -124.5z" />
    <glyph glyph-name="asciicircum" unicode="^" horiz-adv-x="1492" 
d="M1174 717h-156l-268 559l-275 -559h-156l369 729h129z" />
    <glyph glyph-name="underscore" unicode="_" horiz-adv-x="1024" 
d="M1044 -256h-1064v102h1064v-102z" />
    <glyph glyph-name="grave" unicode="`" 
d="M569 1075l-444 99l-139 104l440 -100z" />
    <glyph glyph-name="a" unicode="a" horiz-adv-x="894" 
d="M490 524q-18 0 -60.5 -18.5t-122.5 -78t-80 -169.5q0 -82 61 -125t153 -43q93 0 175 82q-10 31 -17 50.5t-13 41t-13.5 48t-19.5 69.5l-18 70q-10 41 -18.5 57t-26.5 16zM932 -16q-56 -7 -86 -7t-91 33t-85.5 69t-38.5 64l-96 -94q-29 -16 -92 -45t-143 -29
q-140 0 -205.5 61.5t-65.5 150.5t53 157t128 116t153.5 78.5t130.5 49.5l-31 90q-51 135 -98.5 162.5t-94.5 30.5t-116 1l149 64q68 0 133.5 -5t103.5 -31q60 -40 88.5 -105t67.5 -207l41 -146q95 -320 132.5 -374t62.5 -84z" />
    <glyph glyph-name="b" unicode="b" horiz-adv-x="1110" 
d="M352 230q0 -104 5 -125t23.5 -35.5t97.5 -14.5q80 -1 144 17q122 33 175 133.5t53 220.5q0 202 -90 295.5t-165 122.5t-131 32t-108 1l-2 -187v-25v-106zM1042 500q0 -245 -133 -342t-207 -122t-118.5 -29.5t-91.5 -6.5h-396q41 41 51.5 62.5t10.5 78.5v95l1 235
q1 235 19 905h-149l149 70h277q-54 -32 -66 -53.5t-16 -83.5l-17 -424l136 49l75 2q229 0 352 -127t123 -309z" />
    <glyph glyph-name="c" unicode="c" horiz-adv-x="811" 
d="M242 545q0 -169 102.5 -315t296.5 -146q86 0 145.5 24.5t110.5 53.5l-109 -113q-152 -76 -280 -76q-226 0 -334 151.5t-108 337.5t142.5 339t438.5 153q104 0 211 -26l-162 -164l-86 -31l74 98q-77 46 -146 46q-129 0 -212.5 -81.5t-83.5 -250.5z" />
    <glyph glyph-name="d" unicode="d" horiz-adv-x="1110" 
d="M256 518q0 -175 97.5 -317t285.5 -142q101 0 112 45.5t11 77.5v688q-54 4 -163 4t-226 -90q-117 -91 -117 -266zM954 672q-8 -340 -8 -444t4 -126t20.5 -30.5t52.5 -10.5t59.5 -3t45.5 -5l-92 -53h-450q-140 0 -251 31.5t-188 140.5q-81 109 -81 262q0 190 142 337.5
t312 155t246 7.5q12 255 8 440h-162l158 72h279q-31 -20 -48.5 -33.5t-27.5 -40.5t-10 -155z" />
    <glyph glyph-name="e" unicode="e" horiz-adv-x="894" 
d="M680 715q0 61 -62.5 116.5t-142.5 55.5t-156.5 -69t-76.5 -216q0 -27 2 -53.5t4 -54.5l373 161q29 10 44 21.5t15 38.5zM66 479q0 223 145.5 349t323.5 126q118 0 210 -58q93 -58 115.5 -120.5t28.5 -81.5l-481 -194l-158 -13q34 -187 152.5 -299t269.5 -112
q78 0 137 22.5t113 48.5l-109 -102q-122 -76 -250 -76q-129 0 -189.5 25.5t-107.5 59.5q-97 70 -148.5 187t-51.5 238z" />
    <glyph glyph-name="f" unicode="f" horiz-adv-x="598" 
d="M174 858h-115l115 70q2 35 8 93.5t46 154.5t145 176.5t192.5 87t98.5 6.5h135l-160 -88q-37 6 -79 6q-79 0 -118.5 -49.5t-46.5 -90.5q-13 -72 -16.5 -119.5t-7.5 -176.5h299l-115 -70h-184l-6 -356v-377q0 -39 10 -50.5t53 -16.5t72.5 -6t58.5 -5l-84 -47h-358
q8 10 19.5 24.5t21.5 27.5t12 30.5t4 58.5v717z" />
    <glyph glyph-name="g" unicode="g" horiz-adv-x="980" 
d="M554 -53h-32q-106 0 -215 -33q-67 -25 -121.5 -72t-54.5 -148q0 -102 97.5 -171.5t253.5 -69.5t233.5 62.5t77.5 161.5t-83 163t-141 105q-12 2 -15 2zM476 276q96 0 150 54t54 169q0 114 -70.5 237.5t-187.5 123.5q-89 0 -139 -62t-50 -135t15.5 -136.5t47.5 -119
t80 -93.5t100 -38zM715 854q145 -113 145 -264t-69.5 -215t-102.5 -88q-20 -20 -38.5 -43t-18.5 -57.5t18.5 -54t34.5 -34.5l74 -57q93 -82 132.5 -137.5t39.5 -138.5q0 -166 -145 -282t-374 -116t-344.5 85t-115.5 208q0 55 33.5 126t124.5 124q128 79 391 94
q-23 29 -42.5 60.5t-19.5 71.5t21 87q-32 -4 -90 -4t-121.5 27.5t-129 97t-65.5 197.5q0 159 131 274q88 72 185.5 92.5t181.5 20.5h422l-131 -74h-127z" />
    <glyph glyph-name="h" unicode="h" horiz-adv-x="1150" 
d="M995 562q0 -124 -10 -431v-10q0 -35 10.5 -43t19.5 -11t30.5 -6.5t46 -6.5t46 -6t31.5 -3l-86 -45h-338q29 35 38.5 53.5t9.5 59.5l8 385q2 98 -6.5 175t-59.5 123t-105 46q-151 0 -205 -85t-65 -100l-4 -479q0 -55 9 -85t57.5 -35t78 -10t38.5 -5l-70 -43h-356
q29 37 37 53.5t8 52.5l2 175q8 703 13 861t5 165v67l-162 -8l162 80h283q-43 -33 -55.5 -42t-20.5 -26t-12 -94l-6 -252l-7 -260q70 78 146 130t208 52t208 -77q55 -59 64 -125t9 -190z" />
    <glyph glyph-name="i" unicode="i" horiz-adv-x="512" 
d="M399 1212q-57 -64 -145 -135q-55 51 -79.5 83t-39.5 52q46 40 94 84l52 50l45 -56q4 -4 8 -9t8 -9zM350 125q0 -45 17.5 -55.5t64.5 -14.5l105 -8l-80 -47h-346q40 44 47.5 63t7.5 68v725h-154l138 72h245q-35 -47 -35 -105l-8 -594v-5v-26z" />
    <glyph glyph-name="j" unicode="j" horiz-adv-x="468" 
d="M215 1081q-99 107 -117 131l39 35q18 18 28.5 26.5t27.5 22.5l45 43l43 -45q8 -10 15 -17t15 -17l47 -48q-46 -51 -143 -131zM135 856h-143l131 72h250q-10 -14 -20 -27t-15 -80l-14 -715q-8 -182 -35 -286.5t-105 -257.5l-94 -101q4 12 5 25.5t10 74.5t18 259l10 442
l1 62z" />
    <glyph glyph-name="k" unicode="k" horiz-adv-x="1024" 
d="M346 483v-327q0 -53 10.5 -73t50.5 -25t67.5 -9t55.5 -8l-69 -41h-359q20 27 30.5 44t14.5 48l1 38l2 146l4 453l16 643h-162l162 74h283q-78 -52 -84 -86t-7.5 -104t-3.5 -123.5t-3 -101.5t-2 -86t-1 -52l-4 -369q61 41 102.5 67.5t76 50.5t70.5 50.5t89 65.5l70 53
q10 8 27.5 21.5t17.5 23.5t-38 14t-81 7.5t-86 7.5l82 43h342q-49 -41 -85 -69t-62.5 -49.5t-47 -36.5t-53.5 -40t-82 -59.5t-96 -71.5l-31 -24q101 -108 262 -302l70 -81q33 -35 39 -41l49 -49q43 -43 109 -105q-37 -16 -93 -16q-104 0 -176 46.5t-151 133.5l-205 246
q-41 47 -65.5 60t-55.5 13z" />
    <glyph glyph-name="l" unicode="l" horiz-adv-x="512" 
d="M160 109v333q0 453 9 655.5t11 274.5h-160l154 74h293q-71 -40 -91 -97t-20 -722v-473q0 -59 15.5 -77t54.5 -22t64.5 -5t52.5 -5l-76 -45h-363q51 65 53.5 78.5t2.5 30.5z" />
    <glyph glyph-name="m" unicode="m" horiz-adv-x="1792" 
d="M993 764q148 190 382 190q89 0 144.5 -37.5t86 -104t30.5 -206.5v-11v-59l-2 -376q0 -74 9 -83t61 -16l106 -14l-84 -47h-333q36 41 42.5 62t6.5 63l2 420q0 137 -8.5 158.5t-10.5 28.5q-9 31 -49 71.5t-106 40.5t-107 -19.5t-72.5 -47t-54 -58.5t-37.5 -51l-2 -172
q-4 -148 -4 -246v-139q2 -29 14.5 -37t59.5 -15l113 -12l-88 -47h-340q40 40 43.5 69t5.5 54l4 344q5 196 -19 258q-45 117 -170 117t-182 -76t-82 -111v-520q0 -41 9.5 -56.5t52.5 -19.5l118 -12l-88 -47h-335q45 50 48 76t3 51l2 70v665h-154l137 66h252
q-10 -10 -20 -19.5t-15 -23t-8 -113.5q76 71 119 103t109.5 55.5t168 23.5t158 -56.5t84.5 -133.5z" />
    <glyph glyph-name="n" unicode="n" horiz-adv-x="1150" 
d="M162 310q0 196 8 556h-154l138 64h245q-28 -32 -33.5 -56.5t-5.5 -99.5q78 76 120 108q109 81 237 81q86 0 149.5 -38.5t92.5 -96.5t32.5 -122.5t3.5 -130.5l-10 -421q0 -55 8 -70.5t49 -20.5l127 -14l-86 -49h-342q29 31 38 53.5t12 67.5l8 350q0 158 -7 211.5
t-44 103.5q-12 18 -43 39t-77 21q-69 0 -120 -32.5t-74 -63.5q-12 -12 -34.5 -42t-41.5 -55l-12 -483q0 -70 9.5 -87.5t58.5 -21.5l118 -12l-83 -49h-345q38 38 46 57t10 38t2 215z" />
    <glyph glyph-name="o" unicode="o" horiz-adv-x="1150" 
d="M596 35q151 0 225 104q62 82 62 243t-57.5 278.5t-123 174t-165.5 56.5q-100 1 -169 -61t-86.5 -127.5t-17.5 -136.5t19.5 -164t61.5 -175t108.5 -137t142.5 -55zM944.5 125.5q-140.5 -152.5 -376.5 -152.5t-369 149.5t-133 344.5t151 341t374 146t358.5 -144t135.5 -338
t-140.5 -346.5z" />
    <glyph glyph-name="p" unicode="p" horiz-adv-x="1110" 
d="M881 412q0 84 -29 162.5t-95.5 159.5t-172.5 81q-59 0 -101.5 -26.5t-76.5 -57.5l-56 -43q0 -25 -1 -76t-2 -117.5t-2 -139t-4 -174.5t-3 -167l106 68q148 0 292.5 24t144.5 306zM352 928v-158q177 125 229 151.5t57 26.5h36q143 0 255.5 -93t112.5 -298q0 -145 -53 -250
t-119 -165q-113 -101 -233 -127.5t-299 -26.5l-12 -369q-4 -60 9 -77t50 -21t60.5 -5t48.5 -5l-72 -48h-369q43 29 54.5 39.5t18.5 25.5t8 78.5t3 131.5t3 129t5 121l9 467l4 290q0 81 -14 98t-59 20q-44 3 -62.5 4t-36.5 5l82 56h284z" />
    <glyph glyph-name="q" unicode="q" horiz-adv-x="1110" 
d="M772 826q0 29 -49 37.5t-193.5 8.5t-210 -123t-65.5 -221q0 -202 111 -334t237.5 -134.5t165.5 -2.5l4 613v156zM553 -2q-220 0 -356 119.5t-136 325.5t163 346.5t399 140.5h401q-20 -25 -39.5 -49t-19.5 -58v-19l1 -96v-276q1 -201 -1 -272l-7 -332l-2 -234
q0 -45 10.5 -55t19.5 -13t26.5 -6t38 -6t39 -5.5t24.5 -4.5l-65 -41h-363q53 50 61 65q9 15 10 34.5t3 54.5l8 434l-137 -49q-58 -4 -78 -4z" />
    <glyph glyph-name="r" unicode="r" horiz-adv-x="768" 
d="M180 146v25l2 190l4 501h-157l139 66h248q-29 -34 -33 -55t-6 -37v-64q84 77 162 123.5t180 46.5q39 0 74 -16l-84 -209l-58 -33l17 98q-33 19 -81 19q-113 0 -210 -137l-4 -514q0 -59 18.5 -71.5t61.5 -17.5l108 -4l-76 -57h-354q34 51 41.5 77.5t7.5 68.5z" />
    <glyph glyph-name="s" unicode="s" horiz-adv-x="768" 
d="M586 817q-124 72 -184 72q-93 0 -127.5 -42.5t-34.5 -86.5q0 -70 37.5 -105.5t93.5 -56.5l145 -63q49 -27 99.5 -63t76.5 -110q36 -89 -13.5 -200.5t-157 -150t-201.5 -38.5q-184 0 -338 88l127 132l69 12l-43 -68q57 -39 112 -67.5t119 -28.5q103 0 145 46t42 94
t-14.5 76t-36 48.5t-49 34.5t-52.5 27l-145 65q-29 16 -55.5 30.5t-52.5 40.5t-44 67.5t-18 122.5t94.5 171t247.5 90q154 0 289 -61l-92 -121l-76 -31z" />
    <glyph glyph-name="t" unicode="t" horiz-adv-x="598" 
d="M366 -18q-64 0 -108.5 25.5t-68 66t-23.5 127.5l12 657h-123l123 70v143q75 27 118.5 45.5t78.5 32.5v-221h291l-107 -70h-184l-8 -377v-151q0 -150 12 -184.5t46 -73t189 -6.5l-86 -60q-10 -4 -22 -6t-44 -10t-96 -8z" />
    <glyph glyph-name="u" unicode="u" horiz-adv-x="1150" 
d="M967.5 -31q-79.5 0 -119.5 43.5t-55 100.5q-6 -4 -19.5 -14.5t-30 -20.5t-31 -21t-42.5 -29q-89 -57 -202 -57q-236 0 -298 168q-25 75 -25 259t13 460h-174l135 70h276q-36 -46 -44.5 -75t-8.5 -101l-2 -181v-135q0 -135 10 -185t44.5 -100.5t158.5 -50.5q80 0 137.5 25
t102.5 53q0 368 8 680h-156l123 70h274q-44 -49 -47.5 -86t-3.5 -68l-1 -108l-3 -437q5 -97 35 -141.5t125 -44.5q46 0 80 4l-74 -47q-4 -2 -55 -16.5t-130.5 -14.5z" />
    <glyph glyph-name="v" unicode="v" horiz-adv-x="894" 
d="M252 874q0 -10 6 -33.5t14.5 -51t15.5 -52t11 -37.5l193 -577l79 190q43 111 93 239t96 304h-203l119 72h221q-41 -58 -99.5 -219.5t-79 -217t-40 -102.5t-47.5 -116t-105 -248l-180 -54q-137 372 -200.5 569t-98.5 294l-8 22h-135l125 72h247q-24 -44 -24 -54z" />
    <glyph glyph-name="w" unicode="w" horiz-adv-x="1579" 
d="M283 853q0 -15 7 -47t16 -68t20.5 -70.5t17.5 -59.5l168 -518q20 59 63 166l68 207q4 14 15.5 52t34.5 114.5t31 103.5q7 27 11 44.5t7 29.5t5.5 23.5t6.5 27.5h-140l131 70h236q-31 -64 -31 -81q0 -18 2 -31t4 -20.5t6.5 -22.5t12.5 -43t22 -73l60 -198q16 -47 29.5 -92
t27.5 -91q37 -120 72 -186q36 83 47.5 116.5t24 67t28.5 86.5l31 101q16 53 52 171.5t58 225.5h-190l127 70h209q-12 -18 -20.5 -30.5t-16 -25.5t-18.5 -46q-12 -34 -23.5 -64.5t-21 -59l-18.5 -55.5t-25 -79q-88 -279 -203 -550l-197 -51q-10 25 -20.5 49.5t-31.5 81.5
t-66 206q-46 149 -73.5 235t-43.5 174q-38 -150 -95 -306q-57 -157 -75.5 -208.5t-36.5 -99t-33 -87.5l-199 -45q-195 562 -286 881h-138l144 80h235q-28 -60 -28 -75z" />
    <glyph glyph-name="x" unicode="x" horiz-adv-x="980" 
d="M229 91q0 -21 13.5 -26.5t35.5 -8.5t54.5 -4t64.5 -3l-86 -49h-315q43 37 69.5 59.5t54 48t63.5 63.5t102 103l133 148l-160 237q-41 59 -73.5 106.5t-69.5 94.5h-127l127 68h254q-25 -36 -25 -52.5t16 -37.5l183 -277l116 133q37 48 60 72q41 51 41 68q0 30 -55 30
l-37 -1q-37 -1 -54.5 -2t-21.5 -1l123 68h250l-47 -33q-18 -18 -47 -46t-113 -132l-176 -215l100 -148q97 -136 179 -233t120 -146q-140 0 -204 32t-112.5 77t-101.5 121l-106 160l-101 -111q-20 -23 -39.5 -45.5t-53.5 -59.5t-34 -58z" />
    <glyph glyph-name="y" unicode="y" horiz-adv-x="894" 
d="M283 928q-23 -47 -23 -69t24 -88t37 -111.5t27 -90.5l113 -336q13 -39 43 -120l84 200q115 285 148.5 382.5t47.5 164.5h-190l121 68h211q-12 -16 -20.5 -25.5t-17 -22.5t-33.5 -81q-26 -68 -52.5 -137.5t-49 -127t-43 -110.5t-120 -290t-146 -349.5t-68.5 -167.5
t-22 -70q0 -16 25 -26t129 -19l-82 -43h-246q37 37 54.5 71t33.5 64l131 277q12 27 21.5 45t15.5 31.5t12.5 27t12.5 29.5l-103 -33q-41 104 -120.5 338.5t-97.5 286.5q-18 53 -32 98t-24 74t-17.5 48.5t-15.5 43.5h-145l127 68h250z" />
    <glyph glyph-name="z" unicode="z" horiz-adv-x="854" 
d="M711 -27l-78 -24l53 57l-698 -16q37 49 59.5 78.5t39.5 53t34.5 46t42.5 57.5l215 312q49 70 84 121t64 92t81 122l-340 -8l-121 -88l-96 -31l193 193l67 14q0 -18 11 -20q6 -4 32 -4l508 12q-34 -50 -51.5 -77t-33 -49.5t-36.5 -53.5l-55 -80q-33 -51 -55.5 -86
t-55.5 -85.5t-105 -155.5q-71 -105 -92.5 -138t-40 -59.5t-35.5 -51t-38 -51.5l301 8q205 6 301 60l-28 -47z" />
    <glyph glyph-name="braceleft" unicode="{" horiz-adv-x="724" 
d="M293 969v176q4 119 16 155q44 106 180 136q12 2 24.5 3t31 3t47.5 3t74 3v-31q-85 -14 -116 -31q-60 -31 -74.5 -76t-14.5 -134v-121q0 -177 -22 -230q-22 -52 -67.5 -73t-86.5 -29q120 -27 149 -90q20 -43 23.5 -88t5.5 -135v-138q-1 -94 21 -142t73 -67.5t109 -31.5
v-31q-111 4 -181.5 14.5t-120.5 53.5t-58.5 95t-10.5 120v139q0 140 -8 180q-25 79 -72 92t-65 17v28q96 11 119.5 63.5t23.5 166.5z" />
    <glyph glyph-name="bar" unicode="|" horiz-adv-x="468" 
d="M174 -512v2048h123v-2048h-123z" />
    <glyph glyph-name="braceright" unicode="}" horiz-adv-x="724" 
d="M438 479v-176q-4 -118 -16 -156q-57 -136 -184 -140.5t-172 -6.5v31q82 14 115 30q61 30 75 76t14 135v121q0 152 6.5 178.5t15.5 50.5q18 48 58 69t96 32q-35 10 -82 29.5t-68 62.5t-23.5 88t-4.5 135v138q0 94 -22 142t-72.5 67.5t-107.5 31.5v31q111 -4 181.5 -14.5
t120.5 -53.5t58 -95t10 -120v-165q0 -166 34 -206.5t112 -56.5v-28q-97 -11 -120.5 -63.5t-23.5 -166.5z" />
    <glyph glyph-name="asciitilde" unicode="~" horiz-adv-x="1492" 
d="M1219 614q-127 -157 -243 -157q-66 0 -107.5 15t-108.5 48l-62 31q-105 51 -159 51t-76 -12t-31.5 -19.5t-21 -18.5t-26.5 -30.5t-42 -52.5l-68 113q107 161 252 161q59 0 115.5 -21.5t116.5 -49.5l65 -31q91 -41 130 -41q68 0 113.5 37.5t88.5 89.5z" />
    <glyph glyph-name="exclamdown" unicode="&#xa1;" horiz-adv-x="598" 
d="M362 832l-10 -410q0 -25 -2 -62.5t-4 -84t-5 -95.5t-5 -96l-207 -96q4 80 7 149.5t9 159.5l19 346q2 51 4 88t3 68.5t2 60.5t1 66l74 16l114 35v-145zM145 1333q20 20 48 49t106 88l32 -32q32 -32 52 -58t41 -53l-115 -100l-39 -37l-41 51z" />
    <glyph glyph-name="cent" unicode="&#xa2;" horiz-adv-x="854" 
d="M449 866q-213 -68 -213 -331q0 -89 34 -177t74.5 -129.5t81.5 -72.5q0 12 2 64t4 127t5 159t5 158.5t4.5 130t2.5 71.5zM564 952h81q110 0 203 -20l-160 -170l-84 -31l76 96q-37 23 -71 35t-93 12l-16 -481q-2 -57 -3 -97t-2 -70.5t-1 -37.5v-75q23 -10 52 -20.5
t98 -10.5t126 22.5t115 51.5l-107 -107q-10 -4 -48.5 -27t-113.5 -32.5t-122 -12.5v-38l-68 -156v194q-162 33 -261 155t-99 329t121.5 317.5t261.5 153.5v53l67 98v-139q40 8 48 8z" />
    <glyph glyph-name="sterling" unicode="&#xa3;" horiz-adv-x="1492" 
d="M307 123q240 -60 505 -60t374 56q61 33 81.5 70.5t30.5 72.5q74 6 110 11t65.5 8.5t44.5 5.5q2 -20 -1 -52t-48.5 -85.5t-127.5 -83.5q-130 -48 -344 -57t-528 -9h-428l170 123q63 50 91.5 103.5t35.5 144.5l22 311h-356l105 66h258q15 178 43.5 296t105.5 214
q78 96 196.5 153t236.5 57q174 0 268 -71q110 -87 110 -242l-213 -63q10 58 10 86q0 104 -52 163.5t-156 59.5t-183 -84q-94 -94 -113.5 -222t-25.5 -173l-16 -174h409l-98 -66h-318q-22 -229 -58 -309t-83 -135.5t-123 -114.5z" />
    <glyph glyph-name="currency" unicode="&#xa4;" horiz-adv-x="1366" 
d="M684 291q171 0 285 116t114 293t-119 288.5t-279 111.5q-161 0 -281.5 -111t-120.5 -287q0 -177 115 -294t286 -117zM1098 1016q110 -141 110 -313q0 -171 -50 -241.5t-62 -88.5l151 -154l-94 -92l-149 154q-31 -20 -62 -41t-88.5 -45.5t-144.5 -24.5q-137 0 -208 30
t-139 81l-151 -150l-92 92l151 150q-84 120 -98 192t-14 133q0 111 32 181.5t80 136.5l-149 149l92 92l149 -149q157 113 318 113t232 -48.5t94 -62.5l149 150l94 -95z" />
    <glyph glyph-name="yen" unicode="&#xa5;" horiz-adv-x="1280" 
d="M553 506h-412l121 67h291v19l-59 92h-353l121 68h189l-82 131q-45 66 -88 130t-69 103t-95.5 135t-83.5 117h-178l143 80h354q-37 -39 -46 -49t-9 -27t55 -107.5t82 -129.5l88 -134q14 -24 48 -71t52.5 -74t23.5 -34t14.5 -21.5t19.5 -28.5t18.5 -26.5t10.5 -14.5
l135 193q35 53 70.5 107.5t69.5 106.5t54.5 85.5t39 63.5t46.5 81h-250l140 80h327l-77 -57q-42 -31 -46 -37l-47 -66l-352 -536h340l-121 -68h-264l-12 -18v-93h397l-121 -67h-276v-359q0 -35 7 -48t39 -23t191 -25l-92 -51h-418l46 70q14 28 18 71v365z" />
    <glyph glyph-name="brokenbar" unicode="&#xa6;" horiz-adv-x="468" 
d="M297 1382v-716h-123v716h123zM297 358v-716h-123v716h123z" />
    <glyph glyph-name="section" unicode="&#xa7;" horiz-adv-x="980" 
d="M223 648q0 -100 76.5 -163.5t148.5 -91.5t97.5 -37.5t46 -17.5t40 -17.5t48.5 -23.5q23 20 51.5 55t28.5 92t-35 112q-35 56 -91 91t-124 63q-76 32 -130.5 52.5t-80.5 36.5q-27 -25 -51.5 -59t-24.5 -92zM735 260q148 -118 148 -255q0 -160 -114.5 -266t-311.5 -106
q-242 0 -344 160q-29 47 -35 83t-10 65l213 59q-5 -40 -5 -86q0 -101 56.5 -162t124.5 -61q111 0 167 73.5t56 152.5t-26.5 126t-74 89.5t-141.5 78.5l-135 49q-101 40 -169 101.5t-68 175.5q0 152 79.5 218t98.5 81q-8 8 -15.5 14t-13.5 14q-102 102 -102 235t109 246
t321 113q211 0 283.5 -97.5t77.5 -145.5t7 -66l-202 -55q4 32 4 75q0 94 -55.5 161t-145.5 67q-91 0 -152 -66.5t-61 -162.5t76 -179q39 -43 85 -68.5t91 -46.5l143 -59q94 -40 157.5 -97t63.5 -197.5t-180 -260.5z" />
    <glyph glyph-name="dieresis" unicode="&#xa8;" 
d="M-72 1223q34 25 142 123q56 -70 78 -93.5t40 -44.5l-26 -26q-27 -27 -42.5 -40.5t-31.5 -28t-41 -32.5q-23 20 -37 36t-26.5 30t-24.5 31.5t-31 44.5zM627 1206q-64 -64 -146 -123q-42 42 -68 80.5t-44 65.5q67 50 143 119q56 -78 115 -142z" />
    <glyph glyph-name="copyright" unicode="&#xa9;" horiz-adv-x="1705" 
d="M1516 721q0 137 -50.5 259t-137.5 212t-208 142t-262 52t-264 -52t-212 -143t-140.5 -211t-51.5 -259t53.5 -261t143.5 -211t211 -139.5t246 -50.5q246 0 430 146t213 302.5t29 213.5zM1581 722q0 -151 -55.5 -284t-153.5 -231t-231 -155.5t-283 -57.5t-282 53
t-232 150.5t-159.5 231.5t-59.5 292q0 310 212.5 520.5t516.5 210.5q158 0 291 -57.5t230.5 -156.5t151.5 -232t54 -284zM1214 541v-262l-153 -15q-159 -18 -230 -18t-124 15q-97 28 -158 76.5t-101 149.5t-40 256t49 246q47 102 148.5 149.5t228.5 47.5q18 0 34.5 -1
t42.5 -2t131 -12l142 -8l24 -270h-49q-24 106 -53 149q-28 55 -89 78t-134 23t-127 -36q-89 -59 -117.5 -151.5t-28.5 -171.5q0 -80 4 -126q32 -369 293 -369q142 0 190.5 68.5t67.5 183.5h49z" />
    <glyph glyph-name="ordfeminine" unicode="&#xaa;" horiz-adv-x="598" 
d="M172 1031q0 -99 123 -99q49 0 98 43q-16 43 -26.5 84t-20.5 77t-13 41t-23 5t-79 -47.5t-59 -103.5zM551 848q-21 0 -65 17.5t-78 76.5l-50 -49q-23 -12 -60.5 -29.5t-109.5 -17.5t-113.5 42t-41.5 147.5t282 199.5q-37 122 -70.5 142t-78.5 20t-92 -2l135 57
q129 0 164 -31.5t51 -74.5t37 -113l24 -90q51 -189 78 -225.5t49 -63.5q-40 -6 -61 -6z" />
    <glyph glyph-name="guillemotleft" unicode="&#xab;" horiz-adv-x="894" 
d="M518 184l-61 -53l-412 401l420 396l55 -56l-358 -340zM848 182l-57 -53l-416 403l418 392l55 -54l-356 -338z" />
    <glyph glyph-name="logicalnot" unicode="&#xac;" horiz-adv-x="1366" 
d="M1243 537h-1243v120h1366v-657h-123v537z" />
    <glyph glyph-name="minus" unicode="&#xad;" horiz-adv-x="1024" 
d="M1024 537h-1024v120h1024v-120z" />
    <glyph glyph-name="registered" unicode="&#xae;" horiz-adv-x="1705" 
d="M854 59q139 0 261 52.5t211 141.5t140.5 210t51.5 259t-50.5 259t-138.5 211t-210 142t-263 52t-262 -52t-211 -142t-141.5 -211t-51.5 -259t52.5 -260t142.5 -211t210 -140.5t259 -51.5zM1583 723q0 -152 -56.5 -285t-154.5 -231t-231 -155.5t-283 -57.5t-281 53
t-231 149.5t-160.5 230.5t-60.5 294t58.5 293t157.5 230t232 152.5t285 55.5t286 -57.5t231.5 -156.5t152.5 -231t55 -284zM1061 950q0 154 -184 154q-98 0 -116 -20.5t-20 -46t-2 -68.5v-160h72q73 0 121 9t88.5 42.5t40.5 89.5zM1198 391q46 0 70 113l63 -10
q-24 -102 -57.5 -168t-104.5 -66t-105 36t-51.5 94.5t-31.5 115.5q-31 127 -59 166t-113 47h-70v-248q0 -78 11.5 -95.5t33 -24.5t62.5 -13v-70q-51 4 -59 4h-103q-92 0 -190 -4v70q67 8 76 21q9 14 13.5 23t4.5 18v606q0 64 -14.5 83t-79.5 23v70q86 -4 93 -4h85l231 4
q142 0 198 -30q120 -64 120 -185t-77 -165t-147 -54q54 -16 78.5 -57.5t31.5 -67t13 -45.5l19 -80q14 -53 24.5 -80t34.5 -27z" />
    <glyph glyph-name="macron" unicode="&#xaf;" 
d="M451 1139h-476l131 73h476z" />
    <glyph glyph-name="degree" unicode="&#xb0;" horiz-adv-x="724" 
d="M361 1409q-75 0 -126 -52t-51 -126t52 -126t126 -52t126.5 52t52.5 126t-52.5 126t-127.5 52zM576 1019q-88 -89 -214 -89t-213.5 89t-87.5 212t87.5 212t213.5 89t214 -89t88 -212t-88 -212z" />
    <glyph glyph-name="plusminus" unicode="&#xb1;" horiz-adv-x="1024" 
d="M961 0h-898v121h898v-121zM575 311h-120v389h-392v121h392v389h120v-389h386v-121h-386v-389z" />
    <glyph glyph-name="twosuperior" unicode="&#xb2;" horiz-adv-x="681" 
d="M479 547q-94 -8 -208 -8t-234 18q86 86 185.5 216t160.5 231t61 180q0 78 -37.5 128t-99.5 50q-63 0 -99 -28.5t-56 -51.5l-132 -39q148 148 254 207q25 4 42.5 7t61.5 3q97 0 151.5 -58.5t54.5 -153.5t-70 -205.5t-147 -197.5t-107.5 -124t-52.5 -59q109 -15 120 -15h91
q156 0 215 39l-19 -53l-100 -117l-63 -12z" />
    <glyph glyph-name="threesuperior" unicode="&#xb3;" horiz-adv-x="681" 
d="M537 1307q0 -103 -138 -195l31 -16q31 -15 55 -37q66 -61 66 -141q0 -137 -106 -233t-261 -153l-164 -10q151 61 268.5 127.5t117.5 216.5q0 163 -213 170l40 60q80 4 127.5 55t47.5 91q0 65 -39 91.5t-83 26.5q-88 0 -147 -76l-135 -39q112 112 163.5 149.5t86.5 59.5
q36 8 81 8q47 0 99 -14t77.5 -59.5t25.5 -81.5z" />
    <glyph glyph-name="acute" unicode="&#xb4;" 
d="M424 1174l-436 -99l139 103l440 100z" />
    <glyph glyph-name="mu" unicode="&#xb5;" horiz-adv-x="1150" 
d="M561 100q108 0 232 78q0 368 8 680h-156l123 70h274q-43 -55 -46 -87t-5 -67l-4 -295l-2 -174q0 -152 30.5 -207t116.5 -55q53 0 95 4l-74 -47q-99 -31 -162 -31q-103 0 -141 42t-57 102q-6 -4 -19.5 -14.5t-30 -20.5t-31 -20t-44.5 -30t-89 -38.5t-133 -18.5t-116 41
l-2 -393q0 -65 11 -79.5t42 -17.5q30 -3 62 -6t53 -5l-72 -48h-369q56 37 63 48.5t10 21.5t4 28.5t3 54.5t2 48v49l2 275l6 436q0 180 1 207l12 227h-174l135 70h274q-37 -53 -44 -78.5t-7 -97.5l-2 -177q-4 -254 13.5 -345t93 -110.5t114.5 -19.5z" />
    <glyph glyph-name="paragraph" unicode="&#xb6;" horiz-adv-x="1366" 
d="M1087 1446v-90h-67v-1698h-94v1698h-322v-1698h-94v1018q-51 10 -110.5 27.5t-114.5 76.5q-101 108 -101 261t80 253q102 132 217 142t154 10h452z" />
    <glyph glyph-name="periodcentered" unicode="&#xb7;" horiz-adv-x="512" 
d="M393 535q-55 -61 -151 -140q-18 18 -41.5 39.5t-85.5 100.5l55 49l96 92l45 -55l33 -37z" />
    <glyph glyph-name="periodcentered" unicode="&#x2219;" horiz-adv-x="512" 
d="M393 535q-55 -61 -151 -140q-18 18 -41.5 39.5t-85.5 100.5l55 49l96 92l45 -55l33 -37z" />
    <glyph glyph-name="cedilla" unicode="&#xb8;" 
d="M416 -293q0 -98 -70 -188q-6 -6 -30 -34.5t-46 -39.5l-131 -57q146 114 146 218t-55.5 130t-75.5 37q51 74 137 245h84l-68 -135q16 -7 38 -23t46.5 -60t24.5 -93z" />
    <glyph glyph-name="onesuperior" unicode="&#xb9;" horiz-adv-x="681" 
d="M295 1198l1 20l1 89l-72 -45l-119 -27l11 29q61 37 100 60.5t73 45t73.5 49t105.5 72.5l-18 -59q-4 -20 -7.5 -34t-3.5 -40l-16 -713q0 -31 8 -38t39 -11l90 -8l-76 -45h-241q27 33 33 44t8 36z" />
    <glyph glyph-name="ordmasculine" unicode="&#xba;" horiz-adv-x="724" 
d="M375 899q87 0 127 53q41 53 41 148t-34 166t-72 106t-95 35q-88 0 -125 -59.5t-37 -115.5t11.5 -111.5t36 -104.5t63.5 -83t84 -34zM127 936.5q-86 92.5 -86 216.5t94.5 216.5t235.5 92.5t227 -90t86 -215t-90 -219t-235.5 -94t-231.5 92.5z" />
    <glyph glyph-name="guillemotright" unicode="&#xbb;" horiz-adv-x="894" 
d="M377 872l61 54l414 -402l-420 -395l-55 55l358 340zM49 874l55 54l418 -404l-416 -391l-59 53l359 338z" />
    <glyph glyph-name="onequarter" unicode="&#xbc;" horiz-adv-x="1622" 
d="M1366 1470q-171 -215 -481 -700q-61 -96 -122 -189.5t-121 -187.5t-97 -151.5t-61.5 -96.5t-44 -70.5t-46.5 -74.5l-100 -25q8 14 15 26.5t41 64.5t90.5 146t120.5 196q283 457 693 1042zM295 1198l1 20l1 89l-72 -45l-119 -27l11 29q61 37 100 60.5t73 45t73.5 49
t105.5 72.5l-18 -59q-4 -20 -7.5 -34t-3.5 -40l-16 -713q0 -31 8 -38t39 -11l90 -8l-76 -45h-241q27 33 33 44t8 36zM1321 786q-41 -68 -95 -156t-145 -253h228zM1487 373q33 0 64.5 1t64.5 1l-143 -111q-14 2 -23.5 2t-19.5 2v-164q0 -35 4 -42t32 -11l82 -6l-61 -45h-213
q33 59 33 90l2 180l-133 1q-132 1 -230 -3q45 80 52 92l48 84q41 72 59.5 101.5t78.5 128.5t141 221l125 27q-4 -40 -6 -103t-4 -110l-8 -336h55z" />
    <glyph glyph-name="onehalf" unicode="&#xbd;" horiz-adv-x="1622" 
d="M1417 6q-90 -8 -214 -8t-230 18q68 65 133 148q65 84 109.5 141t105.5 156.5t61 176.5q0 78 -34 130.5t-100 52.5t-102 -29.5t-56 -52.5l-132 -37q109 109 163.5 148t90.5 59q25 4 42.5 7.5t61.5 3.5q98 0 152 -59t54 -154q0 -94 -70 -206t-207 -268q-29 -29 -61 -66
t-41 -46q116 -15 127 -15h86q134 0 168.5 15.5t46.5 21.5l-19 -51l-100 -117l-63 -12zM1368 1470q-104 -131 -209 -288q-106 -158 -162.5 -241t-114.5 -174t-119 -185.5t-121 -188.5t-97 -150.5t-61.5 -95t-44 -70.5t-46.5 -75l-100 -25q8 12 15 24.5t41 66.5t90.5 146
t120.5 194q228 367 693 1044zM295 1200l1 20l1 89l-72 -47l-119 -27l11 29q61 37 130.5 79t221.5 150l-18 -61q-4 -20 -7.5 -34t-3.5 -40l-16 -711q0 -33 8 -40t39 -11l90 -8l-76 -45h-241q27 33 33 44t8 36z" />
    <glyph glyph-name="threequarters" unicode="&#xbe;" horiz-adv-x="1622" 
d="M1368 1470q-104 -131 -209 -288q-106 -158 -162.5 -242t-114.5 -174t-120 -184.5t-121 -188.5t-96 -151.5t-61.5 -96.5t-44 -70.5t-46.5 -74.5l-102 -25q14 25 53 84q39 60 94.5 153.5t119.5 195.5q318 505 695 1042zM537 1307q0 -103 -138 -195l31 -16q31 -15 55 -37
q66 -61 66 -141q0 -138 -108 -234t-259 -149l-164 -11q151 61 268.5 127.5t117.5 216.5q0 161 -213 168l40 60q116 6 145.5 71t29.5 91q0 50 -39 76t-83 26q-88 0 -147 -76l-135 -37q104 104 159.5 144.5t90.5 62.5q36 8 81 8q47 0 99 -14t77.5 -59.5t25.5 -81.5zM1321 786
q-41 -68 -95 -156t-145 -253h228zM1487 373q33 0 64.5 1t64.5 1l-143 -111q-14 2 -23.5 2t-19.5 2v-164q0 -35 4 -42t32 -11l82 -6l-61 -45h-213q33 59 33 90l2 180l-133 1q-132 1 -230 -3q45 80 52 92l48 84q41 72 59.5 101.5t78.5 128.5t141 221l125 27q-4 -40 -6 -103
t-4 -110l-8 -336h55z" />
    <glyph glyph-name="questiondown" unicode="&#xbf;" horiz-adv-x="937" 
d="M207 264q0 -58 10 -78q64 -139 217 -139q96 1 158 59t78 110t22 91l215 37q-4 -43 -15.5 -90t-63.5 -107t-156.5 -112.5t-263.5 -52.5q-283 0 -345.5 110.5t-62.5 171.5q0 102 46.5 170.5t125.5 132.5l64 49q68 61 89 117.5t33 198.5l82 16l140 37q-11 -167 -55 -238
t-83 -108t-84 -76q-80 -80 -103.5 -118.5t-35.5 -80.5t-12 -100zM338 1329q18 20 31.5 35.5t29 29t37 31t53.5 45.5q14 -16 40 -39t87 -102l-153 -141l-43 53z" />
    <glyph glyph-name="Agrave" unicode="&#xc0;" horiz-adv-x="1536" 
d="M934 1546l-445 96l-139 105l441 -98zM840 635q49 4 73.5 5t53.5 3q-28 77 -97 231t-104 225.5t-49 102.5q-39 -90 -65.5 -152.5t-54.5 -121.5t-75.5 -154.5t-62.5 -136.5zM1612 0q-78 -20 -147 -20t-131 39q-98 62 -144.5 136t-91.5 179l-121 282q-92 -25 -116.5 -36
t-45.5 -19h-326q-35 0 -49 -6t-30 -25l-179 -329l-7 -17q-7 -18 -7 -38t29 -31q59 -36 219 -62l-172 -53q-115 -4 -171 17.5t-93 43.5q96 126 161.5 231t163.5 310l76 160q64 123 101 208t59 135q56 123 74 183q-37 87 -124 89.5t-124 0.5l131 54l287 20q35 -79 91 -197.5
t71 -153.5q15 -34 35 -80t41.5 -95t41 -95.5t35.5 -82.5l80 -183q121 -263 180 -351.5t102 -130.5t101 -83z" />
    <glyph glyph-name="Aacute" unicode="&#xc1;" horiz-adv-x="1536" 
d="M1059 1645l-436 -99l139 103l440 100zM840 635q49 4 73.5 5t53.5 3q-28 77 -97 231t-104 225.5t-49 102.5q-39 -90 -65.5 -152.5t-54.5 -121.5t-75.5 -154.5t-62.5 -136.5zM1612 0q-78 -20 -147 -20t-131 39q-98 62 -144.5 136t-91.5 179l-121 282q-92 -25 -116.5 -36
t-45.5 -19h-326q-35 0 -49 -6t-30 -25l-179 -329l-7 -17q-7 -18 -7 -38t29 -31q59 -36 219 -62l-172 -53q-115 -4 -171 17.5t-93 43.5q96 126 161.5 231t163.5 310l76 160q64 123 101 208t59 135q56 123 74 183q-37 87 -124 89.5t-124 0.5l131 54l287 20q35 -79 91 -197.5
t71 -153.5q15 -34 35 -80t41.5 -95t41 -95.5t35.5 -82.5l80 -183q121 -263 180 -351.5t102 -130.5t101 -83z" />
    <glyph glyph-name="Acircumflex" unicode="&#xc2;" horiz-adv-x="1536" 
d="M1063 1618l-105 -47l-204 96l-318 -115l182 138l164 59zM840 635q49 4 73.5 5t53.5 3q-28 77 -97 231t-104 225.5t-49 102.5q-39 -90 -65.5 -152.5t-54.5 -121.5t-75.5 -154.5t-62.5 -136.5zM1612 0q-78 -20 -147 -20t-131 39q-98 62 -144.5 136t-91.5 179l-121 282
q-92 -25 -116.5 -36t-45.5 -19h-326q-35 0 -49 -6t-30 -25l-179 -329l-7 -17q-7 -18 -7 -38t29 -31q59 -36 219 -62l-172 -53q-115 -4 -171 17.5t-93 43.5q96 126 161.5 231t163.5 310l76 160q64 123 101 208t59 135q56 123 74 183q-37 87 -124 89.5t-124 0.5l131 54l287 20
q35 -79 91 -197.5t71 -153.5q15 -34 35 -80t41.5 -95t41 -95.5t35.5 -82.5l80 -183q121 -263 180 -351.5t102 -130.5t101 -83z" />
    <glyph glyph-name="Atilde" unicode="&#xc3;" horiz-adv-x="1536" 
d="M868.5 1596q-14.5 -1 -30.5 -1q-16 1 -90 15t-134 14q-61 0 -98 -15.5t-82 -41.5l170 123q31 6 64 6t107 -12q73 -12 136 -13q63 0 172 39l-141 -104q-12 -6 -35.5 -7.5t-38 -2.5zM840 635q49 4 73.5 5t53.5 3q-28 77 -97 231t-104 225.5t-49 102.5q-39 -90 -65.5 -152.5
t-54.5 -121.5t-75.5 -154.5t-62.5 -136.5zM1612 0q-78 -20 -147 -20t-131 39q-98 62 -144.5 136t-91.5 179l-121 282q-92 -25 -116.5 -36t-45.5 -19h-326q-35 0 -49 -6t-30 -25l-179 -329l-7 -17q-7 -18 -7 -38t29 -31q59 -36 219 -62l-172 -53q-115 -4 -171 17.5t-93 43.5
q96 126 161.5 231t163.5 310l76 160q64 123 101 208t59 135q56 123 74 183q-37 87 -124 89.5t-124 0.5l131 54l287 20q35 -79 91 -197.5t71 -153.5q15 -34 35 -80t41.5 -95t41 -95.5t35.5 -82.5l80 -183q121 -263 180 -351.5t102 -130.5t101 -83z" />
    <glyph glyph-name="Adieresis" unicode="&#xc4;" horiz-adv-x="1536" 
d="M557 1817q59 -73 119 -140l-26 -27q-27 -26 -42.5 -38.5t-31.5 -27t-41 -32.5q-50 43 -75.5 79t-43.5 61q62 50 141 125zM1114 1677q-66 -66 -145 -123q-59 59 -113 146q53 39 143 117q37 -51 115 -140zM840 635q49 4 73.5 5t53.5 3q-28 77 -97 231t-104 225.5t-49 102.5
q-39 -90 -65.5 -152.5t-54.5 -121.5t-75.5 -154.5t-62.5 -136.5zM1612 0q-78 -20 -147 -20t-131 39q-98 62 -144.5 136t-91.5 179l-121 282q-92 -25 -116.5 -36t-45.5 -19h-326q-35 0 -49 -6t-30 -25l-179 -329l-7 -17q-7 -18 -7 -38t29 -31q59 -36 219 -62l-172 -53
q-115 -4 -171 17.5t-93 43.5q96 126 161.5 231t163.5 310l76 160q64 123 101 208t59 135q56 123 74 183q-37 87 -124 89.5t-124 0.5l131 54l287 20q35 -79 91 -197.5t71 -153.5q15 -34 35 -80t41.5 -95t41 -95.5t35.5 -82.5l80 -183q121 -263 180 -351.5t102 -130.5t101 -83
z" />
    <glyph glyph-name="Aring" unicode="&#xc5;" horiz-adv-x="1536" 
d="M868 1655q0 41 -27.5 73.5t-74.5 32.5t-75.5 -33.5t-28.5 -72.5t29.5 -72t73.5 -33t73.5 32t29.5 73zM918 1655q0 -59 -44 -105.5t-110 -46.5t-109 46.5t-43 104.5t42 106t112 48t111 -47t41 -106zM840 635q49 4 73.5 5t53.5 3q-28 77 -97 231t-104 225.5t-49 102.5
q-39 -90 -65.5 -152.5t-54.5 -121.5t-75.5 -154.5t-62.5 -136.5zM1612 0q-78 -20 -147 -20t-131 39q-98 62 -144.5 136t-91.5 179l-121 282q-92 -25 -116.5 -36t-45.5 -19h-326q-35 0 -49 -6t-30 -25l-179 -329l-7 -17q-7 -18 -7 -38t29 -31q59 -36 219 -62l-172 -53
q-115 -4 -171 17.5t-93 43.5q96 126 161.5 231t163.5 310l76 160q64 123 101 208t59 135q56 123 74 183q-37 87 -124 89.5t-124 0.5l131 54l287 20q35 -79 91 -197.5t71 -153.5q15 -34 35 -80t41.5 -95t41 -95.5t35.5 -82.5l80 -183q121 -263 180 -351.5t102 -130.5t101 -83
z" />
    <glyph glyph-name="AE" unicode="&#xc6;" horiz-adv-x="1878" 
d="M981 645l8 293q6 222 10 301q-10 -14 -27.5 -37t-111.5 -160t-295 -403h293l36 1q37 1 87 5zM1522 711q0 16 -29 16h-236q-39 -2 -50 -15.5t-11 -52.5v-456q0 -43 4 -70t36.5 -47t168.5 -20q203 0 271 15t141 50l108 35l-188 -166h-834q55 63 66.5 89t11.5 91v441
q-116 -28 -176 -58h-225q-47 0 -66 -10.5t-47 -42.5q-35 -45 -59.5 -77t-48 -60.5t-49 -59.5t-67.5 -83t-42 -76q0 -54 106.5 -71t141.5 -24l-183 -59q-51 2 -120.5 11t-149.5 65q298 312 706 885l289 415h-209l152 70h862l-133 -121l-55 -14q6 10 11 19t10 14t5 15.5
t-18 10.5l-41 1l-166 3l-190 2l-13 -274q-2 -35 -2 -44l-2 -60l-4 -203h475l-119 -111l-55 -14q23 38 23 41z" />
    <glyph glyph-name="Ccedilla" unicode="&#xc7;" horiz-adv-x="1366" 
d="M928 -293q0 -98 -70 -188q-25 -31 -76 -74l-131 -57q146 114 146 218t-55.5 130t-75.5 37q74 105 114 202q-140 16 -243 54q-103 39 -189 115.5t-169 215t-83 349.5q0 141 54.5 279t156 246.5t246.5 175.5t305 67t285 -36t191.5 -81t99.5 -72l-154 -149l-63 -6l55 77
q-84 91 -171.5 146t-208.5 55q-238 0 -407.5 -167.5t-169.5 -448.5q0 -123 41 -254t128 -238.5t221.5 -177.5t320.5 -70q111 0 186.5 22.5t141.5 49.5l-97 -82q-44 -16 -131 -43t-264 -33l-43 -86q6 -4 12.5 -7.5t26.5 -17.5t45 -58t25 -93z" />
    <glyph glyph-name="Egrave" unicode="&#xc8;" horiz-adv-x="1067" 
d="M784 1546l-444 96l-139 105l440 -98zM725 731h-240q-31 0 -47 -10t-14 -49v-467q0 -82 15 -98q37 -41 194 -41t237 12t170 55l111 37l-186 -170h-830q52 60 63 87t11 95q0 679 24 1192h-219l148 72h852l-131 -121l-54 -14q29 36 29 47q0 10 -16 12q-32 4 -60 4h-338
l-20 -573h473l-119 -113l-55 -16l25 45q0 14 -23 14z" />
    <glyph glyph-name="Eacute" unicode="&#xc9;" horiz-adv-x="1067" 
d="M823 1645l-436 -99l139 103l441 100zM725 731h-240q-31 0 -47 -10t-14 -49v-467q0 -82 15 -98q37 -41 194 -41t237 12t170 55l111 37l-186 -170h-830q52 60 63 87t11 95q0 679 24 1192h-219l148 72h852l-131 -121l-54 -14q29 36 29 47q0 10 -16 12q-32 4 -60 4h-338
l-20 -573h473l-119 -113l-55 -16l25 45q0 14 -23 14z" />
    <glyph glyph-name="Ecircumflex" unicode="&#xca;" horiz-adv-x="1067" 
d="M870 1618l-104 -47l-205 96l-317 -115l182 138l164 59zM725 731h-240q-31 0 -47 -10t-14 -49v-467q0 -82 15 -98q37 -41 194 -41t237 12t170 55l111 37l-186 -170h-830q52 60 63 87t11 95q0 679 24 1192h-219l148 72h852l-131 -121l-54 -14q29 36 29 47q0 10 -16 12
q-32 4 -60 4h-338l-20 -573h473l-119 -113l-55 -16l25 45q0 14 -23 14z" />
    <glyph glyph-name="Edieresis" unicode="&#xcb;" horiz-adv-x="1067" 
d="M360 1817q14 -17 119 -140l-27 -27q-26 -26 -41.5 -38.5t-31.5 -27t-41 -32.5q-23 20 -37 36t-26.5 30t-24.5 31.5t-31 42.5q62 50 141 125zM659 1700q23 17 144 117q50 -69 115 -140q-64 -64 -146 -123q-50 50 -113 146zM725 731h-240q-31 0 -47 -10t-14 -49v-467
q0 -82 15 -98q37 -41 194 -41t237 12t170 55l111 37l-186 -170h-830q52 60 63 87t11 95q0 679 24 1192h-219l148 72h852l-131 -121l-54 -14q29 36 29 47q0 10 -16 12q-32 4 -60 4h-338l-20 -573h473l-119 -113l-55 -16l25 45q0 14 -23 14z" />
    <glyph glyph-name="Igrave" unicode="&#xcc;" horiz-adv-x="641" 
d="M485 1546l-444 96l-139 105l440 -98zM453 1362.5q0 -12.5 -2 -50.5t-4.5 -89.5t-4.5 -105.5t-3 -106.5t-3 -92.5l-8 -304q-4 -136 -4 -268v-131q0 -95 9 -115t25.5 -26t45.5 -8l151 -17l-88 -49h-432q70 85 73 109t5 47q0 858 20 1218h-206l135 72h370l-51 -43
q-28 -28 -28 -40.5z" />
    <glyph glyph-name="Iacute" unicode="&#xcd;" horiz-adv-x="641" 
d="M610 1645l-436 -99l139 103l441 100zM453 1362.5q0 -12.5 -2 -50.5t-4.5 -89.5t-4.5 -105.5t-3 -106.5t-3 -92.5l-8 -304q-4 -136 -4 -268v-131q0 -95 9 -115t25.5 -26t45.5 -8l151 -17l-88 -49h-432q70 85 73 109t5 47q0 858 20 1218h-206l135 72h370l-51 -43
q-28 -28 -28 -40.5z" />
    <glyph glyph-name="Icircumflex" unicode="&#xce;" horiz-adv-x="641" 
d="M637 1618l-105 -47l-204 96l-318 -115l183 138l163 59zM453 1362.5q0 -12.5 -2 -50.5t-4.5 -89.5t-4.5 -105.5t-3 -106.5t-3 -92.5l-8 -304q-4 -136 -4 -268v-131q0 -95 9 -115t25.5 -26t45.5 -8l151 -17l-88 -49h-432q70 85 73 109t5 47q0 858 20 1218h-206l135 72h370
l-51 -43q-28 -28 -28 -40.5z" />
    <glyph glyph-name="Idieresis" unicode="&#xcf;" horiz-adv-x="641" 
d="M127 1817q59 -73 119 -140l-26 -27q-27 -26 -42.5 -38.5t-32 -27t-41.5 -32.5q-47 41 -73.5 78t-44.5 62q33 26 141 125zM684 1677q-66 -66 -145 -123q-59 59 -113 146q53 39 143 117q37 -51 115 -140zM453 1362.5q0 -12.5 -2 -50.5t-4.5 -89.5t-4.5 -105.5t-3 -106.5
t-3 -92.5l-8 -304q-4 -136 -4 -268v-131q0 -95 9 -115t25.5 -26t45.5 -8l151 -17l-88 -49h-432q70 85 73 109t5 47q0 858 20 1218h-206l135 72h370l-51 -43q-28 -28 -28 -40.5z" />
    <glyph glyph-name="Eth" unicode="&#xd0;" horiz-adv-x="1579" 
d="M426 489q0 -248 11.5 -295t30.5 -70.5t76 -49.5q57 -27 181 -27t203.5 27.5t149 78t123.5 143.5q81 140 81 330t-62 342t-141.5 230t-192 128t-321.5 50q-71 0 -125 -4l-12 -405l-2 -185h508l-117 -82h-391v-211zM571 1446q239 0 417 -37.5t317 -169.5q80 -76 138 -200
t58 -304t-123 -426.5t-388 -291t-464 -44.5t-364 25l33 59q20 38 20 86v557h-197l86 82h111q2 66 2 83l2 138l6 375l-176 -8l113 76h409z" />
    <glyph glyph-name="Ntilde" unicode="&#xd1;" horiz-adv-x="1835" 
d="M896 1610q-72 14 -133 14q-60 0 -97 -15.5t-82 -41.5l170 123q31 6 65 6t96 -13q82 -12 145 -12t173 39l-141 -104q-12 -6 -36 -7.5t-38 -2.5t-32 -1q-18 1 -90 15zM295 741q0 -565 9 -609t35 -58.5t175 -22.5l-78 -51h-309l47 47q16 16 22.5 28.5t10.5 47.5l6 297v108
l-6 738q0 72 -23.5 93t-83.5 21t-116 -8l143 76h256l156 -148q41 -43 118.5 -121.5t391 -408.5t505.5 -567l11 495q2 145 2 259t-2 237l-6 188l-234 -8l121 74h270q-16 -10 -23 -14t-15 -16q-17 -25 -22 -48.5t-6 -85.5t-1 -112t-2 -99v-981l32 -41q-83 -35 -198 -84
q-268 307 -328 371q-59 65 -104 114.5t-105.5 116t-133.5 143t-217.5 230t-200.5 206t-59 55.5l-38 38v-500z" />
    <glyph glyph-name="Ograve" unicode="&#xd2;" horiz-adv-x="1792" 
d="M1061 1546l-445 96l-139 105l441 -98zM1244 1257.5q-160 149.5 -392 149.5q-231 0 -394 -167t-163 -445q0 -141 47 -276.5t132 -240t204 -169t262 -64.5q82 0 179.5 32t179 104.5t137 193.5t55.5 275t-28 251q-59 207 -219 356.5zM1714 754q0 -152 -58.5 -294.5
t-167 -251t-264 -174t-344.5 -65.5t-338 61.5t-251.5 164t-157.5 235t-55 274.5t53 279t159.5 246.5t265 178.5t352.5 69t339.5 -56.5t248.5 -155t160.5 -229t57.5 -282.5z" />
    <glyph glyph-name="Oacute" unicode="&#xd3;" horiz-adv-x="1792" 
d="M1186 1645l-436 -99l139 103l440 100zM1244 1257.5q-160 149.5 -392 149.5q-231 0 -394 -167t-163 -445q0 -141 47 -276.5t132 -240t204 -169t262 -64.5q82 0 179.5 32t179 104.5t137 193.5t55.5 275t-28 251q-59 207 -219 356.5zM1714 754q0 -152 -58.5 -294.5
t-167 -251t-264 -174t-344.5 -65.5t-338 61.5t-251.5 164t-157.5 235t-55 274.5t53 279t159.5 246.5t265 178.5t352.5 69t339.5 -56.5t248.5 -155t160.5 -229t57.5 -282.5z" />
    <glyph glyph-name="Ocircumflex" unicode="&#xd4;" horiz-adv-x="1792" 
d="M1190 1618l-105 -47l-204 96l-318 -115l182 138l164 59zM1244 1257.5q-160 149.5 -392 149.5q-231 0 -394 -167t-163 -445q0 -141 47 -276.5t132 -240t204 -169t262 -64.5q82 0 179.5 32t179 104.5t137 193.5t55.5 275t-28 251q-59 207 -219 356.5zM1714 754
q0 -152 -58.5 -294.5t-167 -251t-264 -174t-344.5 -65.5t-338 61.5t-251.5 164t-157.5 235t-55 274.5t53 279t159.5 246.5t265 178.5t352.5 69t339.5 -56.5t248.5 -155t160.5 -229t57.5 -282.5z" />
    <glyph glyph-name="Otilde" unicode="&#xd5;" horiz-adv-x="1792" 
d="M995.5 1596q-14.5 -1 -30.5 -1q-16 1 -90 15t-134 14q-61 0 -98 -15.5t-82 -41.5l170 123q31 6 64 6t106 -12q74 -12 137 -13q63 0 172 39l-141 -104q-12 -6 -35.5 -7.5t-38 -2.5zM1244 1257.5q-160 149.5 -392 149.5q-231 0 -394 -167t-163 -445q0 -141 47 -276.5
t132 -240t204 -169t262 -64.5q82 0 179.5 32t179 104.5t137 193.5t55.5 275t-28 251q-59 207 -219 356.5zM1714 754q0 -152 -58.5 -294.5t-167 -251t-264 -174t-344.5 -65.5t-338 61.5t-251.5 164t-157.5 235t-55 274.5t53 279t159.5 246.5t265 178.5t352.5 69t339.5 -56.5
t248.5 -155t160.5 -229t57.5 -282.5z" />
    <glyph glyph-name="Odieresis" unicode="&#xd6;" horiz-adv-x="1792" 
d="M686 1817q59 -73 119 -140l-27 -27q-26 -26 -41.5 -38.5t-31.5 -27t-41 -32.5q-50 43 -75.5 79t-43.5 61q62 50 141 125zM1243 1677q-66 -66 -145 -123q-50 50 -113 146q53 39 143 117q37 -51 115 -140zM1244 1257.5q-160 149.5 -392 149.5q-231 0 -394 -167t-163 -445
q0 -141 47 -276.5t132 -240t204 -169t262 -64.5q82 0 179.5 32t179 104.5t137 193.5t55.5 275t-28 251q-59 207 -219 356.5zM1714 754q0 -152 -58.5 -294.5t-167 -251t-264 -174t-344.5 -65.5t-338 61.5t-251.5 164t-157.5 235t-55 274.5t53 279t159.5 246.5t265 178.5
t352.5 69t339.5 -56.5t248.5 -155t160.5 -229t57.5 -282.5z" />
    <glyph glyph-name="multiply" unicode="&#xd7;" horiz-adv-x="1024" 
d="M901 293l-86 -86l-303 303l-303 -303l-86 86l303 303l-303 303l86 86l303 -303l303 303l86 -86l-303 -303z" />
    <glyph glyph-name="Oslash" unicode="&#xd8;" horiz-adv-x="1792" 
d="M299 797q0 -266 143 -459l891 817q-41 57 -102 109q-171 145 -382 145t-380.5 -153.5t-169.5 -458.5zM948 43q117 0 218.5 48t215 179.5t113.5 386.5t-119 428l-889 -819q16 -16 25 -28q176 -195 436 -195zM1714 720q0 -116 -54 -255t-160.5 -250t-261.5 -178.5
t-332 -67.5t-295 38q-117 38 -176.5 77t-88.5 61l-125 -106l-149 -35l217 201q-92 103 -151.5 216t-59.5 280q0 166 59.5 305t170 243.5t267 166t351.5 61.5q256 0 377.5 -76t169.5 -113l133 117l129 33l-211 -211q83 -105 118 -176.5t53.5 -143t18.5 -187.5z" />
    <glyph glyph-name="Ugrave" unicode="&#xd9;" horiz-adv-x="1536" 
d="M934 1546l-445 96l-139 105l441 -98zM753 -31q-140 0 -258 46t-218.5 159.5t-100.5 343.5q0 183 8 461l4 125v34l2 230h-219l154 78h371l-54 -45q-23 -18 -24 -39q-4 -12 -7 -65.5t-9.5 -167.5t-6.5 -144l-6 -205q-2 -82 -2 -210t44 -253q44 -126 150.5 -197t240.5 -71
q278 0 388 223q41 80 52.5 182.5t17.5 237.5l6 266q0 51 1 95.5t0 90.5t-3 99t-4 125h-233l157 78h254l-55 -47q-12 -12 -16.5 -23.5t-8.5 -52.5l-2 -96l-20 -596q-11 -169 -65.5 -415.5t-537.5 -246.5z" />
    <glyph glyph-name="Uacute" unicode="&#xda;" horiz-adv-x="1536" 
d="M1059 1645l-436 -99l139 103l440 100zM753 -31q-140 0 -258 46t-218.5 159.5t-100.5 343.5q0 183 8 461l4 125v34l2 230h-219l154 78h371l-54 -45q-23 -18 -24 -39q-4 -12 -7 -65.5t-9.5 -167.5t-6.5 -144l-6 -205q-2 -82 -2 -210t44 -253q44 -126 150.5 -197t240.5 -71
q278 0 388 223q41 80 52.5 182.5t17.5 237.5l6 266q0 51 1 95.5t0 90.5t-3 99t-4 125h-233l157 78h254l-55 -47q-12 -12 -16.5 -23.5t-8.5 -52.5l-2 -96l-20 -596q-11 -169 -65.5 -415.5t-537.5 -246.5z" />
    <glyph glyph-name="Ucircumflex" unicode="&#xdb;" horiz-adv-x="1536" 
d="M1106 1618l-105 -47l-204 96l-318 -115l183 138l163 59zM753 -31q-140 0 -258 46t-218.5 159.5t-100.5 343.5q0 183 8 461l4 125v34l2 230h-219l154 78h371l-54 -45q-23 -18 -24 -39q-4 -12 -7 -65.5t-9.5 -167.5t-6.5 -144l-6 -205q-2 -82 -2 -210t44 -253
q44 -126 150.5 -197t240.5 -71q278 0 388 223q41 80 52.5 182.5t17.5 237.5l6 266q0 51 1 95.5t0 90.5t-3 99t-4 125h-233l157 78h254l-55 -47q-12 -12 -16.5 -23.5t-8.5 -52.5l-2 -96l-20 -596q-11 -169 -65.5 -415.5t-537.5 -246.5z" />
    <glyph glyph-name="Udieresis" unicode="&#xdc;" horiz-adv-x="1536" 
d="M467 1692q62 50 141 125q61 -76 81 -97.5t38 -42.5l-27 -27q-26 -26 -41.5 -38.5t-31.5 -27t-41 -32.5q-23 20 -37 36t-26.5 30t-25 31.5t-30.5 42.5zM1165 1677q-66 -66 -145 -123q-50 50 -113 146q55 41 75.5 59t68.5 58q41 -57 114 -140zM753 -31q-140 0 -258 46
t-218.5 159.5t-100.5 343.5q0 183 8 461l4 125v34l2 230h-219l154 78h371l-54 -45q-23 -18 -24 -39q-4 -12 -7 -65.5t-9.5 -167.5t-6.5 -144l-6 -205q-2 -82 -2 -210t44 -253q44 -126 150.5 -197t240.5 -71q278 0 388 223q41 80 52.5 182.5t17.5 237.5l6 266q0 51 1 95.5
t0 90.5t-3 99t-4 125h-233l157 78h254l-55 -47q-12 -12 -16.5 -23.5t-8.5 -52.5l-2 -96l-20 -596q-11 -169 -65.5 -415.5t-537.5 -246.5z" />
    <glyph glyph-name="Yacute" unicode="&#xdd;" horiz-adv-x="1280" 
d="M930 1645l-436 -99l139 103l440 100zM297 1378.5q0 -12.5 7 -26.5l16 -32t34 -57.5t80 -127.5l88 -134q14 -24 48 -71t52.5 -74t23.5 -34q20 -28 40 -58t23 -33l135 193q35 55 70.5 109.5t69.5 106.5q97 150 140 228h-250l140 80h327l-77 -57q-16 -14 -32.5 -27.5
t-60.5 -75.5l-409 -622v-519q0 -35 7 -48t39 -23t191 -25l-92 -51h-418l46 70q15 28 18 71v453l-184 289q-45 66 -88 130t-69 103t-95.5 135t-83.5 117h-178l143 80h354l-24 -24q-25 -25 -28 -29t-3 -16.5z" />
    <glyph glyph-name="Thorn" unicode="&#xde;" horiz-adv-x="1067" 
d="M438 1182h176q61 0 145.5 -10.5t161.5 -61.5q136 -90 136 -245t-103.5 -243t-244.5 -147l-217 -39q124 37 188 85q151 111 151 275q0 163 -99 242.5t-186 79.5t-110 -2l-2 -84q-6 -252 -6 -318v-526q0 -81 11.5 -96.5t30.5 -20.5t56 -8l152 -8l-107 -55h-432l51 66
q25 36 25 72v18l-1 82l-1 225q0 320 8 584l8 325l-213 -8l156 82h352l-53 -45q-23 -17 -28 -66q-5 -48 -5 -153z" />
    <glyph glyph-name="germandbls" unicode="&#xdf;" horiz-adv-x="1067" 
d="M651 901q88 108 88 243q0 96 -61.5 161t-147.5 65q-124 0 -168 -127q-26 -87 -30 -364v-397q0 -396 14 -409.5t74 -17.5l108 -8l-79 -47h-363q18 23 28.5 36t17.5 27.5t7 65.5v731h-114l114 72q22 235 139.5 375.5t329.5 140.5q132 0 228 -89.5t96 -207.5
q0 -59 -19.5 -99t-40.5 -71q-38 -32 -186 -92q140 -42 234 -172q73 -96 73 -230q0 -223 -116.5 -348t-153.5 -153l-37 -29l-264 -113q373 224 373 519.5t-142 370.5t-231 97l127 80q22 0 102 -10z" />
    <glyph glyph-name="agrave" unicode="&#xe0;" horiz-adv-x="894" 
d="M490 524q-18 0 -61 -18q-42 -18 -87 -52q-115 -87 -115 -196q0 -83 61 -126q61 -42 154 -42q92 0 174 82q-10 31 -17 50t-13 41q-6 23 -14 49t-19 69l-18 70q-11 41 -19 57t-26 16zM300 -25q-140 0 -205 62q-66 62 -66 150q0 157 181 273q97 62 284 128l-31 90
q-27 72 -52 112q-49 75 -141 81q-47 3 -116 1l149 64q67 0 133 -5q137 -10 187 -125q35 -79 73 -218l41 -146q96 -321 147 -394q24 -34 48 -64q-51 -6 -83 -7q-32 0 -93 33q-62 33 -86 69t-39 64l-96 -94q-29 -16 -91 -45q-64 -29 -144 -29zM592 1075l-445 99l-139 104
l441 -100z" />
    <glyph glyph-name="aacute" unicode="&#xe1;" horiz-adv-x="894" 
d="M490 524q-18 0 -61 -18q-42 -18 -87 -52q-115 -87 -115 -196q0 -83 61 -126q61 -42 154 -42q92 0 174 82q-10 31 -17 50t-13 41q-6 23 -14 49t-19 69l-18 70q-11 41 -19 57t-26 16zM300 -25q-140 0 -205 62q-66 62 -66 150q0 157 181 273q97 62 284 128l-31 90
q-27 72 -52 112q-49 75 -141 81q-47 3 -116 1l149 64q67 0 133 -5q137 -10 187 -125q35 -79 73 -218l41 -146q96 -321 147 -394q24 -34 48 -64q-51 -6 -83 -7q-32 0 -93 33q-62 33 -86 69t-39 64l-96 -94q-29 -16 -91 -45q-64 -29 -144 -29zM717 1174l-436 -99l139 103
l440 100z" />
    <glyph glyph-name="acircumflex" unicode="&#xe2;" horiz-adv-x="894" 
d="M490 524q-18 0 -61 -18q-42 -18 -87 -52q-115 -87 -115 -196q0 -83 61 -126q61 -42 154 -42q92 0 174 82q-10 31 -17 50t-13 41q-6 23 -14 49t-19 69l-18 70q-11 41 -19 57t-26 16zM300 -25q-140 0 -205 62q-66 62 -66 150q0 157 181 273q97 62 284 128l-31 90
q-27 72 -52 112q-49 75 -141 81q-47 3 -116 1l149 64q67 0 133 -5q137 -10 187 -125q35 -79 73 -218l41 -146q96 -321 147 -394q24 -34 48 -64q-51 -6 -83 -7q-32 0 -93 33q-62 33 -86 69t-39 64l-96 -94q-29 -16 -91 -45q-64 -29 -144 -29zM721 1147l-105 -45l-204 94
l-318 -113l182 136l164 59z" />
    <glyph glyph-name="atilde" unicode="&#xe3;" horiz-adv-x="894" 
d="M490 524q-18 0 -61 -18q-42 -18 -87 -52q-115 -87 -115 -196q0 -83 61 -126q61 -42 154 -42q92 0 174 82q-10 31 -17 50t-13 41q-6 23 -14 49t-19 69l-18 70q-11 41 -19 57t-26 16zM300 -25q-140 0 -205 62q-66 62 -66 150q0 157 181 273q97 62 284 128l-31 90
q-27 72 -52 112q-49 75 -141 81q-47 3 -116 1l149 64q67 0 133 -5q137 -10 187 -125q35 -79 73 -218l41 -146q96 -321 147 -394q24 -34 48 -64q-51 -6 -83 -7q-32 0 -93 33q-62 33 -86 69t-39 64l-96 -94q-29 -16 -91 -45q-64 -29 -144 -29zM526 1125q-14 -1 -35 -1t-88 14
q-68 14 -130 15q-62 0 -99 -15t-82 -42l170 123q31 6 65 6t97 -13q82 -12 148 -12t169 39l-141 -104q-12 -6 -35 -7q-25 -2 -39 -3z" />
    <glyph glyph-name="adieresis" unicode="&#xe4;" horiz-adv-x="894" 
d="M490 524q-18 0 -61 -18q-42 -18 -87 -52q-115 -87 -115 -196q0 -83 61 -126q61 -42 154 -42q92 0 174 82q-10 31 -17 50t-13 41q-6 23 -14 49t-19 69l-18 70q-11 41 -19 57t-26 16zM300 -25q-140 0 -205 62q-66 62 -66 150q0 157 181 273q97 62 284 128l-31 90
q-27 72 -52 112q-49 75 -141 81q-47 3 -116 1l149 64q67 0 133 -5q137 -10 187 -125q35 -79 73 -218l41 -146q96 -321 147 -394q24 -34 48 -64q-51 -6 -83 -7q-32 0 -93 33q-62 33 -86 69t-39 64l-96 -94q-29 -16 -91 -45q-64 -29 -144 -29zM104 1223q34 25 142 123
q45 -56 119 -138l-38 -38q-15 -15 -31 -28t-32 -28t-41 -33q-46 40 -73 78q-27 37 -46 64zM803 1206q-64 -64 -146 -123q-44 44 -112 146q67 50 143 119q56 -78 115 -142z" />
    <glyph glyph-name="aring" unicode="&#xe5;" horiz-adv-x="894" 
d="M490 524q-18 0 -61 -18q-42 -18 -87 -52q-115 -87 -115 -196q0 -83 61 -126q61 -42 154 -42q92 0 174 82q-10 31 -17 50t-13 41q-6 23 -14 49t-19 69l-18 70q-11 41 -19 57t-26 16zM300 -25q-140 0 -205 62q-66 62 -66 150q0 157 181 273q97 62 284 128l-31 90
q-27 72 -52 112q-49 75 -141 81q-47 3 -116 1l149 64q67 0 133 -5q137 -10 187 -125q35 -79 73 -218l41 -146q96 -321 147 -394q24 -34 48 -64q-51 -6 -83 -7q-32 0 -93 33q-62 33 -86 69t-39 64l-96 -94q-29 -16 -91 -45q-64 -29 -144 -29zM457 1081q45 0 75 32t29 73
q0 41 -27 74q-28 32 -75 32t-77 -32t-30 -73q0 -40 30 -73t75 -33zM610 1184q0 -58 -43 -104t-111 -46t-110 46q-43 46 -43 104t42 107q42 48 113 48q71 -1 112 -49q40 -48 40 -106z" />
    <glyph glyph-name="ae" unicode="&#xe6;" horiz-adv-x="1366" 
d="M498 524q-22 0 -64.5 -20.5t-86.5 -55t-76.5 -84.5t-32.5 -116t54 -114t139 -48t132 32.5t76 61.5q-49 76 -74 185q-26 109 -35.5 134t-31.5 25zM1147 712q0 65 -58 121t-130 56q-71 0 -148.5 -63.5t-77.5 -189.5q0 -86 8 -142l367 170q39 16 39 48zM1012 956
q179 0 250 -91t92 -167l-463 -198l-148 -15q20 -177 136 -293t268 -116q78 0 135 23.5t109 52.5l-113 -105q-286 -148 -420.5 -64t-204.5 169l-106 -105q-33 -18 -95 -47t-172 -29t-174.5 64.5t-64.5 142.5q0 139 118.5 234t344.5 178l-23 74q-29 80 -55.5 121.5t-64 61
t-90 22.5t-130.5 1l150 66q158 0 210 -17.5t86 -51t56 -97.5q162 186 369 186z" />
    <glyph glyph-name="ccedilla" unicode="&#xe7;" horiz-adv-x="811" 
d="M684 831q-88 46 -151 46q-125 0 -208 -81.5t-83 -249.5q0 -169 102 -316.5t297 -147.5q86 0 145.5 24.5t110.5 53.5l-109 -113q-16 -8 -32 -15t-50 -23t-75 -21.5t-62 -10.5l-47 -94q6 -4 13 -8.5t27 -18.5t44.5 -57t24.5 -93q0 -95 -70 -189q-25 -31 -76 -74l-131 -57
q146 114 146 218t-55.5 130t-75.5 37q72 106 112 202q-199 23 -267.5 104t-108 165t-39.5 186q0 216 142 371t439 155q104 0 211 -26l-162 -164l-86 -31z" />
    <glyph glyph-name="egrave" unicode="&#xe8;" horiz-adv-x="894" 
d="M680 715q0 63 -61 116q-61 54 -143 55q-81 1 -147 -59q-89 -81 -87 -225q0 -28 2 -54t4 -54l373 161q29 9 44 21t15 39zM66 478q0 223 155 359q140 119 314 117q118 0 211 -59t128 -159q8 -24 15 -42l-481 -194l-158 -13q35 -189 154 -301t268 -110q78 0 137 22t113 49
l-109 -102q-15 -10 -33 -19t-35 -18q-86 -39 -199 -39q-112 -1 -172 25q-182 77 -258 252q-50 110 -50 232zM678 1075l-445 99l-139 104l441 -100z" />
    <glyph glyph-name="eacute" unicode="&#xe9;" horiz-adv-x="894" 
d="M680 715q0 63 -61 116q-61 54 -143 55q-81 1 -147 -59q-89 -81 -87 -225q0 -28 2 -54t4 -54l373 161q29 9 44 21t15 39zM66 478q0 223 155 359q140 119 314 117q118 0 211 -59t128 -159q8 -24 15 -42l-481 -194l-158 -13q35 -189 154 -301t268 -110q78 0 137 22t113 49
l-109 -102q-15 -10 -33 -19t-35 -18q-86 -39 -199 -39q-112 -1 -172 25q-182 77 -258 252q-50 110 -50 232zM803 1174l-436 -99l139 103l440 100z" />
    <glyph glyph-name="ecircumflex" unicode="&#xea;" horiz-adv-x="894" 
d="M680 715q0 63 -61 116q-61 54 -143 55q-81 1 -147 -59q-89 -81 -87 -225q0 -28 2 -54t4 -54l373 161q29 9 44 21t15 39zM66 478q0 223 155 359q140 119 314 117q118 0 211 -59t128 -159q8 -24 15 -42l-481 -194l-158 -13q35 -189 154 -301t268 -110q78 0 137 22t113 49
l-109 -102q-15 -10 -33 -19t-35 -18q-86 -39 -199 -39q-112 -1 -172 25q-182 77 -258 252q-50 110 -50 232zM807 1147l-105 -45l-204 94l-318 -113l182 136l164 59z" />
    <glyph glyph-name="edieresis" unicode="&#xeb;" horiz-adv-x="894" 
d="M680 715q0 63 -61 116q-61 54 -143 55q-81 1 -147 -59q-89 -81 -87 -225q0 -28 2 -54t4 -54l373 161q29 9 44 21t15 39zM66 478q0 223 155 359q140 119 314 117q118 0 211 -59t128 -159q8 -24 15 -42l-481 -194l-158 -13q35 -189 154 -301t268 -110q78 0 137 22t113 49
l-109 -102q-15 -10 -33 -19t-35 -18q-86 -39 -199 -39q-112 -1 -172 25q-182 77 -258 252q-50 110 -50 232zM297 1346q45 -56 119 -138l-38 -38q-14 -15 -30 -28t-32 -28t-42 -33q-56 48 -118 142q30 21 141 123zM739 1348q56 -78 115 -142q-38 -39 -62 -57t-41 -33t-42 -33
q-49 49 -72 84q-22 35 -41 62q67 50 143 119z" />
    <glyph glyph-name="igrave" unicode="&#xec;" horiz-adv-x="512" 
d="M350 125q0 -45 18 -55t64 -15l105 -8l-80 -47h-346q37 41 46 60t9 71v725h-154l138 72h245q-35 -47 -35 -105l-8 -594v-20l-2 -63v-21zM424 1075l-444 99l-140 104l441 -100z" />
    <glyph glyph-name="iacute" unicode="&#xed;" horiz-adv-x="512" 
d="M350 125q0 -45 18 -55t64 -15l105 -8l-80 -47h-346q37 41 46 60t9 71v725h-154l138 72h245q-35 -47 -35 -105l-8 -594v-20l-2 -63v-21zM547 1174l-436 -99l139 103l440 100z" />
    <glyph glyph-name="icircumflex" unicode="&#xee;" horiz-adv-x="512" 
d="M350 125q0 -45 18 -55t64 -15l105 -8l-80 -47h-346q37 41 46 60t9 71v725h-154l138 72h245q-35 -47 -35 -105l-8 -594v-20l-2 -63v-21zM573 1147l-104 -45l-205 94l-317 -113l182 136l164 59z" />
    <glyph glyph-name="idieresis" unicode="&#xef;" horiz-adv-x="512" 
d="M350 125q0 -45 18 -55t64 -15l105 -8l-80 -47h-346q37 41 46 60t9 71v725h-154l138 72h245q-35 -47 -35 -105l-8 -594v-20l-2 -63v-21zM-78 1223q49 36 141 123q50 -63 76 -90q25 -27 43 -48l-38 -38q-15 -15 -30 -28q-16 -13 -32 -28t-41 -33q-54 47 -77 81t-42 61z
M621 1206q-64 -64 -146 -123q-41 41 -67 80q-27 39 -46 66q72 54 144 119q56 -78 115 -142z" />
    <glyph glyph-name="eth" unicode="&#xf0;" horiz-adv-x="1110" 
d="M747 125q87 92 87 349q0 258 -78 339.5t-183 81.5q-171 0 -243 -154q-51 -96 -51 -285q0 -188 73.5 -305.5t208.5 -117.5q99 0 186 92zM1040 535q0 -237 -124.5 -399.5t-354.5 -162.5t-361.5 140t-131.5 354q0 213 142.5 350t356.5 137q117 0 178 -41q-69 172 -172 269
l-374 -133l57 92l260 94q-23 18 -83 62t-171 96l180 65q132 -70 242 -164l264 95l-55 -93l-154 -53q301 -301 301 -708z" />
    <glyph glyph-name="ntilde" unicode="&#xf1;" horiz-adv-x="1150" 
d="M162 310q0 196 8 556h-154l138 64h245q-28 -32 -34 -60q-5 -28 -5 -96q82 82 122 111q108 78 235 78q86 0 149 -38q118 -71 125 -219q4 -65 4 -131l-10 -421q0 -54 8 -70t49 -21l127 -14l-86 -49h-342q29 32 38 54t12 67l8 350q0 156 -6 210q-6 53 -45 105q-12 18 -43 38
t-91 22q-60 1 -117 -40q-52 -33 -139 -153l-12 -483q0 -69 9 -86t59 -23l118 -12l-83 -49h-345q18 18 35 38t20 48t3 224zM678 1125q-14 -1 -35 -1t-89 14t-130 15q-61 0 -98 -15t-82 -42l170 123q31 6 65 6t96 -13q82 -12 148 -12t170 39l-141 -104q-12 -6 -35 -7
q-25 -2 -39 -3z" />
    <glyph glyph-name="ograve" unicode="&#xf2;" horiz-adv-x="1150" 
d="M596 35q151 0 225 104q60 79 61 241t-74 316q-40 82 -106 138t-166 57t-168 -61q-69 -62 -86 -128q-34 -132 2 -300q42 -207 170 -312q66 -55 142 -55zM1085 470q0 -193 -141 -345t-377 -152q-235 0 -369 151t-133 345q1 193 151 339t374 146t359 -145q136 -146 136 -339
zM743 1075l-444 99l-139 104l440 -100z" />
    <glyph glyph-name="oacute" unicode="&#xf3;" horiz-adv-x="1150" 
d="M596 35q151 0 225 104q60 79 61 241t-74 316q-40 82 -106 138t-166 57t-168 -61q-69 -62 -86 -128q-34 -132 2 -300q42 -207 170 -312q66 -55 142 -55zM1085 470q0 -193 -141 -345t-377 -152q-235 0 -369 151t-133 345q1 193 151 339t374 146t359 -145q136 -146 136 -339
zM901 1174l-436 -99l139 103l440 100z" />
    <glyph glyph-name="ocircumflex" unicode="&#xf4;" horiz-adv-x="1150" 
d="M596 35q151 0 225 104q60 79 61 241t-74 316q-40 82 -106 138t-166 57t-168 -61q-69 -62 -86 -128q-34 -132 2 -300q42 -207 170 -312q66 -55 142 -55zM1085 470q0 -193 -141 -345t-377 -152q-235 0 -369 151t-133 345q1 193 151 339t374 146t359 -145q136 -146 136 -339
zM872 1147l-104 -45l-205 94l-317 -113l182 136l164 59z" />
    <glyph glyph-name="otilde" unicode="&#xf5;" horiz-adv-x="1150" 
d="M596 35q151 0 225 104q60 79 61 241t-74 316q-40 82 -106 138t-166 57t-168 -61q-69 -62 -86 -128q-34 -132 2 -300q42 -207 170 -312q66 -55 142 -55zM1085 470q0 -193 -141 -345t-377 -152q-235 0 -369 151t-133 345q1 193 151 339t374 146t359 -145q136 -146 136 -339
zM678 1125q-14 -1 -35 -1t-89 14t-130 15q-61 0 -98 -15t-82 -42l170 123q31 6 65 6t96 -13q82 -12 148 -12t170 39l-141 -104q-12 -6 -35 -7q-25 -2 -39 -3z" />
    <glyph glyph-name="odieresis" unicode="&#xf6;" horiz-adv-x="1150" 
d="M596 35q151 0 225 104q60 79 61 241t-74 316q-40 82 -106 138t-166 57t-168 -61q-69 -62 -86 -128q-34 -132 2 -300q42 -207 170 -312q66 -55 142 -55zM1085 470q0 -193 -141 -345t-377 -152q-235 0 -369 151t-133 345q1 193 151 339t374 146t359 -145q136 -146 136 -339
zM221 1223q49 36 141 123q50 -63 76 -90q25 -27 43 -48l-38 -38q-15 -15 -30 -28t-31 -28t-42 -33q-54 47 -77 81t-42 61zM920 1206q-64 -64 -146 -123q-44 44 -112 146q67 50 143 119q56 -78 115 -142z" />
    <glyph glyph-name="divide" unicode="&#xf7;" horiz-adv-x="1024" 
d="M1024 535h-1024v120h1024v-120zM523 954q38 0 62.5 -28.5t24.5 -64.5t-23.5 -64.5t-65.5 -28.5t-70.5 24.5t-28.5 69.5t31.5 68.5t69.5 23.5zM509 422q36 0 68.5 -22.5t32.5 -70.5t-30.5 -70.5t-65.5 -22.5t-63.5 24.5t-28.5 64.5t25.5 68.5t61.5 28.5z" />
    <glyph glyph-name="oslash" unicode="&#xf8;" horiz-adv-x="1150" 
d="M868 209q19 94 19 199t-66 247l-465 -450q16 -27 42 -64t75 -69q129 -75 252.5 -16t142.5 153zM548 889q-129 0 -208 -88q-78 -88 -78 -235t64 -296l462 453q-16 31 -40.5 66.5t-81.5 67.5q-56 32 -118 32zM184 135q-114 151 -114 339t151.5 334t376.5 146q88 0 156 -23
t100.5 -46t56.5 -43l80 73l109 17l-137 -139q119 -139 119 -338t-148 -342.5t-371 -143.5q-115 0 -187.5 32t-142.5 85l-75 -72l-109 -14z" />
    <glyph glyph-name="ugrave" unicode="&#xf9;" horiz-adv-x="1150" 
d="M145 419q0 205 13 439h-174l135 70h276q-34 -44 -44 -73q-9 -29 -9 -103l-2 -181v-136q0 -133 10 -184t30 -81q48 -69 173 -70q80 0 137 25t103 53q0 370 8 680h-156l123 70h274q-44 -49 -49 -103q-2 -20 -2 -51l-6 -433l2 -112q5 -97 25 -128q39 -58 135 -58q48 0 80 4
l-74 -47q-4 -2 -55 -16q-50 -14 -110 -14q-101 -1 -153 58q-26 28 -42 85q-5 -5 -19 -15t-30 -20t-31 -20q-113 -85 -244 -86q-237 -2 -299 167q-25 75 -25 280zM743 1075l-444 99l-139 104l440 -100z" />
    <glyph glyph-name="uacute" unicode="&#xfa;" horiz-adv-x="1150" 
d="M145 419q0 205 13 439h-174l135 70h276q-34 -44 -44 -73q-9 -29 -9 -103l-2 -181v-136q0 -133 10 -184t30 -81q48 -69 173 -70q80 0 137 25t103 53q0 370 8 680h-156l123 70h274q-44 -49 -49 -103q-2 -20 -2 -51l-6 -433l2 -112q5 -97 25 -128q39 -58 135 -58q48 0 80 4
l-74 -47q-4 -2 -55 -16q-50 -14 -110 -14q-101 -1 -153 58q-26 28 -42 85q-5 -5 -19 -15t-30 -20t-31 -20q-113 -85 -244 -86q-237 -2 -299 167q-25 75 -25 280zM868 1174l-436 -99l139 103l441 100z" />
    <glyph glyph-name="ucircumflex" unicode="&#xfb;" horiz-adv-x="1150" 
d="M145 419q0 205 13 439h-174l135 70h276q-34 -44 -44 -73q-9 -29 -9 -103l-2 -181v-136q0 -133 10 -184t30 -81q48 -69 173 -70q80 0 137 25t103 53q0 370 8 680h-156l123 70h274q-44 -49 -49 -103q-2 -20 -2 -51l-6 -433l2 -112q5 -97 25 -128q39 -58 135 -58q48 0 80 4
l-74 -47q-4 -2 -55 -16q-50 -14 -110 -14q-101 -1 -153 58q-26 28 -42 85q-5 -5 -19 -15t-30 -20t-31 -20q-113 -85 -244 -86q-237 -2 -299 167q-25 75 -25 280zM895 1147l-104 -45l-205 94l-318 -113l183 136l163 59z" />
    <glyph glyph-name="udieresis" unicode="&#xfc;" horiz-adv-x="1150" 
d="M145 419q0 205 13 439h-174l135 70h276q-34 -44 -44 -73q-9 -29 -9 -103l-2 -181v-136q0 -133 10 -184t30 -81q48 -69 173 -70q80 0 137 25t103 53q0 370 8 680h-156l123 70h274q-44 -49 -49 -103q-2 -20 -2 -51l-6 -433l2 -112q5 -97 25 -128q39 -58 135 -58q48 0 80 4
l-74 -47q-4 -2 -55 -16q-50 -14 -110 -14q-101 -1 -153 58q-26 28 -42 85q-5 -5 -19 -15t-30 -20t-31 -20q-113 -85 -244 -86q-237 -2 -299 167q-25 75 -25 280zM211 1223q30 21 141 123q45 -56 119 -138l-38 -38q-15 -15 -31 -28t-31 -28q-16 -15 -41 -33q-54 47 -77 81
t-42 61zM909 1206q-66 -66 -145 -123q-41 41 -67 80q-27 39 -46 66q72 54 144 119q60 -83 114 -142z" />
    <glyph glyph-name="yacute" unicode="&#xfd;" horiz-adv-x="894" 
d="M283 928q-23 -47 -23 -74q0 -26 24 -88q24 -60 36 -106q14 -46 28 -91l113 -336q23 -70 43 -120l84 200q28 72 56 143t74 190t66 214h-190l121 68h211q-12 -16 -25 -30t-31 -61q-18 -46 -56 -146q-38 -99 -60 -156t-43 -111q-20 -54 -109 -262q-89 -209 -146 -350
q-58 -140 -80 -195t-22 -70q0 -16 22 -25t132 -20l-82 -43h-246q38 38 55 71t33 64l131 277q12 27 22 45q9 18 15 32t13 26q6 13 12 30l-103 -33q-69 176 -153 427q-83 251 -97 299t-32 93q-16 45 -25 70h-145l127 68h250zM739 1174l-436 -99l139 103l441 100z" />
    <glyph glyph-name="thorn" unicode="&#xfe;" horiz-adv-x="1110" 
d="M881 412q0 84 -29 162.5t-95.5 159.5t-174.5 81q-57 0 -99.5 -26.5t-76.5 -57.5l-56 -43q0 -25 -1 -76t-2 -117.5t-2 -139t-4 -174.5t-3 -167l106 68q148 0 292.5 24t144.5 306zM674 948q143 0 255.5 -93t112.5 -298q0 -145 -53 -250t-119 -165q-113 -101 -233 -127.5
t-299 -26.5l-12 -369q-4 -60 9 -77t50 -21t60.5 -5t48.5 -5l-72 -48h-369q63 42 68 56q16 39 16 164t6 305l9 557q2 123 3 201.5t2.5 172t5.5 209.5q5 115 5 159t2 89h-150l150 70h279q-16 -10 -32 -19.5t-30 -26.5t-18 -85l-17 -545q68 47 109 75.5t96 65.5t65 37h52z" />
    <glyph glyph-name="ydieresis" unicode="&#xff;" horiz-adv-x="894" 
d="M283 928q-23 -47 -23 -74q0 -26 24 -88q24 -60 36 -106q14 -46 28 -91l113 -336q23 -70 43 -120l84 200q28 72 56 143t74 190t66 214h-190l121 68h211q-12 -16 -25 -30t-31 -61q-18 -46 -56 -146q-38 -99 -60 -156t-43 -111q-20 -54 -109 -262q-89 -209 -146 -350
q-58 -140 -80 -195t-22 -70q0 -16 22 -25t132 -20l-82 -43h-246q38 38 55 71t33 64l131 277q12 27 22 45q9 18 15 32t13 26q6 13 12 30l-103 -33q-69 176 -153 427q-83 251 -97 299t-32 93q-16 45 -25 70h-145l127 68h250zM254 1346q45 -56 119 -138l-38 -38
q-15 -15 -31 -28t-32 -28t-41 -33q-56 48 -118 142q30 21 141 123zM696 1348q56 -78 115 -142q-39 -39 -63 -57t-40 -33q-17 -15 -42 -33q-49 49 -72 84q-22 35 -41 62q67 50 143 119z" />
    <glyph glyph-name="OE" unicode="&#x152;" horiz-adv-x="2091" 
d="M301 791q0 -141 33 -237q72 -210 225.5 -358.5t380.5 -148.5q101 0 173 30t77.5 59.5t9.5 58.5v34l2 246l1 135q1 134 6 384t4 270t-12 38q-25 40 -111.5 69.5t-215.5 29.5q-128 0 -238 -46t-222.5 -170t-112.5 -394zM1733 709q0 16 -25 16h-233q-41 0 -51.5 -14.5
t-10.5 -42.5l4 -498q0 -29 5 -49.5t45 -41.5t232 -13t246 28.5t85 36.5l110 39l-190 -170h-750q-71 0 -149 -17t-177 -16q-197 0 -346 64.5t-248.5 169t-150.5 238.5t-51 287t65.5 296.5t181.5 245.5t268 155.5t312 53.5q41 0 81 -4.5t81 -8.5t81 -10t81 -6h776l-133 -133
l-55 -6l26 37l2 10q0 14 -20 14l-33 1l-137 3l-225 2l-7 -303q-4 -98 -4 -108v-172h465l-119 -109l-57 -14l23 30q2 2 2 9z" />
    <glyph glyph-name="oe" unicode="&#x153;" horiz-adv-x="1662" 
d="M262 577q0 -53 8.5 -111t36 -155t108.5 -188.5t199 -91.5q148 0 208.5 103t60.5 246t-82.5 327t-261.5 184q-53 0 -107.5 -23.5t-86.5 -56.5q-83 -86 -83 -234zM1475 714q0 53 -55.5 115t-133.5 62t-152.5 -67t-74.5 -224q0 -30 10 -102q88 41 176.5 82t144.5 65
t70.5 35.5t14.5 33.5zM1334 -27q-144 0 -231.5 63t-125.5 124q-78 -80 -171.5 -135.5t-229.5 -55.5q-246 0 -378 149.5t-132 350.5t153 343t377 142q106 0 194 -36t126 -74.5t61 -69.5q60 86 162 134t191 48q270 0 351 -260l-464 -196l-148 -13q18 -89 51 -165
q61 -129 158.5 -187.5t185.5 -58.5t144.5 23.5t99.5 45.5l-102 -96q-27 -12 -52.5 -23.5t-79.5 -31.5t-140 -21z" />
    <glyph glyph-name="Scaron" unicode="&#x160;" horiz-adv-x="1150" 
d="M360 1686l105 47l203 -95l317 113l-182 -137l-162 -60zM1059 405q0 -181 -150.5 -308.5t-382.5 -127.5t-475 103l160 180l55 12l-35 -69q-6 -9 -6 -17q-1 -8 11 -22q28 -34 130.5 -74.5t182.5 -40.5q143 0 233 79t90 193q0 53 -32 123t-97 114t-135 79l-141 67
q-66 33 -130.5 73t-112.5 115t-48 156q0 172 124.5 304.5t344.5 132.5t391 -99l-155 -166l-54 -12l33 62q10 26 10 32t-16 26.5t-47 40t-76 35t-131.5 15.5t-167 -71t-80.5 -181q0 -161 115 -221.5t156 -81.5l178 -86q110 -59 157.5 -110.5t74 -109.5t26.5 -145z" />
    <glyph glyph-name="scaron" unicode="&#x161;" horiz-adv-x="768" 
d="M586 817q-124 72 -194 72q-120 0 -145 -92q-7 -25 -7 -53q0 -94 131 -146l145 -63q49 -27 99 -63t81 -118t-18 -193q-49 -112 -192 -162q-72 -26 -136 -26q-213 0 -368 88l127 132l69 12l-43 -68q57 -39 113 -67t118 -29q64 0 97 14q58 25 81 84q9 27 9 59t-19 70
q-19 39 -64 62q-44 24 -69 37l-145 65q-30 16 -56 30q-63 34 -88 92q-26 58 -26 110q0 109 95 200q95 92 268 90q135 0 268 -61l-92 -121l-76 -31zM127 1217l104 45l203 -95l318 113l-183 -135l-161 -60z" />
    <glyph glyph-name="Ydieresis" unicode="&#x178;" horiz-adv-x="1280" 
d="M586 1677q-81 -81 -142 -125q-47 41 -73.5 78t-44.5 62q33 26 141 125q59 -73 119 -140zM1024 1677q-66 -66 -145 -123q-59 59 -113 146q53 39 143 117q50 -69 115 -140zM297 1378.5q0 -12.5 7 -26.5l16 -32t34 -57.5t80 -127.5l88 -134q14 -24 48 -71t52.5 -74t23.5 -34
q20 -28 40 -58t23 -33l135 193q35 55 70.5 109.5t69.5 106.5q97 150 140 228h-250l140 80h327l-77 -57q-16 -14 -32.5 -27.5t-60.5 -75.5l-409 -622v-519q0 -35 7 -48t39 -23t191 -25l-92 -51h-418l46 70q15 28 18 71v453l-184 289q-45 66 -88 130t-69 103t-95.5 135
t-83.5 117h-178l143 80h354l-24 -24q-25 -25 -28 -29t-3 -16.5z" />
    <glyph glyph-name="florin" unicode="&#x192;" horiz-adv-x="854" 
d="M736 1372q-101 0 -154.5 -78t-70.5 -219t-26 -207h367l-160 -69h-215q0 -4 -4 -31t-8 -59.5t-7 -62.5t-5 -43t-6.5 -49t-9.5 -81t-11 -95t-11 -96t-10.5 -83t-14.5 -112q-29 -242 -82 -377.5t-202 -217.5l-104 -29q99 95 138 245.5t69 421.5t44.5 408.5t31.5 260.5
l-191 -8l133 77h68q12 88 23.5 147.5t43.5 139.5q63 156 173.5 217.5t271.5 71.5l59 1q59 1 125 1l-147 -88q-56 14 -108 14z" />
    <glyph glyph-name="circumflex" unicode="&#x2c6;" 
d="M592 1147l-105 -45l-204 94l-318 -113l182 136l164 59z" />
    <glyph glyph-name="tilde" unicode="&#x2dc;" 
d="M387 1125q-14 -1 -36 -1t-88 14t-129 15q-62 0 -99 -15.5t-82 -41.5l170 123q31 6 64 6q33 -1 107 -13t136 -12q63 0 172 39l-141 -104q-12 -6 -36 -7.5t-38 -2.5z" />
    <glyph glyph-name="endash" unicode="&#x2013;" horiz-adv-x="980" 
d="M895 492h-870l155 86h862z" />
    <glyph glyph-name="emdash" unicode="&#x2014;" horiz-adv-x="1323" 
d="M1151 492h-1126l155 86h1118z" />
    <glyph glyph-name="quoteleft" unicode="&#x2018;" 
d="M162 1051q0 66 80 181q131 188 141 193l98 45l-41 -61q-108 -164 -115.5 -196.5t-7.5 -52.5t27 -46q2 -4 11.5 -14t26 -29t26.5 -29q-28 -22 -146 -131q-59 61 -79.5 87t-20.5 53z" />
    <glyph glyph-name="quoteright" unicode="&#x2019;" 
d="M236 1217q0 24 -24 49.5t-42 46t-25 26.5q33 27 77 68t69 63q86 -86 93 -106t7 -40q0 -58 -80 -174q-24 -34 -42.5 -60.5t-55.5 -80t-41 -53.5l-98 -45l39 60q23 37 73 114t50 132z" />
    <glyph glyph-name="quotesinglbase" unicode="&#x201a;" horiz-adv-x="512" 
d="M356 100q0 -37 -50 -127t-132 -190l-35 -43l-102 -43q61 84 113.5 163t52.5 118t-11.5 55t-29 36.5t-45.5 53.5l145 131q69 -78 81.5 -97.5t12.5 -56.5z" />
    <glyph glyph-name="quotedblleft" unicode="&#x201c;" horiz-adv-x="811" 
d="M451 1063q0 78 196 323l25 31l104 49l-37 -53q-16 -23 -73.5 -101t-57.5 -124t18 -68t35 -42.5t29 -37.5q-50 -41 -145 -129q-31 37 -62.5 73.5t-31.5 78.5zM258 1174q0 -25 15.5 -47.5t70.5 -84.5q-41 -36 -145 -131q-33 37 -52.5 58.5t-31 41.5t-11.5 54
q0 57 88.5 186.5t129.5 173.5l102 45q-166 -220 -166 -296z" />
    <glyph glyph-name="quotedblright" unicode="&#x201d;" horiz-adv-x="811" 
d="M162 993l-25 -30l-104 -48l37 52q131 164 131 245q0 33 -35 72t-47 55q23 19 145 131q82 -92 88 -114.5t6 -55.5q0 -54 -196 -307zM705 1316q0 -36 -47 -119.5t-137 -197.5l-34 -43l-102 -43q61 84 113.5 163t52.5 118t-17 63.5t-69 81.5l145 131q71 -80 83 -99t12 -55z
" />
    <glyph glyph-name="quotedblbase" unicode="&#x201e;" horiz-adv-x="811" 
d="M358 96q0 -64 -196 -317l-25 -31l-104 -47l37 51q131 164 131 246q1 27 -17 49t-35.5 42t-29.5 36q25 20 40 34.5t29.5 28t32 28.5t43.5 40q82 -91 88 -114t6 -46zM705 99q0 -36 -47.5 -119.5t-136.5 -196.5l-34 -43l-102 -43q61 84 113.5 163t52.5 118t-16.5 62
t-69.5 83l145 131q69 -78 82 -98.5t13 -56.5z" />
    <glyph glyph-name="dagger" unicode="&#x2020;" horiz-adv-x="980" 
d="M453 -76q-13 280 -13 445l4 555l-436 2l103 73h333l9 328l108 174q-14 -252 -18 -502h430l-111 -73l-319 -2v-852z" />
    <glyph glyph-name="daggerdbl" unicode="&#x2021;" horiz-adv-x="980" 
d="M442 112v310h-428l92 70h336v460h-428l103 72h325l9 291l96 168q0 -99 -3 -177t-4 -114.5t-2 -63t0 -49t1 -55.5h430l-105 -72h-332v-460h426l-102 -70h-324v-363l-81 -143q-9 166 -9 196z" />
    <glyph glyph-name="bullet" unicode="&#x2022;" horiz-adv-x="681" 
d="M519.5 551.5q-66.5 -72.5 -174.5 -72.5t-178.5 72.5t-70.5 170.5q0 97 70 171t177 74t175 -72t68 -171.5t-66.5 -172z" />
    <glyph glyph-name="ellipsis" unicode="&#x2026;" horiz-adv-x="2048" 
d="M1845 117q-53 -61 -89 -90t-62 -52q-28 25 -49 49.5t-37.5 43t-40.5 49.5l90 80l61 61l45 -57zM1163 117q-53 -61 -89 -90t-62 -52q-28 25 -49 49.5t-37.5 43t-40.5 49.5l90 80l61 61l45 -57zM481 117q-53 -61 -89 -90t-62 -52q-28 25 -49 49.5t-37.5 43t-40.5 49.5
l90 80l61 61l45 -57z" />
    <glyph glyph-name="perthousand" unicode="&#x2030;" horiz-adv-x="2304" 
d="M1368 1473q-91 -114 -258 -362t-226 -341q-60 -94 -121 -188.5t-121 -188.5t-97 -150.5t-72.5 -114.5t-79.5 -128l-100 -23q8 12 15 24.5t41 66.5t90.5 146t120.5 194q134 216 350 540.5t343 503.5zM2123 598q-21 161 -84 202.5t-105 41.5t-75 -32t-55 -93t-22 -160
q0 -200 55.5 -345.5t152.5 -145.5t125.5 101t28.5 185q0 85 -21 246zM2257 530q0 -327 -112 -435.5t-194 -108.5q-145 0 -214.5 122t-69.5 322q0 201 94.5 345.5t237.5 144.5q111 0 184.5 -100t73.5 -290zM1462 330q0 311 -68.5 411.5t-125.5 100.5q-168 0 -168 -299
q0 -186 55.5 -331.5t151.5 -145.5q56 0 105.5 63t49.5 201zM1575 530q0 -327 -112 -435.5t-194 -108.5q-145 0 -214.5 122t-69.5 322q0 201 94.5 345.5t237.5 144.5q111 0 184.5 -100t73.5 -290zM524 874q0 203 -35 308q-31 135 -83 168.5t-94 33.5t-75 -31.5t-55 -92.5
t-22 -160q0 -200 55.5 -346t153.5 -146q55 0 89 43t50 102t16 121zM637 1074q0 -325 -112 -435.5t-193 -110.5q-143 0 -215 121.5t-72 322.5t94.5 345.5t237.5 144.5q113 0 186.5 -99t73.5 -289z" />
    <glyph glyph-name="guilsinglleft" unicode="&#x2039;" 
d="M512 184l-61 -53l-410 401l418 396l55 -56l-358 -340z" />
    <glyph glyph-name="guilsinglright" unicode="&#x203a;" 
d="M43 874l55 54l418 -404l-416 -391l-59 53l358 338z" />
    <glyph glyph-name="trademark" unicode="&#x2122;" horiz-adv-x="1579" 
d="M53 1446h576q0 -78 8 -174h-62q-14 41 -24 62.5t-30 33.5t-115 12v-454q0 -66 11 -77t28.5 -13t52.5 -7v-63q-98 4 -105 4h-60q-53 0 -151 -4v63q67 4 80.5 17.5t13.5 79.5v454q-95 0 -115 -12t-30 -33.5t-25 -62.5h-61q8 100 8 174zM1370 770q-65 0 -131 -4v63
q35 4 50.5 10.5t17.5 34.5v373l-203 -479h-45l-203 485v-321q0 -67 13.5 -83t68.5 -20v-63h-29h-213v63q52 8 64 23.5t12 79.5v428q-14 16 -31.5 19t-33.5 5v64q25 -2 34 -2h71q62 0 85 2l207 -508l213 506h56l136 2v-64q-57 -4 -68 -20.5t-11 -91.5v-340q0 -73 7 -84
q7 -10 19 -12t41 -7v-63q-62 4 -127 4z" />
    </font>
</defs>
</svg>
